<?xml version="1.0" encoding="UTF-8" standalone="no"?>
<!DOCTYPE svg PUBLIC "-//W3C//DTD SVG 1.1//EN" "http://www.w3.org/Graphics/SVG/1.1/DTD/svg11.dtd">
<svg xmlns="http://www.w3.org/2000/svg" version="1.1" viewBox="0.00 0.00 1914.00 1641.00">
<g stroke-width="2.00" fill="none" stroke-linecap="butt">
<path stroke="#695e43" vector-effect="non-scaling-stroke" d="
  M 631.68 1634.49
  L 622.23 1413.12
  A 0.58 0.21 -64.9 0 1 622.24 1413.01
  Q 622.49 1411.13 621.80 1410.15
  A 1.44 1.44 0.0 0 0 620.26 1409.58
  Q 609.18 1412.41 599.69 1414.98
  Q 598.84 1415.21 598.02 1415.45
  Q 585.02 1419.17 580.05 1420.13
  Q 579.31 1420.27 578.99 1420.20
  A 1.73 1.73 0.0 0 0 577.92 1420.29
  Q 575.19 1421.49 571.12 1422.56
  Q 565.99 1423.91 547.10 1428.44
  Q 532.27 1432.01 526.98 1433.25
  Q 516.65 1435.70 505.20 1438.57
  C 503.44 1439.01 501.66 1439.07 500.30 1439.49
  Q 494.39 1441.35 489.47 1441.58
  A 0.12 0.11 6.4 0 0 489.36 1441.66
  L 489.22 1442.10
  Q 489.21 1442.11 489.20 1442.12
  L 457.49 1449.21
  A 0.87 0.78 -48.2 0 1 457.31 1449.23
  C 451.55 1449.61 446.50 1451.70 444.49 1451.89
  Q 440.82 1452.25 434.50 1453.92
  Q 433.41 1454.21 431.54 1454.20
  Q 430.07 1454.19 428.31 1454.97
  A 3.65 3.14 -58.8 0 1 427.70 1455.17
  Q 413.35 1458.28 393.48 1459.91
  Q 349.42 1463.54 316.38 1437.51
  C 310.40 1432.80 304.34 1427.92 299.08 1422.17
  Q 281.88 1403.34 269.01 1381.24
  C 255.34 1357.75 244.72 1335.21 232.93 1309.06
  Q 186.84 1206.79 147.62 1099.64
  Q 116.53 1014.69 95.09 953.42
  C 93.91 950.05 96.25 946.60 99.84 946.24
  C 104.57 945.77 106.01 948.88 107.49 953.20
  C 139.22 1045.20 173.58 1139.36 210.81 1229.70
  C 226.82 1268.54 244.09 1308.12 263.18 1346.55
  C 277.58 1375.53 292.82 1401.14 315.50 1422.07
  Q 349.10 1453.08 395.24 1448.64
  Q 403.19 1447.88 411.49 1446.58
  Q 421.21 1445.07 442.76 1440.87
  Q 449.71 1439.51 449.82 1439.49
  Q 453.87 1438.48 456.84 1437.88
  Q 469.96 1435.25 483.41 1432.33
  Q 486.07 1431.75 488.50 1431.05
  Q 491.62 1430.15 493.60 1429.89
  Q 495.49 1429.65 498.41 1428.78
  Q 499.38 1428.50 503.20 1427.70
  Q 512.50 1425.76 522.53 1423.14
  Q 524.77 1422.56 526.62 1422.63
  A 0.42 0.42 0.0 0 0 526.99 1422.44
  Q 527.18 1422.14 527.57 1422.04
  Q 531.71 1420.99 556.75 1414.95
  C 561.46 1413.82 565.43 1412.42 569.65 1411.55
  Q 571.29 1411.21 602.68 1402.93
  Q 613.72 1400.02 623.65 1397.11
  C 624.97 1396.73 626.29 1396.94 627.51 1396.15
  A 2.03 1.77 -65.6 0 1 628.08 1395.89
  Q 641.22 1392.04 644.30 1391.16
  Q 673.26 1382.88 733.03 1364.08
  Q 758.17 1356.17 758.67 1356.02
  Q 760.76 1355.37 778.11 1349.88
  Q 788.99 1346.45 796.35 1344.11
  Q 797.27 1343.81 797.90 1343.61
  Q 830.18 1333.12 833.25 1332.18
  C 839.21 1330.37 842.62 1327.92 842.79 1321.73
  Q 843.35 1300.65 836.72 1280.23
  Q 825.91 1246.94 810.08 1212.44
  Q 802.51 1195.93 792.83 1180.20
  Q 791.11 1177.39 786.29 1173.17
  A 1.41 1.40 66.3 0 0 785.38 1172.81
  Q 784.18 1172.80 782.28 1173.09
  Q 770.28 1174.97 750.75 1177.87
  Q 729.40 1181.04 702.74 1185.10
  C 701.09 1185.35 699.21 1185.35 697.53 1185.68
  Q 692.65 1186.63 684.25 1187.87
  Q 648.13 1193.22 616.10 1198.11
  C 613.74 1198.48 611.68 1198.11 609.55 1198.97
  A 2.74 2.66 -59.9 0 1 608.91 1199.15
  Q 549.47 1208.06 549.28 1208.14
  Q 548.77 1208.35 540.20 1209.45
  Q 534.80 1210.15 530.60 1211.03
  Q 528.93 1211.38 527.40 1211.35
  Q 525.31 1211.30 524.16 1211.61
  Q 521.97 1212.20 520.45 1212.43
  Q 486.92 1217.49 435.59 1225.14
  C 431.63 1225.73 428.38 1225.48 426.58 1221.96
  Q 423.86 1216.67 428.86 1214.33
  A 3.23 3.13 -61.2 0 1 429.67 1214.08
  Q 436.54 1213.05 458.64 1209.55
  C 461.52 1209.09 463.71 1208.38 462.76 1205.03
  C 454.09 1174.50 439.73 1122.43 427.63 1080.63
  Q 390.30 951.63 359.40 844.87
  Q 357.98 839.95 353.01 824.51
  Q 352.51 822.94 352.63 817.61
  A 2.12 2.09 63.0 0 1 352.97 816.53
  Q 355.13 813.25 358.89 813.62
  C 362.03 813.93 364.22 818.46 364.96 821.06
  C 376.84 863.32 385.92 895.77 396.71 932.44
  Q 437.12 1069.75 474.86 1205.29
  A 1.74 1.73 82.5 0 0 476.52 1206.57
  Q 482.14 1206.61 489.76 1205.48
  Q 540.81 1197.90 614.23 1186.65
  A 1.06 1.06 0.0 0 0 615.14 1185.62
  Q 615.33 1172.33 614.58 1158.50
  Q 613.09 1130.92 610.75 1103.99
  C 610.31 1098.92 609.45 1094.26 609.63 1089.74
  A 1.24 1.15 34.9 0 0 609.51 1089.18
  Q 609.24 1088.60 609.22 1088.46
  Q 604.94 1047.80 600.40 1019.85
  Q 599.30 1013.02 599.07 1011.35
  Q 598.55 1007.43 597.72 1002.77
  Q 595.17 988.30 592.94 975.66
  Q 592.61 973.82 591.60 969.23
  Q 591.15 967.19 590.41 962.77
  Q 589.21 955.69 586.76 945.04
  C 585.65 940.24 584.90 934.81 583.33 929.83
  A 4.07 3.44 -60.2 0 1 583.16 928.91
  Q 583.01 926.82 582.55 925.19
  Q 581.53 921.63 579.71 913.03
  C 579.19 910.57 578.19 908.15 577.81 905.59
  C 577.31 902.26 575.71 898.52 575.62 894.48
  A 0.25 0.25 0.0 0 0 575.49 894.26
  Q 575.41 894.21 575.39 894.20
  A 1.28 1.24 11.9 0 1 575.01 893.64
  Q 573.66 889.77 573.07 887.07
  Q 572.24 883.22 571.42 880.46
  Q 570.23 876.49 567.16 865.08
  C 566.39 862.25 565.56 860.20 564.78 857.41
  Q 557.43 830.96 544.25 795.45
  Q 525.97 746.20 500.59 699.93
  Q 498.56 696.23 489.64 682.96
  A 2.65 2.60 3.3 0 0 489.14 682.41
  Q 485.52 679.40 481.66 681.27
  Q 474.46 684.77 465.65 687.14
  Q 457.51 689.33 448.67 689.34
  Q 433.87 689.35 419.46 685.94
  Q 392.29 679.52 366.60 664.84
  Q 344.59 652.27 321.17 634.07
  Q 289.41 609.38 263.49 581.50
  Q 256.79 574.29 249.36 565.91
  Q 247.43 563.73 243.60 563.43
  C 240.81 563.22 237.98 565.31 235.87 567.11
  Q 205.15 593.25 175.28 621.78
  Q 159.69 636.68 148.36 648.84
  C 102.66 697.91 69.73 759.56 53.63 824.34
  Q 38.13 886.74 30.79 953.51
  Q 22.87 1025.58 20.87 1083.44
  Q 20.13 1104.91 18.96 1149.60
  Q 17.64 1199.96 17.56 1215.75
  Q 16.99 1333.41 15.03 1479.25
  Q 15.03 1479.27 13.81 1532.22
  Q 12.62 1583.32 11.96 1634.49"
/>
<path stroke="#8d9195" vector-effect="non-scaling-stroke" d="
  M 1079.59 1054.48
  Q 1075.82 1055.43 1069.50 1057.96
  A 1.76 1.76 0.0 0 0 1068.40 1059.53
  Q 1067.74 1077.26 1068.36 1094.19
  Q 1068.45 1096.72 1069.52 1099.05
  A 2.41 2.39 3.7 0 0 1070.43 1100.08
  Q 1071.76 1100.91 1079.31 1107.72
  C 1093.41 1120.44 1089.20 1136.51 1083.10 1151.68
  C 1082.02 1154.35 1081.40 1157.22 1082.30 1159.74
  C 1086.26 1170.85 1084.36 1180.52 1082.02 1191.57
  Q 1081.07 1196.01 1081.70 1198.47
  Q 1082.56 1201.81 1084.81 1204.71
  Q 1102.25 1227.15 1129.28 1234.08
  C 1132.01 1234.78 1135.64 1235.37 1138.00 1235.50
  Q 1154.40 1236.38 1173.01 1236.38
  Q 1670.80 1236.33 1812.75 1236.41
  Q 1829.22 1236.42 1840.76 1233.48
  C 1865.04 1227.28 1883.93 1209.47 1894.25 1186.88
  C 1899.40 1175.63 1901.33 1162.32 1901.33 1150.25
  Q 1901.31 167.92 1901.38 143.54
  Q 1901.42 127.27 1901.00 114.52
  C 1899.68 75.02 1869.76 42.59 1830.92 36.55
  Q 1823.82 35.44 1797.01 35.44
  Q 1481.77 35.37 1162.78 35.43
  Q 1144.31 35.44 1136.33 36.95
  Q 1121.62 39.74 1108.97 46.77
  C 1086.56 59.21 1069.89 82.35 1068.90 108.23
  Q 1068.26 124.76 1068.27 141.51
  Q 1068.40 796.98 1068.23 992.75
  Q 1068.23 993.96 1068.40 995.21
  A 1.36 1.36 0.0 0 0 1070.03 996.35
  Q 1102.89 989.20 1129.62 982.81
  C 1137.70 980.87 1144.42 979.95 1151.55 982.22
  C 1161.59 985.42 1165.69 995.05 1165.52 1005.05
  C 1165.30 1017.39 1158.40 1024.57 1147.45 1029.23
  Q 1119.00 1041.35 1081.15 1053.97
  Q 1079.72 1054.44 1079.59 1054.48"
/>
<path stroke="#8d8984" vector-effect="non-scaling-stroke" d="
  M 690.59 403.55
  Q 692.71 402.65 694.52 402.65
  C 711.80 402.70 721.34 403.38 734.07 400.34
  C 739.53 399.03 743.46 396.91 743.25 390.73
  Q 743.10 386.42 740.22 381.31
  Q 725.60 355.35 710.21 324.07
  Q 702.41 308.21 697.20 295.57
  Q 691.79 282.43 693.03 270.25
  Q 694.55 255.31 695.50 243.00
  Q 697.96 210.96 691.38 179.23
  A 0.75 0.75 0.0 0 0 690.56 178.64
  Q 653.80 183.07 616.76 178.91
  Q 608.39 177.97 603.15 176.79
  Q 601.20 176.35 601.15 176.30
  A 0.41 0.40 -42.6 0 0 600.56 176.28
  Q 600.30 176.54 597.76 176.02
  Q 576.13 171.59 568.69 170.20
  A 1.05 1.05 0.0 0 0 567.44 171.22
  Q 567.28 184.32 565.03 196.75
  C 561.43 216.59 552.00 234.68 539.29 250.07
  Q 516.15 278.09 482.32 298.80
  C 470.44 306.08 465.25 294.55 461.10 285.71
  Q 458.27 279.68 452.67 271.62
  C 443.46 258.35 430.09 249.64 413.65 249.11
  Q 404.01 248.80 395.86 252.60
  C 380.73 259.64 371.07 275.03 369.40 291.58
  C 367.33 312.01 370.24 334.22 380.64 352.33
  Q 389.16 367.18 405.12 371.54
  C 411.11 373.19 423.87 371.47 424.28 380.41
  C 424.68 388.98 413.93 388.20 408.98 387.00
  Q 388.38 382.02 374.07 366.39
  A 1.23 1.22 -51.6 0 0 372.10 366.62
  Q 350.49 404.92 319.97 434.97
  C 313.66 441.19 307.40 446.70 299.15 448.24
  C 296.93 448.66 295.43 449.30 294.84 451.36
  Q 279.95 503.08 258.06 552.11
  C 256.85 554.81 256.88 556.28 258.60 558.40
  Q 267.04 568.85 276.40 578.35
  C 304.60 606.99 335.68 632.23 369.95 652.79
  Q 388.38 663.86 410.06 671.18
  Q 434.97 679.60 459.98 675.95
  Q 462.67 675.56 466.33 674.48
  C 470.29 673.31 472.41 672.75 474.69 671.64
  A 2.35 2.35 0.0 0 0 476.00 669.22
  Q 474.55 657.82 476.97 646.73
  C 483.08 618.80 494.80 592.48 508.96 567.36
  A 1.25 1.24 20.8 0 0 508.13 565.53
  C 502.55 564.34 495.74 562.91 490.99 559.55
  C 487.50 557.08 487.68 553.12 490.84 550.54
  C 493.54 548.33 497.25 548.35 500.78 549.43
  C 529.28 558.15 558.08 566.75 588.17 564.35
  Q 615.17 562.19 633.12 543.28
  Q 643.60 532.24 650.13 519.08
  Q 662.08 495.00 667.95 467.75
  A 0.61 0.60 5.7 0 0 667.35 467.02
  C 646.02 467.39 627.67 459.99 610.24 446.54
  Q 606.61 443.74 605.81 441.88
  C 603.15 435.76 607.69 428.92 614.70 431.88
  A 4.08 4.05 75.5 0 1 615.61 432.42
  C 620.61 436.36 625.89 441.35 630.95 444.26
  Q 649.08 454.69 670.69 454.04
  A 2.12 2.11 5.7 0 0 672.69 452.41
  Q 677.91 430.35 683.03 412.31
  Q 684.81 406.02 690.59 403.55"
/>
<path stroke="#8d8984" vector-effect="non-scaling-stroke" d="
  M 989.89 1069.92
  C 984.41 1065.42 987.98 1058.53 994.42 1058.93
  Q 996.94 1059.08 1003.73 1062.35
  Q 1007.82 1064.31 1012.70 1062.73
  Q 1024.93 1058.75 1028.67 1057.67
  Q 1032.70 1056.49 1037.83 1054.56
  Q 1041.58 1053.15 1047.11 1051.81
  A 4.86 4.53 22.2 0 0 1048.19 1051.40
  Q 1051.17 1049.86 1053.87 1049.78
  A 2.56 2.56 0.0 0 0 1055.07 1049.46
  Q 1056.66 1048.58 1061.00 1046.87
  Q 1063.12 1046.04 1063.86 1046.07
  A 1.22 1.22 0.0 0 0 1064.43 1045.95
  Q 1067.90 1044.24 1071.07 1043.82
  A 2.45 2.40 26.2 0 0 1071.95 1043.53
  C 1075.15 1041.76 1078.75 1040.96 1081.99 1039.80
  Q 1093.05 1035.85 1094.13 1035.77
  A 1.16 1.16 0.0 0 0 1094.76 1035.54
  Q 1096.54 1034.25 1099.67 1033.83
  A 2.77 2.76 -64.5 0 0 1100.68 1033.47
  Q 1104.12 1031.44 1108.70 1030.61
  A 0.34 0.31 -73.8 0 0 1108.90 1030.49
  Q 1108.93 1030.44 1109.01 1030.36
  A 1.77 1.76 11.6 0 1 1109.67 1029.93
  Q 1121.47 1025.54 1134.68 1020.64
  C 1143.35 1017.44 1155.38 1011.87 1152.84 1000.82
  C 1150.86 992.25 1141.64 993.09 1134.98 994.44
  Q 1131.55 995.14 1081.26 1006.81
  Q 1079.40 1007.24 1078.03 1007.62
  Q 1068.61 1010.20 1056.56 1012.88
  Q 1051.60 1013.98 1050.99 1014.16
  Q 1047.48 1015.23 1045.47 1015.44
  C 1043.37 1015.66 1040.16 1017.17 1037.51 1017.38
  Q 1035.53 1017.54 1034.81 1017.80
  C 1030.19 1019.51 1023.75 1020.37 1019.47 1021.74
  Q 1018.57 1022.03 1003.02 1025.71
  Q 998.64 1026.75 977.62 1032.64
  Q 960.51 1037.43 952.92 1041.55
  Q 941.46 1047.77 931.42 1058.19
  C 929.93 1059.72 927.70 1061.98 926.17 1063.89
  C 905.72 1089.47 884.63 1113.96 861.48 1137.41
  C 845.13 1153.97 829.05 1167.11 810.23 1177.46
  Q 808.57 1178.37 808.56 1180.29
  A 1.36 1.33 -59.3 0 0 808.71 1180.91
  C 826.58 1217.31 842.44 1253.99 852.60 1292.88
  A 2.82 2.81 -8.7 0 0 855.46 1294.97
  Q 901.69 1292.63 941.16 1269.18
  Q 963.12 1256.13 978.46 1238.97
  Q 980.51 1236.68 989.67 1225.43
  A 0.87 0.87 0.0 0 1 990.51 1225.13
  Q 997.73 1226.48 1006.07 1227.31
  C 1013.72 1228.07 1017.63 1222.31 1024.94 1223.99
  A 2.48 2.46 -18.7 0 1 1025.96 1224.49
  Q 1029.64 1227.47 1028.74 1231.14
  C 1026.52 1240.30 1006.04 1241.22 999.20 1240.98
  Q 992.89 1240.77 988.62 1246.60
  Q 986.04 1250.12 984.29 1252.13
  A 0.86 0.86 0.0 0 0 984.49 1253.43
  Q 995.55 1260.09 1008.52 1259.02
  Q 1021.38 1257.97 1031.80 1251.60
  Q 1053.72 1238.22 1055.91 1211.18
  C 1056.49 1204.06 1054.33 1198.70 1049.74 1193.86
  C 1037.51 1180.99 1020.81 1172.43 1004.36 1164.30
  C 1000.02 1162.16 996.29 1159.72 998.34 1154.87
  Q 1000.96 1148.67 1007.02 1151.73
  Q 1019.84 1158.20 1033.02 1165.99
  Q 1052.10 1177.26 1066.84 1193.38
  A 0.34 0.33 -55.1 0 0 1067.40 1193.28
  C 1071.79 1182.53 1075.26 1167.64 1066.73 1158.27
  Q 1060.43 1151.34 1050.61 1145.42
  C 1035.77 1136.47 1014.07 1125.81 999.67 1118.63
  Q 994.58 1116.09 995.80 1110.52
  Q 996.71 1106.37 1000.43 1105.65
  Q 1002.73 1105.21 1007.26 1107.28
  Q 1034.59 1119.82 1060.08 1136.19
  Q 1066.59 1140.36 1071.35 1144.36
  A 1.02 1.01 32.2 0 0 1072.93 1144.01
  Q 1077.36 1134.35 1075.11 1123.90
  A 5.77 5.70 21.9 0 0 1074.20 1121.80
  Q 1069.76 1115.46 1067.27 1113.69
  C 1044.28 1097.34 1019.27 1085.07 992.80 1072.25
  Q 992.62 1072.16 990.66 1070.55
  A 7.17 0.14 39.5 0 0 989.89 1069.92"
/>
<path stroke="#8d9195" vector-effect="non-scaling-stroke" d="
  M 1668.49 316.51
  A 183.51 183.51 0.0 0 0 1484.98 133.00
  A 183.51 183.51 0.0 0 0 1301.47 316.51
  A 183.51 183.51 0.0 0 0 1484.98 500.02
  A 183.51 183.51 0.0 0 0 1668.49 316.51"
/>
<path stroke="#8d9195" vector-effect="non-scaling-stroke" d="
  M 1529.37 694.11
  L 1547.30 694.11
  A 1.18 1.18 0.0 0 0 1548.48 692.95
  Q 1548.67 685.74 1548.51 670.26
  Q 1548.48 667.53 1549.35 666.56
  Q 1556.40 658.70 1558.24 656.79
  A 0.91 0.91 0.0 0 1 1559.64 656.88
  L 1585.38 692.54
  A 3.94 3.91 -17.7 0 0 1588.57 694.17
  L 1608.74 694.17
  A 0.56 0.56 0.0 0 0 1609.30 693.59
  Q 1609.26 692.60 1608.37 691.38
  Q 1603.57 684.86 1574.37 644.18
  A 1.85 1.85 0.0 0 1 1574.50 641.86
  L 1606.96 606.11
  A 0.85 0.84 21.7 0 0 1606.35 604.70
  Q 1598.44 604.54 1587.50 604.68
  Q 1583.73 604.72 1581.63 606.90
  Q 1574.39 614.36 1549.35 640.72
  Q 1548.94 641.15 1548.46 640.77
  Q 1548.30 640.64 1548.30 640.25
  Q 1548.37 615.11 1548.77 573.23
  A 1.13 1.13 0.0 0 0 1547.64 572.08
  L 1529.66 572.08
  A 0.98 0.97 90.0 0 0 1528.69 573.06
  L 1528.69 693.43
  A 0.68 0.68 0.0 0 0 1529.37 694.11"
/>
<path stroke="#8d9195" vector-effect="non-scaling-stroke" d="
  M 1225.14 576.98
  L 1225.14 693.34
  A 0.84 0.84 0.0 0 0 1225.98 694.18
  Q 1241.01 694.15 1275.86 694.17
  Q 1282.80 694.17 1287.09 693.26
  C 1302.42 690.00 1312.47 679.02 1313.57 663.09
  C 1314.41 651.01 1310.39 640.80 1300.07 634.67
  Q 1295.63 632.03 1295.48 631.94
  A 0.77 0.76 -44.2 0 1 1295.50 630.61
  C 1305.62 625.04 1310.63 615.51 1309.33 604.05
  C 1307.60 588.78 1294.45 577.58 1279.42 576.40
  Q 1272.08 575.82 1260.50 575.83
  Q 1232.10 575.85 1226.20 575.91
  A 1.07 1.07 0.0 0 0 1225.14 576.98"
/>
<path stroke="#8d9195" vector-effect="non-scaling-stroke" d="
  M 1371.6488 602.8586
  A 46.82 43.11 -88.9 0 0 1327.6479 648.8424
  A 46.82 43.11 -88.9 0 0 1369.8512 696.4814
  A 46.82 43.11 -88.9 0 0 1413.8521 650.4976
  A 46.82 43.11 -88.9 0 0 1371.6488 602.8586"
/>
<path stroke="#8d9195" vector-effect="non-scaling-stroke" d="
  M 1717.79 683.22
  L 1717.79 693.14
  A 1.02 1.02 0.0 0 0 1718.81 694.16
  L 1736.76 694.16
  A 1.09 1.08 -0.3 0 0 1737.85 693.07
  Q 1737.52 660.87 1737.86 635.72
  Q 1738.09 619.31 1724.10 610.09
  C 1713.13 602.87 1700.25 601.79 1687.27 604.78
  C 1675.30 607.55 1665.95 616.59 1664.91 629.13
  A 1.46 1.45 2.5 0 0 1666.36 630.71
  L 1683.13 630.66
  A 1.43 1.42 23.5 0 0 1684.10 630.28
  Q 1684.68 629.73 1685.65 627.63
  C 1690.77 616.66 1704.49 616.77 1713.06 622.84
  Q 1717.53 626.01 1717.79 630.97
  Q 1718.05 636.25 1712.35 638.09
  Q 1709.07 639.14 1708.38 639.18
  Q 1698.19 639.72 1689.02 641.03
  C 1680.13 642.29 1670.42 645.60 1665.05 653.15
  C 1659.91 660.38 1659.79 672.01 1663.14 680.00
  Q 1668.28 692.23 1681.22 694.76
  C 1694.63 697.39 1709.44 695.60 1716.92 682.99
  A 0.47 0.46 -30.0 0 1 1717.79 683.22"
/>
<path stroke="#8d9195" vector-effect="non-scaling-stroke" d="
  M 1426.81 650.60
  C 1427.36 676.11 1443.42 696.35 1470.48 695.77
  C 1497.54 695.19 1512.72 674.28 1512.18 648.77
  C 1511.63 623.26 1495.57 603.02 1468.51 603.60
  C 1441.44 604.18 1426.26 625.09 1426.81 650.60"
/>
<path stroke="#8d9195" vector-effect="non-scaling-stroke" d="
  M 1448.31 791.81
  C 1446.41 776.92 1439.36 763.02 1425.57 755.98
  Q 1403.81 744.88 1379.93 751.92
  C 1360.22 757.74 1347.03 775.21 1343.82 795.04
  Q 1340.94 812.85 1344.08 828.49
  C 1348.79 851.95 1365.47 869.11 1389.79 871.89
  C 1418.17 875.14 1443.48 861.15 1449.00 831.85
  A 1.64 1.63 5.4 0 0 1447.39 829.91
  L 1430.61 829.91
  A 2.97 2.96 -79.5 0 0 1427.84 831.82
  C 1421.98 847.01 1410.01 855.54 1393.22 853.24
  C 1375.25 850.78 1365.88 836.31 1364.39 818.94
  C 1362.68 799.04 1368.62 773.27 1391.62 768.91
  Q 1414.72 764.52 1425.18 785.20
  Q 1426.39 787.59 1428.00 791.85
  A 1.25 1.24 -10.1 0 0 1429.17 792.66
  L 1447.56 792.66
  A 0.76 0.75 -3.7 0 0 1448.31 791.81"
/>
<path stroke="#8d9195" vector-effect="non-scaling-stroke" d="
  M 1577.66 751.33
  A 0.68 0.68 0.0 0 0 1576.98 750.65
  L 1558.92 750.65
  A 0.68 0.68 0.0 0 0 1558.24 751.33
  L 1558.24 869.85
  A 0.68 0.68 0.0 0 0 1558.92 870.53
  L 1576.98 870.53
  A 0.68 0.68 0.0 0 0 1577.66 869.85
  L 1577.66 751.33"
/>
<path stroke="#8d9195" vector-effect="non-scaling-stroke" d="
  M 1618.20 753.18
  A 0.84 0.84 0.0 0 0 1617.36 752.34
  L 1598.92 752.34
  A 0.84 0.84 0.0 0 0 1598.08 753.18
  L 1598.08 869.66
  A 0.84 0.84 0.0 0 0 1598.92 870.50
  L 1617.36 870.50
  A 0.84 0.84 0.0 0 0 1618.20 869.66
  L 1618.20 753.18"
/>
<path stroke="#8d9195" vector-effect="non-scaling-stroke" d="
  M 1519.70 859.08
  L 1518.49 869.15
  A 1.31 1.31 0.0 0 0 1519.79 870.62
  L 1537.00 870.62
  A 1.37 1.36 89.6 0 0 1538.36 869.23
  Q 1538.06 841.22 1538.46 815.80
  Q 1538.59 807.25 1537.44 803.42
  C 1532.46 786.77 1515.52 780.41 1499.50 781.09
  C 1483.66 781.76 1469.38 790.57 1467.16 807.20
  A 1.62 1.62 0.0 0 0 1468.77 809.04
  L 1483.60 809.04
  A 2.70 2.68 12.0 0 0 1486.06 807.45
  C 1487.06 805.21 1488.45 802.74 1490.32 801.08
  C 1496.26 795.82 1504.60 794.59 1511.76 798.44
  C 1515.74 800.59 1518.70 803.27 1519.77 807.71
  A 2.35 2.29 44.2 0 1 1519.80 808.73
  C 1518.94 813.66 1514.42 815.41 1509.86 815.86
  Q 1496.53 817.17 1485.41 819.14
  Q 1475.96 820.82 1469.26 827.01
  C 1462.57 833.20 1460.02 844.28 1462.36 852.62
  Q 1466.93 868.81 1483.84 871.89
  C 1497.40 874.36 1510.69 870.56 1518.39 858.61
  A 0.72 0.71 -25.2 0 1 1519.70 859.08"
/>
<path stroke="#8d9195" vector-effect="non-scaling-stroke" d="
  M 1184.53 1042.41
  Q 1184.53 1051.70 1185.44 1057.99
  Q 1189.84 1088.47 1210.60 1109.64
  Q 1238.57 1138.16 1279.26 1137.94
  Q 1287.63 1137.89 1486.26 1137.89
  Q 1684.88 1137.90 1693.26 1137.95
  Q 1733.95 1138.17 1761.92 1109.66
  Q 1782.68 1088.49 1787.08 1058.00
  Q 1787.99 1051.72 1787.99 1042.43
  Q 1787.99 1033.15 1787.08 1026.86
  Q 1782.68 996.38 1761.92 975.21
  Q 1733.95 946.69 1693.27 946.91
  Q 1684.89 946.96 1486.26 946.95
  Q 1287.64 946.95 1279.26 946.90
  Q 1238.58 946.67 1210.60 975.19
  Q 1189.84 996.36 1185.44 1026.84
  Q 1184.53 1033.13 1184.53 1042.41"
/>
<path stroke="#695e43" vector-effect="non-scaling-stroke" d="
  M 1655.95 316.51
  A 170.97 170.97 0.0 0 0 1484.98 145.54
  A 170.97 170.97 0.0 0 0 1314.01 316.51
  A 170.97 170.97 0.0 0 0 1484.98 487.48
  A 170.97 170.97 0.0 0 0 1655.95 316.51"
/>
<path stroke="#dbc49c" vector-effect="non-scaling-stroke" d="
  M 1442.49 295.94
  C 1453.93 289.90 1466.47 279.38 1462.56 265.61
  Q 1460.32 257.74 1457.04 251.45
  C 1451.12 240.09 1444.23 228.99 1435.41 219.57
  C 1429.20 212.94 1420.89 214.70 1413.78 218.80
  C 1398.98 227.35 1387.21 242.75 1385.48 259.65
  Q 1383.97 274.41 1388.77 289.51
  Q 1393.67 304.93 1401.45 317.05
  Q 1407.17 325.96 1419.87 341.25
  Q 1439.90 365.36 1462.83 384.81
  C 1476.71 396.59 1490.06 406.59 1505.89 413.79
  Q 1528.39 424.01 1551.99 418.49
  C 1566.96 414.99 1581.92 405.67 1586.30 390.40
  Q 1588.75 381.84 1584.37 374.57
  Q 1581.83 370.35 1579.43 368.08
  C 1570.17 359.28 1559.10 352.85 1547.09 346.72
  Q 1539.67 342.93 1536.11 342.86
  Q 1529.72 342.74 1525.18 346.71
  Q 1521.21 350.16 1519.74 352.79
  Q 1516.13 359.22 1511.04 365.10
  A 1.23 1.23 0.0 0 1 1510.21 365.52
  C 1505.92 365.87 1502.50 364.06 1498.94 361.56
  Q 1483.61 350.76 1467.71 334.07
  Q 1454.86 320.58 1445.27 307.28
  C 1443.53 304.88 1440.08 299.41 1441.60 296.80
  A 2.34 2.25 -0.1 0 1 1442.49 295.94"
/>
<path stroke="#8d8984" vector-effect="non-scaling-stroke" d="
  M 651.5820 265.1518
  A 19.02 14.70 -78.5 0 0 633.3851 280.8593
  A 19.02 14.70 -78.5 0 0 643.9980 302.4282
  A 19.02 14.70 -78.5 0 0 662.1949 286.7207
  A 19.02 14.70 -78.5 0 0 651.5820 265.1518"
/>
<path stroke="#8d9195" vector-effect="non-scaling-stroke" d="
  M 1246.59 595.07
  L 1246.65 623.99
  A 0.74 0.74 0.0 0 0 1247.39 624.73
  L 1271.50 624.68
  A 17.61 15.15 -0.1 0 0 1289.08 609.50
  L 1289.08 609.40
  A 17.61 15.15 -0.1 0 0 1271.44 594.28
  L 1247.33 594.33
  A 0.74 0.74 0.0 0 0 1246.59 595.07"
/>
<path stroke="#8d9195" vector-effect="non-scaling-stroke" d="
  M 1246.67 642.85
  L 1246.51 675.13
  A 0.69 0.69 0.0 0 0 1247.19 675.82
  L 1274.89 675.97
  A 17.57 16.71 0.3 0 0 1292.55 659.35
  L 1292.55 659.11
  A 17.57 16.71 0.3 0 0 1275.07 642.31
  L 1247.37 642.16
  A 0.69 0.69 0.0 0 0 1246.67 642.85"
/>
<path stroke="#8d9195" vector-effect="non-scaling-stroke" d="
  M 1370.7549 619.6602
  A 30.10 22.90 -90.2 0 0 1347.9601 649.8399
  A 30.10 22.90 -90.2 0 0 1370.9651 679.8598
  A 30.10 22.90 -90.2 0 0 1393.7599 649.6801
  A 30.10 22.90 -90.2 0 0 1370.7549 619.6602"
/>
<path stroke="#8d9195" vector-effect="non-scaling-stroke" d="
  M 1717.61 654.12
  A 0.60 0.60 0.0 0 0 1716.93 653.55
  Q 1707.84 654.76 1691.75 657.22
  C 1683.96 658.41 1678.54 666.74 1683.64 673.88
  C 1690.23 683.11 1704.81 680.03 1711.39 672.41
  Q 1718.00 664.75 1717.61 654.12"
/>
<path stroke="#8d9195" vector-effect="non-scaling-stroke" d="
  M 1469.7697 619.5707
  A 30.04 22.88 -89.6 0 0 1446.6806 649.4503
  A 30.04 22.88 -89.6 0 0 1469.3503 679.6493
  A 30.04 22.88 -89.6 0 0 1492.4394 649.7697
  A 30.04 22.88 -89.6 0 0 1469.7697 619.5707"
/>
<path stroke="#8d9195" vector-effect="non-scaling-stroke" d="
  M 1518.07 831.15
  A 0.60 0.59 83.9 0 0 1517.39 830.60
  Q 1508.42 831.94 1492.55 834.62
  C 1484.87 835.92 1479.64 844.24 1484.79 851.22
  C 1491.45 860.24 1505.82 856.97 1512.21 849.33
  Q 1518.63 841.66 1518.07 831.15"
/>
<path stroke="#8d9195" vector-effect="non-scaling-stroke" d="
  M 1775.69 1040.35
  A 80.36 80.36 0.0 0 0 1695.33 959.99
  L 1277.31 959.99
  A 80.36 80.36 0.0 0 0 1196.95 1040.35
  L 1196.95 1045.35
  A 80.36 80.36 0.0 0 0 1277.31 1125.71
  L 1695.33 1125.71
  A 80.36 80.36 0.0 0 0 1775.69 1045.35
  L 1775.69 1040.35"
/>
<path stroke="#8d9195" vector-effect="non-scaling-stroke" d="
  M 1620.22 1025.48
  A 0.74 0.74 0.0 0 0 1619.54 1024.38
  L 1603.90 1024.94
  A 1.45 1.42 -69.4 0 0 1602.89 1025.41
  L 1582.49 1047.88
  A 0.70 0.69 66.1 0 1 1581.28 1047.41
  L 1581.28 1005.10
  A 1.07 1.07 0.0 0 0 1580.20 1004.03
  L 1567.68 1004.03
  A 0.65 0.65 0.0 0 0 1567.03 1004.68
  L 1567.03 1084.90
  A 0.86 0.86 0.0 0 0 1567.89 1085.76
  L 1580.41 1085.76
  A 0.91 0.91 0.0 0 0 1581.32 1084.85
  L 1581.32 1068.49
  A 2.19 2.17 66.2 0 1 1581.88 1067.03
  L 1586.93 1061.47
  A 0.79 0.79 0.0 0 1 1588.16 1061.54
  L 1605.29 1085.27
  A 1.62 1.60 -17.7 0 0 1606.60 1085.94
  L 1620.10 1085.94
  A 0.95 0.95 0.0 0 0 1620.87 1084.43
  L 1597.45 1051.99
  A 1.13 1.12 48.4 0 1 1597.53 1050.58
  L 1620.00 1025.93
  A 0.81 0.64 83.4 0 0 1620.13 1025.72
  Q 1620.21 1025.50 1620.22 1025.48"
/>
<path stroke="#8d9195" vector-effect="non-scaling-stroke" d="
  M 1408.54 1042.58
  Q 1409.57 1041.80 1411.27 1040.78
  C 1416.04 1037.90 1418.70 1032.68 1419.08 1027.09
  C 1419.73 1017.63 1413.94 1009.99 1405.22 1006.57
  Q 1401.23 1005.00 1392.63 1004.93
  Q 1375.87 1004.79 1363.75 1004.95
  A 1.34 1.34 0.0 0 0 1362.43 1006.29
  L 1362.43 1084.76
  A 1.05 1.05 0.0 0 0 1363.47 1085.81
  Q 1377.00 1085.90 1396.51 1085.74
  C 1406.42 1085.66 1416.04 1082.16 1420.11 1072.97
  Q 1423.92 1064.36 1421.18 1055.79
  Q 1418.50 1047.39 1408.67 1043.50
  A 0.53 0.53 0.0 0 1 1408.54 1042.58"
/>
<path stroke="#8d9195" vector-effect="non-scaling-stroke" d="
  M 1461.0151 1024.3139
  A 31.52 28.79 -89.1 0 0 1431.7336 1055.3778
  A 31.52 28.79 -89.1 0 0 1460.0249 1087.3461
  A 31.52 28.79 -89.1 0 0 1489.3064 1056.2822
  A 31.52 28.79 -89.1 0 0 1461.0151 1024.3139"
/>
<path stroke="#8d9195" vector-effect="non-scaling-stroke" d="
  M 1526.0999 1024.3469
  A 31.52 28.86 -91.2 0 0 1497.9063 1056.4644
  A 31.52 28.86 -91.2 0 0 1527.4201 1087.3731
  A 31.52 28.86 -91.2 0 0 1555.6137 1055.2556
  A 31.52 28.86 -91.2 0 0 1526.0999 1024.3469"
/>
<path stroke="#8d9195" vector-effect="non-scaling-stroke" d="
  M 1376.92 1018.69
  L 1377.18 1037.35
  A 1.15 1.15 0.0 0 0 1378.35 1038.48
  L 1392.58 1038.28
  A 12.78 10.21 -0.8 0 0 1405.21 1027.89
  L 1405.20 1027.35
  A 12.78 10.21 -0.8 0 0 1392.28 1017.32
  L 1378.05 1017.52
  A 1.15 1.15 0.0 0 0 1376.92 1018.69"
/>
<path stroke="#8d9195" vector-effect="non-scaling-stroke" d="
  M 1377.07 1052.63
  L 1377.03 1071.39
  A 1.85 1.85 0.0 0 0 1378.88 1073.25
  L 1395.61 1073.28
  A 12.00 11.06 0.1 0 0 1407.63 1062.24
  L 1407.63 1061.90
  A 12.00 11.06 0.1 0 0 1395.65 1050.82
  L 1378.92 1050.79
  A 1.85 1.85 0.0 0 0 1377.07 1052.63"
/>
<path stroke="#8d9195" vector-effect="non-scaling-stroke" d="
  M 1460.6946 1036.1500
  A 19.80 14.81 -89.9 0 0 1445.8500 1055.9242
  A 19.80 14.81 -89.9 0 0 1460.6254 1075.7500
  A 19.80 14.81 -89.9 0 0 1475.4700 1055.9758
  A 19.80 14.81 -89.9 0 0 1460.6946 1036.1500"
/>
<path stroke="#8d9195" vector-effect="non-scaling-stroke" d="
  M 1526.9189 1036.2201
  A 19.75 14.80 -89.8 0 0 1512.0501 1055.9183
  A 19.75 14.80 -89.8 0 0 1526.7811 1075.7199
  A 19.75 14.80 -89.8 0 0 1541.6499 1056.0217
  A 19.75 14.80 -89.8 0 0 1526.9189 1036.2201"
/>
</g>
<path fill="#1a232a" d="
  M 631.68 1634.49
  L 622.23 1413.12
  A 0.58 0.21 -64.9 0 1 622.24 1413.01
  Q 622.49 1411.13 621.80 1410.15
  A 1.44 1.44 0.0 0 0 620.26 1409.58
  Q 609.18 1412.41 599.69 1414.98
  Q 598.84 1415.21 598.02 1415.45
  Q 585.02 1419.17 580.05 1420.13
  Q 579.31 1420.27 578.99 1420.20
  A 1.73 1.73 0.0 0 0 577.92 1420.29
  Q 575.19 1421.49 571.12 1422.56
  Q 565.99 1423.91 547.10 1428.44
  Q 532.27 1432.01 526.98 1433.25
  Q 516.65 1435.70 505.20 1438.57
  C 503.44 1439.01 501.66 1439.07 500.30 1439.49
  Q 494.39 1441.35 489.47 1441.58
  A 0.12 0.11 6.4 0 0 489.36 1441.66
  L 489.22 1442.10
  Q 489.21 1442.11 489.20 1442.12
  L 457.49 1449.21
  A 0.87 0.78 -48.2 0 1 457.31 1449.23
  C 451.55 1449.61 446.50 1451.70 444.49 1451.89
  Q 440.82 1452.25 434.50 1453.92
  Q 433.41 1454.21 431.54 1454.20
  Q 430.07 1454.19 428.31 1454.97
  A 3.65 3.14 -58.8 0 1 427.70 1455.17
  Q 413.35 1458.28 393.48 1459.91
  Q 349.42 1463.54 316.38 1437.51
  C 310.40 1432.80 304.34 1427.92 299.08 1422.17
  Q 281.88 1403.34 269.01 1381.24
  C 255.34 1357.75 244.72 1335.21 232.93 1309.06
  Q 186.84 1206.79 147.62 1099.64
  Q 116.53 1014.69 95.09 953.42
  C 93.91 950.05 96.25 946.60 99.84 946.24
  C 104.57 945.77 106.01 948.88 107.49 953.20
  C 139.22 1045.20 173.58 1139.36 210.81 1229.70
  C 226.82 1268.54 244.09 1308.12 263.18 1346.55
  C 277.58 1375.53 292.82 1401.14 315.50 1422.07
  Q 349.10 1453.08 395.24 1448.64
  Q 403.19 1447.88 411.49 1446.58
  Q 421.21 1445.07 442.76 1440.87
  Q 449.71 1439.51 449.82 1439.49
  Q 453.87 1438.48 456.84 1437.88
  Q 469.96 1435.25 483.41 1432.33
  Q 486.07 1431.75 488.50 1431.05
  Q 491.62 1430.15 493.60 1429.89
  Q 495.49 1429.65 498.41 1428.78
  Q 499.38 1428.50 503.20 1427.70
  Q 512.50 1425.76 522.53 1423.14
  Q 524.77 1422.56 526.62 1422.63
  A 0.42 0.42 0.0 0 0 526.99 1422.44
  Q 527.18 1422.14 527.57 1422.04
  Q 531.71 1420.99 556.75 1414.95
  C 561.46 1413.82 565.43 1412.42 569.65 1411.55
  Q 571.29 1411.21 602.68 1402.93
  Q 613.72 1400.02 623.65 1397.11
  C 624.97 1396.73 626.29 1396.94 627.51 1396.15
  A 2.03 1.77 -65.6 0 1 628.08 1395.89
  Q 641.22 1392.04 644.30 1391.16
  Q 673.26 1382.88 733.03 1364.08
  Q 758.17 1356.17 758.67 1356.02
  Q 760.76 1355.37 778.11 1349.88
  Q 788.99 1346.45 796.35 1344.11
  Q 797.27 1343.81 797.90 1343.61
  Q 830.18 1333.12 833.25 1332.18
  C 839.21 1330.37 842.62 1327.92 842.79 1321.73
  Q 843.35 1300.65 836.72 1280.23
  Q 825.91 1246.94 810.08 1212.44
  Q 802.51 1195.93 792.83 1180.20
  Q 791.11 1177.39 786.29 1173.17
  A 1.41 1.40 66.3 0 0 785.38 1172.81
  Q 784.18 1172.80 782.28 1173.09
  Q 770.28 1174.97 750.75 1177.87
  Q 729.40 1181.04 702.74 1185.10
  C 701.09 1185.35 699.21 1185.35 697.53 1185.68
  Q 692.65 1186.63 684.25 1187.87
  Q 648.13 1193.22 616.10 1198.11
  C 613.74 1198.48 611.68 1198.11 609.55 1198.97
  A 2.74 2.66 -59.9 0 1 608.91 1199.15
  Q 549.47 1208.06 549.28 1208.14
  Q 548.77 1208.35 540.20 1209.45
  Q 534.80 1210.15 530.60 1211.03
  Q 528.93 1211.38 527.40 1211.35
  Q 525.31 1211.30 524.16 1211.61
  Q 521.97 1212.20 520.45 1212.43
  Q 486.92 1217.49 435.59 1225.14
  C 431.63 1225.73 428.38 1225.48 426.58 1221.96
  Q 423.86 1216.67 428.86 1214.33
  A 3.23 3.13 -61.2 0 1 429.67 1214.08
  Q 436.54 1213.05 458.64 1209.55
  C 461.52 1209.09 463.71 1208.38 462.76 1205.03
  C 454.09 1174.50 439.73 1122.43 427.63 1080.63
  Q 390.30 951.63 359.40 844.87
  Q 357.98 839.95 353.01 824.51
  Q 352.51 822.94 352.63 817.61
  A 2.12 2.09 63.0 0 1 352.97 816.53
  Q 355.13 813.25 358.89 813.62
  C 362.03 813.93 364.22 818.46 364.96 821.06
  C 376.84 863.32 385.92 895.77 396.71 932.44
  Q 437.12 1069.75 474.86 1205.29
  A 1.74 1.73 82.5 0 0 476.52 1206.57
  Q 482.14 1206.61 489.76 1205.48
  Q 540.81 1197.90 614.23 1186.65
  A 1.06 1.06 0.0 0 0 615.14 1185.62
  Q 615.33 1172.33 614.58 1158.50
  Q 613.09 1130.92 610.75 1103.99
  C 610.31 1098.92 609.45 1094.26 609.63 1089.74
  A 1.24 1.15 34.9 0 0 609.51 1089.18
  Q 609.24 1088.60 609.22 1088.46
  Q 604.94 1047.80 600.40 1019.85
  Q 599.30 1013.02 599.07 1011.35
  Q 598.55 1007.43 597.72 1002.77
  Q 595.17 988.30 592.94 975.66
  Q 592.61 973.82 591.60 969.23
  Q 591.15 967.19 590.41 962.77
  Q 589.21 955.69 586.76 945.04
  C 585.65 940.24 584.90 934.81 583.33 929.83
  A 4.07 3.44 -60.2 0 1 583.16 928.91
  Q 583.01 926.82 582.55 925.19
  Q 581.53 921.63 579.71 913.03
  C 579.19 910.57 578.19 908.15 577.81 905.59
  C 577.31 902.26 575.71 898.52 575.62 894.48
  A 0.25 0.25 0.0 0 0 575.49 894.26
  Q 575.41 894.21 575.39 894.20
  A 1.28 1.24 11.9 0 1 575.01 893.64
  Q 573.66 889.77 573.07 887.07
  Q 572.24 883.22 571.42 880.46
  Q 570.23 876.49 567.16 865.08
  C 566.39 862.25 565.56 860.20 564.78 857.41
  Q 557.43 830.96 544.25 795.45
  Q 525.97 746.20 500.59 699.93
  Q 498.56 696.23 489.64 682.96
  A 2.65 2.60 3.3 0 0 489.14 682.41
  Q 485.52 679.40 481.66 681.27
  Q 474.46 684.77 465.65 687.14
  Q 457.51 689.33 448.67 689.34
  Q 433.87 689.35 419.46 685.94
  Q 392.29 679.52 366.60 664.84
  Q 344.59 652.27 321.17 634.07
  Q 289.41 609.38 263.49 581.50
  Q 256.79 574.29 249.36 565.91
  Q 247.43 563.73 243.60 563.43
  C 240.81 563.22 237.98 565.31 235.87 567.11
  Q 205.15 593.25 175.28 621.78
  Q 159.69 636.68 148.36 648.84
  C 102.66 697.91 69.73 759.56 53.63 824.34
  Q 38.13 886.74 30.79 953.51
  Q 22.87 1025.58 20.87 1083.44
  Q 20.13 1104.91 18.96 1149.60
  Q 17.64 1199.96 17.56 1215.75
  Q 16.99 1333.41 15.03 1479.25
  Q 15.03 1479.27 13.81 1532.22
  Q 12.62 1583.32 11.96 1634.49
  Q 10.89 1641.82 4.26 1640.16
  A 2.39 2.28 68.8 0 1 3.43 1639.77
  Q -0.05 1637.17 0.19 1633.68
  C 1.06 1620.99 0.76 1606.27 1.19 1595.43
  Q 2.65 1558.80 2.94 1518.76
  Q 3.08 1498.55 3.67 1469.76
  C 4.07 1449.97 4.66 1425.51 4.65 1404.41
  Q 4.62 1315.85 6.03 1230.25
  Q 6.49 1202.78 6.65 1164.00
  Q 6.74 1140.92 7.81 1121.00
  Q 8.88 1101.08 13.93 1019.03
  Q 16.74 973.42 22.01 932.76
  Q 26.22 900.29 34.29 858.51
  C 42.20 817.63 54.07 778.06 71.17 742.60
  Q 88.89 705.86 113.72 671.96
  Q 122.81 659.56 133.39 648.39
  Q 181.11 598.02 235.02 554.28
  Q 238.32 551.61 244.43 549.88
  A 1.85 1.81 -79.3 0 0 245.43 549.18
  Q 247.44 546.44 248.71 542.79
  Q 249.78 539.70 250.43 538.70
  C 251.43 537.17 251.59 535.15 252.52 533.10
  Q 259.06 518.79 270.90 486.61
  Q 272.20 483.07 272.24 482.79
  C 272.58 480.81 273.86 479.84 273.91 477.98
  C 273.95 476.61 274.50 475.61 275.06 474.55
  A 0.55 0.34 -31.7 0 0 275.12 474.43
  L 283.27 448.81
  A 2.86 2.85 -59.6 0 0 282.51 445.86
  Q 275.36 439.08 270.39 430.82
  Q 259.60 412.86 250.23 390.49
  Q 233.44 350.41 221.68 310.60
  C 221.11 308.67 221.26 306.93 220.25 305.43
  A 2.69 2.60 22.2 0 1 219.88 304.59
  Q 215.79 288.22 213.11 272.45
  C 206.64 234.30 208.47 194.22 220.11 157.43
  C 240.91 91.68 289.89 41.45 354.38 17.16
  Q 409.79 -3.70 468.96 1.41
  C 475.21 1.95 481.77 1.77 488.16 2.99
  C 492.66 3.86 497.36 3.40 501.50 4.52
  Q 503.53 5.07 512.74 6.27
  Q 519.12 7.11 541.40 12.14
  Q 558.93 16.10 569.71 19.79
  C 597.70 29.35 624.35 42.27 649.27 58.25
  Q 671.34 72.41 698.12 90.88
  C 712.15 100.56 725.86 114.08 731.21 130.29
  C 734.34 139.76 732.46 149.26 727.86 157.74
  Q 722.45 167.73 711.13 172.43
  A 2.39 2.29 -56.2 0 1 710.26 172.62
  L 708.99 172.67
  A 0.93 0.91 8.1 0 0 708.14 173.30
  Q 707.60 174.97 705.38 174.39
  A 1.04 1.04 0.0 0 0 704.07 175.40
  Q 704.13 183.19 706.07 189.44
  A 0.32 0.24 -63.4 0 1 706.09 189.55
  L 706.60 200.03
  A 1.04 0.92 41.4 0 0 706.63 200.27
  C 708.55 209.89 708.38 218.86 708.86 227.12
  Q 709.21 233.23 708.80 238.89
  C 708.18 247.34 708.06 250.69 706.60 257.02
  A 8.60 8.48 52.0 0 0 706.37 258.99
  Q 706.35 265.28 704.54 271.22
  C 703.77 273.78 705.04 277.38 705.98 281.01
  Q 706.60 283.41 707.83 286.88
  Q 710.47 294.34 718.34 311.64
  Q 732.56 342.91 751.86 375.57
  C 758.43 386.70 756.71 402.25 745.03 409.28
  C 737.71 413.69 728.49 415.17 719.74 415.58
  Q 709.99 416.04 696.53 415.52
  C 694.68 415.45 693.84 416.97 693.44 418.67
  Q 687.27 445.54 679.91 472.19
  C 674.75 490.83 669.15 508.43 660.66 525.63
  C 651.73 543.72 637.69 559.82 619.31 568.32
  C 617.72 569.05 616.67 570.09 614.77 570.27
  Q 614.00 570.34 613.31 571.29
  A 1.15 1.13 -73.1 0 1 612.46 571.75
  Q 610.36 571.83 607.73 572.96
  C 605.40 573.97 603.49 573.73 601.30 574.79
  A 3.16 2.81 -59.6 0 1 600.56 575.03
  Q 586.41 577.85 573.34 577.71
  C 566.71 577.64 558.32 575.88 552.22 575.56
  C 549.01 575.40 546.64 573.78 543.45 573.88
  Q 542.21 573.91 538.90 572.63
  C 536.00 571.51 533.22 572.32 530.02 570.37
  A 1.06 0.99 -23.7 0 0 529.65 570.24
  L 523.54 569.51
  A 1.78 1.77 -71.5 0 0 521.77 570.40
  Q 509.60 591.63 499.50 614.73
  Q 490.93 634.36 488.04 655.50
  Q 487.55 659.01 488.20 663.90
  A 1.26 1.26 0.0 0 0 488.77 664.81
  Q 494.22 668.35 499.00 675.77
  C 523.61 714.07 542.27 755.95 557.74 799.24
  Q 573.30 842.76 585.52 888.60
  C 585.99 890.35 585.78 892.63 586.95 893.91
  A 1.74 1.72 20.5 0 1 587.38 894.84
  L 587.98 899.93
  A 0.76 0.70 28.4 0 0 588.06 900.16
  Q 588.58 901.13 588.77 901.90
  Q 597.26 936.47 604.37 977.57
  Q 614.60 1036.74 619.95 1086.51
  C 623.45 1119.03 626.05 1151.45 625.24 1184.22
  A 0.71 0.70 -3.1 0 0 626.05 1184.94
  C 667.84 1179.12 705.01 1173.25 778.87 1161.90
  C 784.41 1161.05 790.94 1160.85 795.08 1165.09
  Q 797.60 1167.67 798.84 1167.91
  Q 802.10 1168.53 803.81 1167.54
  Q 812.98 1162.19 814.60 1161.09
  Q 815.47 1160.49 816.53 1160.34
  A 1.46 1.41 -72.5 0 0 817.42 1159.86
  Q 819.49 1157.54 820.40 1157.14
  Q 822.59 1156.17 825.76 1153.51
  Q 833.77 1146.77 842.10 1139.54
  Q 848.69 1133.81 857.41 1124.47
  C 866.59 1114.64 875.99 1105.25 884.50 1095.24
  Q 895.04 1082.83 895.09 1082.78
  Q 897.67 1080.15 903.46 1072.80
  Q 907.31 1067.92 911.99 1063.05
  A 4.91 4.89 -7.0 0 0 912.64 1062.22
  Q 914.06 1059.97 915.13 1058.64
  Q 919.39 1053.32 933.26 1040.54
  Q 941.56 1032.88 951.72 1027.97
  Q 958.46 1024.71 972.88 1020.80
  Q 1015.12 1009.34 1054.86 1000.00
  A 1.32 1.31 -6.7 0 0 1055.88 998.72
  Q 1055.85 519.98 1055.88 122.46
  C 1055.88 114.42 1056.85 107.56 1057.39 99.71
  Q 1057.57 97.18 1058.37 94.14
  Q 1070.02 49.84 1111.32 31.75
  C 1113.75 30.69 1116.83 30.00 1118.21 29.01
  C 1119.72 27.94 1122.17 28.64 1123.80 27.29
  A 0.88 0.87 -69.7 0 1 1124.21 27.10
  L 1134.91 24.89
  A 11.05 10.34 36.3 0 1 1136.76 24.67
  Q 1137.36 24.69 1146.58 24.16
  Q 1150.42 23.94 1156.42 23.94
  Q 1486.33 23.92 1810.08 23.94
  Q 1818.27 23.94 1820.41 24.13
  C 1825.17 24.54 1829.69 24.24 1834.17 25.00
  C 1867.29 30.56 1893.58 51.94 1906.76 82.62
  A 5.33 4.64 20.5 0 0 1907.20 83.43
  Q 1908.03 84.65 1908.14 85.18
  Q 1910.34 95.48 1912.97 108.26
  Q 1913.42 110.48 1913.42 111.75
  Q 1913.43 636.16 1913.42 1160.58
  A 0.69 0.61 -41.4 0 1 1913.40 1160.74
  Q 1911.73 1168.40 1911.22 1174.01
  C 1911.02 1176.19 1909.40 1177.39 1909.60 1179.61
  C 1909.75 1181.32 1908.98 1182.66 1908.09 1183.89
  A 1.74 1.64 68.6 0 0 1907.78 1184.66
  Q 1907.67 1185.62 1907.12 1187.13
  C 1898.87 1210.15 1879.80 1231.32 1856.86 1240.93
  C 1854.46 1241.94 1851.70 1242.45 1849.73 1243.85
  A 1.34 1.30 31.0 0 1 1848.74 1244.08
  Q 1848.66 1244.07 1842.73 1245.62
  Q 1837.96 1246.87 1832.62 1247.58
  Q 1829.02 1248.07 1822.34 1248.07
  Q 1389.27 1248.03 1137.76 1248.09
  Q 1135.10 1248.09 1132.32 1246.88
  C 1129.33 1245.59 1126.08 1246.85 1123.62 1245.01
  C 1121.76 1243.63 1119.58 1244.86 1117.73 1243.00
  A 1.34 1.33 -23.5 0 0 1116.74 1242.61
  Q 1114.98 1242.66 1109.82 1240.17
  Q 1100.35 1235.60 1093.12 1230.43
  Q 1081.89 1222.40 1073.84 1211.32
  C 1072.54 1209.52 1071.64 1208.60 1069.49 1209.37
  A 2.37 2.36 78.3 0 0 1067.93 1211.76
  Q 1068.24 1216.38 1066.55 1220.48
  A 5.79 5.66 57.7 0 0 1066.11 1222.53
  C 1066.04 1224.53 1066.29 1226.24 1064.79 1227.25
  Q 1063.93 1227.82 1064.23 1229.20
  Q 1064.36 1229.79 1063.82 1231.24
  Q 1051.79 1263.55 1017.50 1269.66
  C 1005.10 1271.87 990.13 1271.52 979.52 1264.46
  Q 976.34 1262.35 974.42 1261.05
  A 0.72 0.71 42.6 0 0 973.57 1261.08
  C 953.51 1277.03 931.38 1289.78 908.35 1297.04
  Q 888.48 1303.31 864.24 1306.18
  C 861.34 1306.53 859.26 1306.43 856.10 1306.42
  A 1.81 1.81 0.0 0 0 854.29 1308.31
  Q 854.76 1319.74 852.20 1329.91
  C 850.72 1335.80 844.41 1339.84 838.86 1342.31
  Q 837.92 1342.73 828.69 1345.67
  Q 729.84 1377.14 650.96 1400.70
  Q 644.27 1402.69 635.45 1404.78
  A 1.15 1.14 -7.8 0 0 634.57 1405.93
  Q 634.80 1412.47 642.30 1625.11
  C 642.47 1629.94 645.39 1640.00 637.42 1640.34
  Q 631.55 1640.59 631.68 1634.49
  Z
  M 1079.59 1054.48
  Q 1075.82 1055.43 1069.50 1057.96
  A 1.76 1.76 0.0 0 0 1068.40 1059.53
  Q 1067.74 1077.26 1068.36 1094.19
  Q 1068.45 1096.72 1069.52 1099.05
  A 2.41 2.39 3.7 0 0 1070.43 1100.08
  Q 1071.76 1100.91 1079.31 1107.72
  C 1093.41 1120.44 1089.20 1136.51 1083.10 1151.68
  C 1082.02 1154.35 1081.40 1157.22 1082.30 1159.74
  C 1086.26 1170.85 1084.36 1180.52 1082.02 1191.57
  Q 1081.07 1196.01 1081.70 1198.47
  Q 1082.56 1201.81 1084.81 1204.71
  Q 1102.25 1227.15 1129.28 1234.08
  C 1132.01 1234.78 1135.64 1235.37 1138.00 1235.50
  Q 1154.40 1236.38 1173.01 1236.38
  Q 1670.80 1236.33 1812.75 1236.41
  Q 1829.22 1236.42 1840.76 1233.48
  C 1865.04 1227.28 1883.93 1209.47 1894.25 1186.88
  C 1899.40 1175.63 1901.33 1162.32 1901.33 1150.25
  Q 1901.31 167.92 1901.38 143.54
  Q 1901.42 127.27 1901.00 114.52
  C 1899.68 75.02 1869.76 42.59 1830.92 36.55
  Q 1823.82 35.44 1797.01 35.44
  Q 1481.77 35.37 1162.78 35.43
  Q 1144.31 35.44 1136.33 36.95
  Q 1121.62 39.74 1108.97 46.77
  C 1086.56 59.21 1069.89 82.35 1068.90 108.23
  Q 1068.26 124.76 1068.27 141.51
  Q 1068.40 796.98 1068.23 992.75
  Q 1068.23 993.96 1068.40 995.21
  A 1.36 1.36 0.0 0 0 1070.03 996.35
  Q 1102.89 989.20 1129.62 982.81
  C 1137.70 980.87 1144.42 979.95 1151.55 982.22
  C 1161.59 985.42 1165.69 995.05 1165.52 1005.05
  C 1165.30 1017.39 1158.40 1024.57 1147.45 1029.23
  Q 1119.00 1041.35 1081.15 1053.97
  Q 1079.72 1054.44 1079.59 1054.48
  Z
  M 690.59 403.55
  Q 692.71 402.65 694.52 402.65
  C 711.80 402.70 721.34 403.38 734.07 400.34
  C 739.53 399.03 743.46 396.91 743.25 390.73
  Q 743.10 386.42 740.22 381.31
  Q 725.60 355.35 710.21 324.07
  Q 702.41 308.21 697.20 295.57
  Q 691.79 282.43 693.03 270.25
  Q 694.55 255.31 695.50 243.00
  Q 697.96 210.96 691.38 179.23
  A 0.75 0.75 0.0 0 0 690.56 178.64
  Q 653.80 183.07 616.76 178.91
  Q 608.39 177.97 603.15 176.79
  Q 601.20 176.35 601.15 176.30
  A 0.41 0.40 -42.6 0 0 600.56 176.28
  Q 600.30 176.54 597.76 176.02
  Q 576.13 171.59 568.69 170.20
  A 1.05 1.05 0.0 0 0 567.44 171.22
  Q 567.28 184.32 565.03 196.75
  C 561.43 216.59 552.00 234.68 539.29 250.07
  Q 516.15 278.09 482.32 298.80
  C 470.44 306.08 465.25 294.55 461.10 285.71
  Q 458.27 279.68 452.67 271.62
  C 443.46 258.35 430.09 249.64 413.65 249.11
  Q 404.01 248.80 395.86 252.60
  C 380.73 259.64 371.07 275.03 369.40 291.58
  C 367.33 312.01 370.24 334.22 380.64 352.33
  Q 389.16 367.18 405.12 371.54
  C 411.11 373.19 423.87 371.47 424.28 380.41
  C 424.68 388.98 413.93 388.20 408.98 387.00
  Q 388.38 382.02 374.07 366.39
  A 1.23 1.22 -51.6 0 0 372.10 366.62
  Q 350.49 404.92 319.97 434.97
  C 313.66 441.19 307.40 446.70 299.15 448.24
  C 296.93 448.66 295.43 449.30 294.84 451.36
  Q 279.95 503.08 258.06 552.11
  C 256.85 554.81 256.88 556.28 258.60 558.40
  Q 267.04 568.85 276.40 578.35
  C 304.60 606.99 335.68 632.23 369.95 652.79
  Q 388.38 663.86 410.06 671.18
  Q 434.97 679.60 459.98 675.95
  Q 462.67 675.56 466.33 674.48
  C 470.29 673.31 472.41 672.75 474.69 671.64
  A 2.35 2.35 0.0 0 0 476.00 669.22
  Q 474.55 657.82 476.97 646.73
  C 483.08 618.80 494.80 592.48 508.96 567.36
  A 1.25 1.24 20.8 0 0 508.13 565.53
  C 502.55 564.34 495.74 562.91 490.99 559.55
  C 487.50 557.08 487.68 553.12 490.84 550.54
  C 493.54 548.33 497.25 548.35 500.78 549.43
  C 529.28 558.15 558.08 566.75 588.17 564.35
  Q 615.17 562.19 633.12 543.28
  Q 643.60 532.24 650.13 519.08
  Q 662.08 495.00 667.95 467.75
  A 0.61 0.60 5.7 0 0 667.35 467.02
  C 646.02 467.39 627.67 459.99 610.24 446.54
  Q 606.61 443.74 605.81 441.88
  C 603.15 435.76 607.69 428.92 614.70 431.88
  A 4.08 4.05 75.5 0 1 615.61 432.42
  C 620.61 436.36 625.89 441.35 630.95 444.26
  Q 649.08 454.69 670.69 454.04
  A 2.12 2.11 5.7 0 0 672.69 452.41
  Q 677.91 430.35 683.03 412.31
  Q 684.81 406.02 690.59 403.55
  Z
  M 989.89 1069.92
  C 984.41 1065.42 987.98 1058.53 994.42 1058.93
  Q 996.94 1059.08 1003.73 1062.35
  Q 1007.82 1064.31 1012.70 1062.73
  Q 1024.93 1058.75 1028.67 1057.67
  Q 1032.70 1056.49 1037.83 1054.56
  Q 1041.58 1053.15 1047.11 1051.81
  A 4.86 4.53 22.2 0 0 1048.19 1051.40
  Q 1051.17 1049.86 1053.87 1049.78
  A 2.56 2.56 0.0 0 0 1055.07 1049.46
  Q 1056.66 1048.58 1061.00 1046.87
  Q 1063.12 1046.04 1063.86 1046.07
  A 1.22 1.22 0.0 0 0 1064.43 1045.95
  Q 1067.90 1044.24 1071.07 1043.82
  A 2.45 2.40 26.2 0 0 1071.95 1043.53
  C 1075.15 1041.76 1078.75 1040.96 1081.99 1039.80
  Q 1093.05 1035.85 1094.13 1035.77
  A 1.16 1.16 0.0 0 0 1094.76 1035.54
  Q 1096.54 1034.25 1099.67 1033.83
  A 2.77 2.76 -64.5 0 0 1100.68 1033.47
  Q 1104.12 1031.44 1108.70 1030.61
  A 0.34 0.31 -73.8 0 0 1108.90 1030.49
  Q 1108.93 1030.44 1109.01 1030.36
  A 1.77 1.76 11.6 0 1 1109.67 1029.93
  Q 1121.47 1025.54 1134.68 1020.64
  C 1143.35 1017.44 1155.38 1011.87 1152.84 1000.82
  C 1150.86 992.25 1141.64 993.09 1134.98 994.44
  Q 1131.55 995.14 1081.26 1006.81
  Q 1079.40 1007.24 1078.03 1007.62
  Q 1068.61 1010.20 1056.56 1012.88
  Q 1051.60 1013.98 1050.99 1014.16
  Q 1047.48 1015.23 1045.47 1015.44
  C 1043.37 1015.66 1040.16 1017.17 1037.51 1017.38
  Q 1035.53 1017.54 1034.81 1017.80
  C 1030.19 1019.51 1023.75 1020.37 1019.47 1021.74
  Q 1018.57 1022.03 1003.02 1025.71
  Q 998.64 1026.75 977.62 1032.64
  Q 960.51 1037.43 952.92 1041.55
  Q 941.46 1047.77 931.42 1058.19
  C 929.93 1059.72 927.70 1061.98 926.17 1063.89
  C 905.72 1089.47 884.63 1113.96 861.48 1137.41
  C 845.13 1153.97 829.05 1167.11 810.23 1177.46
  Q 808.57 1178.37 808.56 1180.29
  A 1.36 1.33 -59.3 0 0 808.71 1180.91
  C 826.58 1217.31 842.44 1253.99 852.60 1292.88
  A 2.82 2.81 -8.7 0 0 855.46 1294.97
  Q 901.69 1292.63 941.16 1269.18
  Q 963.12 1256.13 978.46 1238.97
  Q 980.51 1236.68 989.67 1225.43
  A 0.87 0.87 0.0 0 1 990.51 1225.13
  Q 997.73 1226.48 1006.07 1227.31
  C 1013.72 1228.07 1017.63 1222.31 1024.94 1223.99
  A 2.48 2.46 -18.7 0 1 1025.96 1224.49
  Q 1029.64 1227.47 1028.74 1231.14
  C 1026.52 1240.30 1006.04 1241.22 999.20 1240.98
  Q 992.89 1240.77 988.62 1246.60
  Q 986.04 1250.12 984.29 1252.13
  A 0.86 0.86 0.0 0 0 984.49 1253.43
  Q 995.55 1260.09 1008.52 1259.02
  Q 1021.38 1257.97 1031.80 1251.60
  Q 1053.72 1238.22 1055.91 1211.18
  C 1056.49 1204.06 1054.33 1198.70 1049.74 1193.86
  C 1037.51 1180.99 1020.81 1172.43 1004.36 1164.30
  C 1000.02 1162.16 996.29 1159.72 998.34 1154.87
  Q 1000.96 1148.67 1007.02 1151.73
  Q 1019.84 1158.20 1033.02 1165.99
  Q 1052.10 1177.26 1066.84 1193.38
  A 0.34 0.33 -55.1 0 0 1067.40 1193.28
  C 1071.79 1182.53 1075.26 1167.64 1066.73 1158.27
  Q 1060.43 1151.34 1050.61 1145.42
  C 1035.77 1136.47 1014.07 1125.81 999.67 1118.63
  Q 994.58 1116.09 995.80 1110.52
  Q 996.71 1106.37 1000.43 1105.65
  Q 1002.73 1105.21 1007.26 1107.28
  Q 1034.59 1119.82 1060.08 1136.19
  Q 1066.59 1140.36 1071.35 1144.36
  A 1.02 1.01 32.2 0 0 1072.93 1144.01
  Q 1077.36 1134.35 1075.11 1123.90
  A 5.77 5.70 21.9 0 0 1074.20 1121.80
  Q 1069.76 1115.46 1067.27 1113.69
  C 1044.28 1097.34 1019.27 1085.07 992.80 1072.25
  Q 992.62 1072.16 990.66 1070.55
  A 7.17 0.14 39.5 0 0 989.89 1069.92
  Z
  M 1025.58 1072.10
  A 0.64 0.64 0.0 0 0 1025.45 1073.27
  L 1054.73 1090.18
  A 0.64 0.64 0.0 0 0 1055.69 1089.62
  L 1055.69 1063.47
  A 0.64 0.64 0.0 0 0 1054.86 1062.86
  L 1025.58 1072.10
  Z"
/>
<path fill="#ffffff" d="
  M 1079.59 1054.48
  Q 1079.72 1054.44 1081.15 1053.97
  Q 1119.00 1041.35 1147.45 1029.23
  C 1158.40 1024.57 1165.30 1017.39 1165.52 1005.05
  C 1165.69 995.05 1161.59 985.42 1151.55 982.22
  C 1144.42 979.95 1137.70 980.87 1129.62 982.81
  Q 1102.89 989.20 1070.03 996.35
  A 1.36 1.36 0.0 0 1 1068.40 995.21
  Q 1068.23 993.96 1068.23 992.75
  Q 1068.40 796.98 1068.27 141.51
  Q 1068.26 124.76 1068.90 108.23
  C 1069.89 82.35 1086.56 59.21 1108.97 46.77
  Q 1121.62 39.74 1136.33 36.95
  Q 1144.31 35.44 1162.78 35.43
  Q 1481.77 35.37 1797.01 35.44
  Q 1823.82 35.44 1830.92 36.55
  C 1869.76 42.59 1899.68 75.02 1901.00 114.52
  Q 1901.42 127.27 1901.38 143.54
  Q 1901.31 167.92 1901.33 1150.25
  C 1901.33 1162.32 1899.40 1175.63 1894.25 1186.88
  C 1883.93 1209.47 1865.04 1227.28 1840.76 1233.48
  Q 1829.22 1236.42 1812.75 1236.41
  Q 1670.80 1236.33 1173.01 1236.38
  Q 1154.40 1236.38 1138.00 1235.50
  C 1135.64 1235.37 1132.01 1234.78 1129.28 1234.08
  Q 1102.25 1227.15 1084.81 1204.71
  Q 1082.56 1201.81 1081.70 1198.47
  Q 1081.07 1196.01 1082.02 1191.57
  C 1084.36 1180.52 1086.26 1170.85 1082.30 1159.74
  C 1081.40 1157.22 1082.02 1154.35 1083.10 1151.68
  C 1089.20 1136.51 1093.41 1120.44 1079.31 1107.72
  Q 1071.76 1100.91 1070.43 1100.08
  A 2.41 2.39 3.7 0 1 1069.52 1099.05
  Q 1068.45 1096.72 1068.36 1094.19
  Q 1067.74 1077.26 1068.40 1059.53
  A 1.76 1.76 0.0 0 1 1069.50 1057.96
  Q 1075.82 1055.43 1079.59 1054.48
  Z
  M 1668.49 316.51
  A 183.51 183.51 0.0 0 0 1484.98 133.00
  A 183.51 183.51 0.0 0 0 1301.47 316.51
  A 183.51 183.51 0.0 0 0 1484.98 500.02
  A 183.51 183.51 0.0 0 0 1668.49 316.51
  Z
  M 1529.37 694.11
  L 1547.30 694.11
  A 1.18 1.18 0.0 0 0 1548.48 692.95
  Q 1548.67 685.74 1548.51 670.26
  Q 1548.48 667.53 1549.35 666.56
  Q 1556.40 658.70 1558.24 656.79
  A 0.91 0.91 0.0 0 1 1559.64 656.88
  L 1585.38 692.54
  A 3.94 3.91 -17.7 0 0 1588.57 694.17
  L 1608.74 694.17
  A 0.56 0.56 0.0 0 0 1609.30 693.59
  Q 1609.26 692.60 1608.37 691.38
  Q 1603.57 684.86 1574.37 644.18
  A 1.85 1.85 0.0 0 1 1574.50 641.86
  L 1606.96 606.11
  A 0.85 0.84 21.7 0 0 1606.35 604.70
  Q 1598.44 604.54 1587.50 604.68
  Q 1583.73 604.72 1581.63 606.90
  Q 1574.39 614.36 1549.35 640.72
  Q 1548.94 641.15 1548.46 640.77
  Q 1548.30 640.64 1548.30 640.25
  Q 1548.37 615.11 1548.77 573.23
  A 1.13 1.13 0.0 0 0 1547.64 572.08
  L 1529.66 572.08
  A 0.98 0.97 90.0 0 0 1528.69 573.06
  L 1528.69 693.43
  A 0.68 0.68 0.0 0 0 1529.37 694.11
  Z
  M 1225.14 576.98
  L 1225.14 693.34
  A 0.84 0.84 0.0 0 0 1225.98 694.18
  Q 1241.01 694.15 1275.86 694.17
  Q 1282.80 694.17 1287.09 693.26
  C 1302.42 690.00 1312.47 679.02 1313.57 663.09
  C 1314.41 651.01 1310.39 640.80 1300.07 634.67
  Q 1295.63 632.03 1295.48 631.94
  A 0.77 0.76 -44.2 0 1 1295.50 630.61
  C 1305.62 625.04 1310.63 615.51 1309.33 604.05
  C 1307.60 588.78 1294.45 577.58 1279.42 576.40
  Q 1272.08 575.82 1260.50 575.83
  Q 1232.10 575.85 1226.20 575.91
  A 1.07 1.07 0.0 0 0 1225.14 576.98
  Z
  M 1371.6488 602.8586
  A 46.82 43.11 -88.9 0 0 1327.6479 648.8424
  A 46.82 43.11 -88.9 0 0 1369.8512 696.4814
  A 46.82 43.11 -88.9 0 0 1413.8521 650.4976
  A 46.82 43.11 -88.9 0 0 1371.6488 602.8586
  Z
  M 1717.79 683.22
  L 1717.79 693.14
  A 1.02 1.02 0.0 0 0 1718.81 694.16
  L 1736.76 694.16
  A 1.09 1.08 -0.3 0 0 1737.85 693.07
  Q 1737.52 660.87 1737.86 635.72
  Q 1738.09 619.31 1724.10 610.09
  C 1713.13 602.87 1700.25 601.79 1687.27 604.78
  C 1675.30 607.55 1665.95 616.59 1664.91 629.13
  A 1.46 1.45 2.5 0 0 1666.36 630.71
  L 1683.13 630.66
  A 1.43 1.42 23.5 0 0 1684.10 630.28
  Q 1684.68 629.73 1685.65 627.63
  C 1690.77 616.66 1704.49 616.77 1713.06 622.84
  Q 1717.53 626.01 1717.79 630.97
  Q 1718.05 636.25 1712.35 638.09
  Q 1709.07 639.14 1708.38 639.18
  Q 1698.19 639.72 1689.02 641.03
  C 1680.13 642.29 1670.42 645.60 1665.05 653.15
  C 1659.91 660.38 1659.79 672.01 1663.14 680.00
  Q 1668.28 692.23 1681.22 694.76
  C 1694.63 697.39 1709.44 695.60 1716.92 682.99
  A 0.47 0.46 -30.0 0 1 1717.79 683.22
  Z
  M 1426.81 650.60
  C 1427.36 676.11 1443.42 696.35 1470.48 695.77
  C 1497.54 695.19 1512.72 674.28 1512.18 648.77
  C 1511.63 623.26 1495.57 603.02 1468.51 603.60
  C 1441.44 604.18 1426.26 625.09 1426.81 650.60
  Z
  M 1448.31 791.81
  C 1446.41 776.92 1439.36 763.02 1425.57 755.98
  Q 1403.81 744.88 1379.93 751.92
  C 1360.22 757.74 1347.03 775.21 1343.82 795.04
  Q 1340.94 812.85 1344.08 828.49
  C 1348.79 851.95 1365.47 869.11 1389.79 871.89
  C 1418.17 875.14 1443.48 861.15 1449.00 831.85
  A 1.64 1.63 5.4 0 0 1447.39 829.91
  L 1430.61 829.91
  A 2.97 2.96 -79.5 0 0 1427.84 831.82
  C 1421.98 847.01 1410.01 855.54 1393.22 853.24
  C 1375.25 850.78 1365.88 836.31 1364.39 818.94
  C 1362.68 799.04 1368.62 773.27 1391.62 768.91
  Q 1414.72 764.52 1425.18 785.20
  Q 1426.39 787.59 1428.00 791.85
  A 1.25 1.24 -10.1 0 0 1429.17 792.66
  L 1447.56 792.66
  A 0.76 0.75 -3.7 0 0 1448.31 791.81
  Z
  M 1577.66 751.33
  A 0.68 0.68 0.0 0 0 1576.98 750.65
  L 1558.92 750.65
  A 0.68 0.68 0.0 0 0 1558.24 751.33
  L 1558.24 869.85
  A 0.68 0.68 0.0 0 0 1558.92 870.53
  L 1576.98 870.53
  A 0.68 0.68 0.0 0 0 1577.66 869.85
  L 1577.66 751.33
  Z
  M 1618.20 753.18
  A 0.84 0.84 0.0 0 0 1617.36 752.34
  L 1598.92 752.34
  A 0.84 0.84 0.0 0 0 1598.08 753.18
  L 1598.08 869.66
  A 0.84 0.84 0.0 0 0 1598.92 870.50
  L 1617.36 870.50
  A 0.84 0.84 0.0 0 0 1618.20 869.66
  L 1618.20 753.18
  Z
  M 1519.70 859.08
  L 1518.49 869.15
  A 1.31 1.31 0.0 0 0 1519.79 870.62
  L 1537.00 870.62
  A 1.37 1.36 89.6 0 0 1538.36 869.23
  Q 1538.06 841.22 1538.46 815.80
  Q 1538.59 807.25 1537.44 803.42
  C 1532.46 786.77 1515.52 780.41 1499.50 781.09
  C 1483.66 781.76 1469.38 790.57 1467.16 807.20
  A 1.62 1.62 0.0 0 0 1468.77 809.04
  L 1483.60 809.04
  A 2.70 2.68 12.0 0 0 1486.06 807.45
  C 1487.06 805.21 1488.45 802.74 1490.32 801.08
  C 1496.26 795.82 1504.60 794.59 1511.76 798.44
  C 1515.74 800.59 1518.70 803.27 1519.77 807.71
  A 2.35 2.29 44.2 0 1 1519.80 808.73
  C 1518.94 813.66 1514.42 815.41 1509.86 815.86
  Q 1496.53 817.17 1485.41 819.14
  Q 1475.96 820.82 1469.26 827.01
  C 1462.57 833.20 1460.02 844.28 1462.36 852.62
  Q 1466.93 868.81 1483.84 871.89
  C 1497.40 874.36 1510.69 870.56 1518.39 858.61
  A 0.72 0.71 -25.2 0 1 1519.70 859.08
  Z
  M 1184.53 1042.41
  Q 1184.53 1051.70 1185.44 1057.99
  Q 1189.84 1088.47 1210.60 1109.64
  Q 1238.57 1138.16 1279.26 1137.94
  Q 1287.63 1137.89 1486.26 1137.89
  Q 1684.88 1137.90 1693.26 1137.95
  Q 1733.95 1138.17 1761.92 1109.66
  Q 1782.68 1088.49 1787.08 1058.00
  Q 1787.99 1051.72 1787.99 1042.43
  Q 1787.99 1033.15 1787.08 1026.86
  Q 1782.68 996.38 1761.92 975.21
  Q 1733.95 946.69 1693.27 946.91
  Q 1684.89 946.96 1486.26 946.95
  Q 1287.64 946.95 1279.26 946.90
  Q 1238.58 946.67 1210.60 975.19
  Q 1189.84 996.36 1185.44 1026.84
  Q 1184.53 1033.13 1184.53 1042.41
  Z"
/>
<path fill="#1a232a" d="
  M 1668.49 316.51
  A 183.51 183.51 0.0 0 1 1484.98 500.02
  A 183.51 183.51 0.0 0 1 1301.47 316.51
  A 183.51 183.51 0.0 0 1 1484.98 133.00
  A 183.51 183.51 0.0 0 1 1668.49 316.51
  Z
  M 1655.95 316.51
  A 170.97 170.97 0.0 0 0 1484.98 145.54
  A 170.97 170.97 0.0 0 0 1314.01 316.51
  A 170.97 170.97 0.0 0 0 1484.98 487.48
  A 170.97 170.97 0.0 0 0 1655.95 316.51
  Z"
/>
<path fill="#b7995b" d="
  M 1655.95 316.51
  A 170.97 170.97 0.0 0 1 1484.98 487.48
  A 170.97 170.97 0.0 0 1 1314.01 316.51
  A 170.97 170.97 0.0 0 1 1484.98 145.54
  A 170.97 170.97 0.0 0 1 1655.95 316.51
  Z
  M 1442.49 295.94
  C 1453.93 289.90 1466.47 279.38 1462.56 265.61
  Q 1460.32 257.74 1457.04 251.45
  C 1451.12 240.09 1444.23 228.99 1435.41 219.57
  C 1429.20 212.94 1420.89 214.70 1413.78 218.80
  C 1398.98 227.35 1387.21 242.75 1385.48 259.65
  Q 1383.97 274.41 1388.77 289.51
  Q 1393.67 304.93 1401.45 317.05
  Q 1407.17 325.96 1419.87 341.25
  Q 1439.90 365.36 1462.83 384.81
  C 1476.71 396.59 1490.06 406.59 1505.89 413.79
  Q 1528.39 424.01 1551.99 418.49
  C 1566.96 414.99 1581.92 405.67 1586.30 390.40
  Q 1588.75 381.84 1584.37 374.57
  Q 1581.83 370.35 1579.43 368.08
  C 1570.17 359.28 1559.10 352.85 1547.09 346.72
  Q 1539.67 342.93 1536.11 342.86
  Q 1529.72 342.74 1525.18 346.71
  Q 1521.21 350.16 1519.74 352.79
  Q 1516.13 359.22 1511.04 365.10
  A 1.23 1.23 0.0 0 1 1510.21 365.52
  C 1505.92 365.87 1502.50 364.06 1498.94 361.56
  Q 1483.61 350.76 1467.71 334.07
  Q 1454.86 320.58 1445.27 307.28
  C 1443.53 304.88 1440.08 299.41 1441.60 296.80
  A 2.34 2.25 -0.1 0 1 1442.49 295.94
  Z"
/>
<path fill="#ffeedd" d="
  M 690.59 403.55
  Q 684.81 406.02 683.03 412.31
  Q 677.91 430.35 672.69 452.41
  A 2.12 2.11 5.7 0 1 670.69 454.04
  Q 649.08 454.69 630.95 444.26
  C 625.89 441.35 620.61 436.36 615.61 432.42
  A 4.08 4.05 75.5 0 0 614.70 431.88
  C 607.69 428.92 603.15 435.76 605.81 441.88
  Q 606.61 443.74 610.24 446.54
  C 627.67 459.99 646.02 467.39 667.35 467.02
  A 0.61 0.60 5.7 0 1 667.95 467.75
  Q 662.08 495.00 650.13 519.08
  Q 643.60 532.24 633.12 543.28
  Q 615.17 562.19 588.17 564.35
  C 558.08 566.75 529.28 558.15 500.78 549.43
  C 497.25 548.35 493.54 548.33 490.84 550.54
  C 487.68 553.12 487.50 557.08 490.99 559.55
  C 495.74 562.91 502.55 564.34 508.13 565.53
  A 1.25 1.24 20.8 0 1 508.96 567.36
  C 494.80 592.48 483.08 618.80 476.97 646.73
  Q 474.55 657.82 476.00 669.22
  A 2.35 2.35 0.0 0 1 474.69 671.64
  C 472.41 672.75 470.29 673.31 466.33 674.48
  Q 462.67 675.56 459.98 675.95
  Q 434.97 679.60 410.06 671.18
  Q 388.38 663.86 369.95 652.79
  C 335.68 632.23 304.60 606.99 276.40 578.35
  Q 267.04 568.85 258.60 558.40
  C 256.88 556.28 256.85 554.81 258.06 552.11
  Q 279.95 503.08 294.84 451.36
  C 295.43 449.30 296.93 448.66 299.15 448.24
  C 307.40 446.70 313.66 441.19 319.97 434.97
  Q 350.49 404.92 372.10 366.62
  A 1.23 1.22 -51.6 0 1 374.07 366.39
  Q 388.38 382.02 408.98 387.00
  C 413.93 388.20 424.68 388.98 424.28 380.41
  C 423.87 371.47 411.11 373.19 405.12 371.54
  Q 389.16 367.18 380.64 352.33
  C 370.24 334.22 367.33 312.01 369.40 291.58
  C 371.07 275.03 380.73 259.64 395.86 252.60
  Q 404.01 248.80 413.65 249.11
  C 430.09 249.64 443.46 258.35 452.67 271.62
  Q 458.27 279.68 461.10 285.71
  C 465.25 294.55 470.44 306.08 482.32 298.80
  Q 516.15 278.09 539.29 250.07
  C 552.00 234.68 561.43 216.59 565.03 196.75
  Q 567.28 184.32 567.44 171.22
  A 1.05 1.05 0.0 0 1 568.69 170.20
  Q 576.13 171.59 597.76 176.02
  Q 600.30 176.54 600.56 176.28
  A 0.41 0.40 -42.6 0 1 601.15 176.30
  Q 601.20 176.35 603.15 176.79
  Q 608.39 177.97 616.76 178.91
  Q 653.80 183.07 690.56 178.64
  A 0.75 0.75 0.0 0 1 691.38 179.23
  Q 697.96 210.96 695.50 243.00
  Q 694.55 255.31 693.03 270.25
  Q 691.79 282.43 697.20 295.57
  Q 702.41 308.21 710.21 324.07
  Q 725.60 355.35 740.22 381.31
  Q 743.10 386.42 743.25 390.73
  C 743.46 396.91 739.53 399.03 734.07 400.34
  C 721.34 403.38 711.80 402.70 694.52 402.65
  Q 692.71 402.65 690.59 403.55
  Z
  M 651.5820 265.1518
  A 19.02 14.70 -78.5 0 0 633.3851 280.8593
  A 19.02 14.70 -78.5 0 0 643.9980 302.4282
  A 19.02 14.70 -78.5 0 0 662.1949 286.7207
  A 19.02 14.70 -78.5 0 0 651.5820 265.1518
  Z"
/>
<path fill="#ffeedd" d="
  M 1441.60 296.80
  C 1440.08 299.41 1443.53 304.88 1445.27 307.28
  Q 1454.86 320.58 1467.71 334.07
  Q 1483.61 350.76 1498.94 361.56
  C 1502.50 364.06 1505.92 365.87 1510.21 365.52
  A 1.23 1.23 0.0 0 0 1511.04 365.10
  Q 1516.13 359.22 1519.74 352.79
  Q 1521.21 350.16 1525.18 346.71
  Q 1529.72 342.74 1536.11 342.86
  Q 1539.67 342.93 1547.09 346.72
  C 1559.10 352.85 1570.17 359.28 1579.43 368.08
  Q 1581.83 370.35 1584.37 374.57
  Q 1588.75 381.84 1586.30 390.40
  C 1581.92 405.67 1566.96 414.99 1551.99 418.49
  Q 1528.39 424.01 1505.89 413.79
  C 1490.06 406.59 1476.71 396.59 1462.83 384.81
  Q 1439.90 365.36 1419.87 341.25
  Q 1407.17 325.96 1401.45 317.05
  Q 1393.67 304.93 1388.77 289.51
  Q 1383.97 274.41 1385.48 259.65
  C 1387.21 242.75 1398.98 227.35 1413.78 218.80
  C 1420.89 214.70 1429.20 212.94 1435.41 219.57
  C 1444.23 228.99 1451.12 240.09 1457.04 251.45
  Q 1460.32 257.74 1462.56 265.61
  C 1466.47 279.38 1453.93 289.90 1442.49 295.94
  A 2.34 2.25 -0.1 0 0 1441.60 296.80
  Z"
/>
<ellipse fill="#1a232a" cx="0.00" cy="0.00" transform="translate(647.79,283.79) rotate(-78.5)" rx="19.02" ry="14.70"/>
<path fill="#b7995b" d="
  M 631.68 1634.49
  L 11.96 1634.49
  Q 12.62 1583.32 13.81 1532.22
  Q 15.03 1479.27 15.03 1479.25
  Q 16.99 1333.41 17.56 1215.75
  Q 17.64 1199.96 18.96 1149.60
  Q 20.13 1104.91 20.87 1083.44
  Q 22.87 1025.58 30.79 953.51
  Q 38.13 886.74 53.63 824.34
  C 69.73 759.56 102.66 697.91 148.36 648.84
  Q 159.69 636.68 175.28 621.78
  Q 205.15 593.25 235.87 567.11
  C 237.98 565.31 240.81 563.22 243.60 563.43
  Q 247.43 563.73 249.36 565.91
  Q 256.79 574.29 263.49 581.50
  Q 289.41 609.38 321.17 634.07
  Q 344.59 652.27 366.60 664.84
  Q 392.29 679.52 419.46 685.94
  Q 433.87 689.35 448.67 689.34
  Q 457.51 689.33 465.65 687.14
  Q 474.46 684.77 481.66 681.27
  Q 485.52 679.40 489.14 682.41
  A 2.65 2.60 3.3 0 1 489.64 682.96
  Q 498.56 696.23 500.59 699.93
  Q 525.97 746.20 544.25 795.45
  Q 557.43 830.96 564.78 857.41
  C 565.56 860.20 566.39 862.25 567.16 865.08
  Q 570.23 876.49 571.42 880.46
  Q 572.24 883.22 573.07 887.07
  Q 573.66 889.77 575.01 893.64
  A 1.28 1.24 11.9 0 0 575.39 894.20
  Q 575.41 894.21 575.49 894.26
  A 0.25 0.25 0.0 0 1 575.62 894.48
  C 575.71 898.52 577.31 902.26 577.81 905.59
  C 578.19 908.15 579.19 910.57 579.71 913.03
  Q 581.53 921.63 582.55 925.19
  Q 583.01 926.82 583.16 928.91
  A 4.07 3.44 -60.2 0 0 583.33 929.83
  C 584.90 934.81 585.65 940.24 586.76 945.04
  Q 589.21 955.69 590.41 962.77
  Q 591.15 967.19 591.60 969.23
  Q 592.61 973.82 592.94 975.66
  Q 595.17 988.30 597.72 1002.77
  Q 598.55 1007.43 599.07 1011.35
  Q 599.30 1013.02 600.40 1019.85
  Q 604.94 1047.80 609.22 1088.46
  Q 609.24 1088.60 609.51 1089.18
  A 1.24 1.15 34.9 0 1 609.63 1089.74
  C 609.45 1094.26 610.31 1098.92 610.75 1103.99
  Q 613.09 1130.92 614.58 1158.50
  Q 615.33 1172.33 615.14 1185.62
  A 1.06 1.06 0.0 0 1 614.23 1186.65
  Q 540.81 1197.90 489.76 1205.48
  Q 482.14 1206.61 476.52 1206.57
  A 1.74 1.73 82.5 0 1 474.86 1205.29
  Q 437.12 1069.75 396.71 932.44
  C 385.92 895.77 376.84 863.32 364.96 821.06
  C 364.22 818.46 362.03 813.93 358.89 813.62
  Q 355.13 813.25 352.97 816.53
  A 2.12 2.09 63.0 0 0 352.63 817.61
  Q 352.51 822.94 353.01 824.51
  Q 357.98 839.95 359.40 844.87
  Q 390.30 951.63 427.63 1080.63
  C 439.73 1122.43 454.09 1174.50 462.76 1205.03
  C 463.71 1208.38 461.52 1209.09 458.64 1209.55
  Q 436.54 1213.05 429.67 1214.08
  A 3.23 3.13 -61.2 0 0 428.86 1214.33
  Q 423.86 1216.67 426.58 1221.96
  C 428.38 1225.48 431.63 1225.73 435.59 1225.14
  Q 486.92 1217.49 520.45 1212.43
  Q 521.97 1212.20 524.16 1211.61
  Q 525.31 1211.30 527.40 1211.35
  Q 528.93 1211.38 530.60 1211.03
  Q 534.80 1210.15 540.20 1209.45
  Q 548.77 1208.35 549.28 1208.14
  Q 549.47 1208.06 608.91 1199.15
  A 2.74 2.66 -59.9 0 0 609.55 1198.97
  C 611.68 1198.11 613.74 1198.48 616.10 1198.11
  Q 648.13 1193.22 684.25 1187.87
  Q 692.65 1186.63 697.53 1185.68
  C 699.21 1185.35 701.09 1185.35 702.74 1185.10
  Q 729.40 1181.04 750.75 1177.87
  Q 770.28 1174.97 782.28 1173.09
  Q 784.18 1172.80 785.38 1172.81
  A 1.41 1.40 66.3 0 1 786.29 1173.17
  Q 791.11 1177.39 792.83 1180.20
  Q 802.51 1195.93 810.08 1212.44
  Q 825.91 1246.94 836.72 1280.23
  Q 843.35 1300.65 842.79 1321.73
  C 842.62 1327.92 839.21 1330.37 833.25 1332.18
  Q 830.18 1333.12 797.90 1343.61
  Q 797.27 1343.81 796.35 1344.11
  Q 788.99 1346.45 778.11 1349.88
  Q 760.76 1355.37 758.67 1356.02
  Q 758.17 1356.17 733.03 1364.08
  Q 673.26 1382.88 644.30 1391.16
  Q 641.22 1392.04 628.08 1395.89
  A 2.03 1.77 -65.6 0 0 627.51 1396.15
  C 626.29 1396.94 624.97 1396.73 623.65 1397.11
  Q 613.72 1400.02 602.68 1402.93
  Q 571.29 1411.21 569.65 1411.55
  C 565.43 1412.42 561.46 1413.82 556.75 1414.95
  Q 531.71 1420.99 527.57 1422.04
  Q 527.18 1422.14 526.99 1422.44
  A 0.42 0.42 0.0 0 1 526.62 1422.63
  Q 524.77 1422.56 522.53 1423.14
  Q 512.50 1425.76 503.20 1427.70
  Q 499.38 1428.50 498.41 1428.78
  Q 495.49 1429.65 493.60 1429.89
  Q 491.62 1430.15 488.50 1431.05
  Q 486.07 1431.75 483.41 1432.33
  Q 469.96 1435.25 456.84 1437.88
  Q 453.87 1438.48 449.82 1439.49
  Q 449.71 1439.51 442.76 1440.87
  Q 421.21 1445.07 411.49 1446.58
  Q 403.19 1447.88 395.24 1448.64
  Q 349.10 1453.08 315.50 1422.07
  C 292.82 1401.14 277.58 1375.53 263.18 1346.55
  C 244.09 1308.12 226.82 1268.54 210.81 1229.70
  C 173.58 1139.36 139.22 1045.20 107.49 953.20
  C 106.01 948.88 104.57 945.77 99.84 946.24
  C 96.25 946.60 93.91 950.05 95.09 953.42
  Q 116.53 1014.69 147.62 1099.64
  Q 186.84 1206.79 232.93 1309.06
  C 244.72 1335.21 255.34 1357.75 269.01 1381.24
  Q 281.88 1403.34 299.08 1422.17
  C 304.34 1427.92 310.40 1432.80 316.38 1437.51
  Q 349.42 1463.54 393.48 1459.91
  Q 413.35 1458.28 427.70 1455.17
  A 3.65 3.14 -58.8 0 0 428.31 1454.97
  Q 430.07 1454.19 431.54 1454.20
  Q 433.41 1454.21 434.50 1453.92
  Q 440.82 1452.25 444.49 1451.89
  C 446.50 1451.70 451.55 1449.61 457.31 1449.23
  A 0.87 0.78 -48.2 0 0 457.49 1449.21
  L 489.20 1442.12
  Q 489.21 1442.11 489.22 1442.10
  L 489.36 1441.66
  A 0.12 0.11 6.4 0 1 489.47 1441.58
  Q 494.39 1441.35 500.30 1439.49
  C 501.66 1439.07 503.44 1439.01 505.20 1438.57
  Q 516.65 1435.70 526.98 1433.25
  Q 532.27 1432.01 547.10 1428.44
  Q 565.99 1423.91 571.12 1422.56
  Q 575.19 1421.49 577.92 1420.29
  A 1.73 1.73 0.0 0 1 578.99 1420.20
  Q 579.31 1420.27 580.05 1420.13
  Q 585.02 1419.17 598.02 1415.45
  Q 598.84 1415.21 599.69 1414.98
  Q 609.18 1412.41 620.26 1409.58
  A 1.44 1.44 0.0 0 1 621.80 1410.15
  Q 622.49 1411.13 622.24 1413.01
  A 0.58 0.21 -64.9 0 0 622.23 1413.12
  L 631.68 1634.49
  Z"
/>
<path fill="#1a232a" d="
  M 1528.69 693.43
  L 1528.69 573.06
  A 0.98 0.97 90.0 0 1 1529.66 572.08
  L 1547.64 572.08
  A 1.13 1.13 0.0 0 1 1548.77 573.23
  Q 1548.37 615.11 1548.30 640.25
  Q 1548.30 640.64 1548.46 640.77
  Q 1548.94 641.15 1549.35 640.72
  Q 1574.39 614.36 1581.63 606.90
  Q 1583.73 604.72 1587.50 604.68
  Q 1598.44 604.54 1606.35 604.70
  A 0.85 0.84 21.7 0 1 1606.96 606.11
  L 1574.50 641.86
  A 1.85 1.85 0.0 0 0 1574.37 644.18
  Q 1603.57 684.86 1608.37 691.38
  Q 1609.26 692.60 1609.30 693.59
  A 0.56 0.56 0.0 0 1 1608.74 694.17
  L 1588.57 694.17
  A 3.94 3.91 -17.7 0 1 1585.38 692.54
  L 1559.64 656.88
  A 0.91 0.91 0.0 0 0 1558.24 656.79
  Q 1556.40 658.70 1549.35 666.56
  Q 1548.48 667.53 1548.51 670.26
  Q 1548.67 685.74 1548.48 692.95
  A 1.18 1.18 0.0 0 1 1547.30 694.11
  L 1529.37 694.11
  A 0.68 0.68 0.0 0 1 1528.69 693.43
  Z"
/>
<path fill="#1a232a" d="
  M 1225.14 576.98
  A 1.07 1.07 0.0 0 1 1226.20 575.91
  Q 1232.10 575.85 1260.50 575.83
  Q 1272.08 575.82 1279.42 576.40
  C 1294.45 577.58 1307.60 588.78 1309.33 604.05
  C 1310.63 615.51 1305.62 625.04 1295.50 630.61
  A 0.77 0.76 -44.2 0 0 1295.48 631.94
  Q 1295.63 632.03 1300.07 634.67
  C 1310.39 640.80 1314.41 651.01 1313.57 663.09
  C 1312.47 679.02 1302.42 690.00 1287.09 693.26
  Q 1282.80 694.17 1275.86 694.17
  Q 1241.01 694.15 1225.98 694.18
  A 0.84 0.84 0.0 0 1 1225.14 693.34
  L 1225.14 576.98
  Z
  M 1246.59 595.07
  L 1246.65 623.99
  A 0.74 0.74 0.0 0 0 1247.39 624.73
  L 1271.50 624.68
  A 17.61 15.15 -0.1 0 0 1289.08 609.50
  L 1289.08 609.40
  A 17.61 15.15 -0.1 0 0 1271.44 594.28
  L 1247.33 594.33
  A 0.74 0.74 0.0 0 0 1246.59 595.07
  Z
  M 1246.67 642.85
  L 1246.51 675.13
  A 0.69 0.69 0.0 0 0 1247.19 675.82
  L 1274.89 675.97
  A 17.57 16.71 0.3 0 0 1292.55 659.35
  L 1292.55 659.11
  A 17.57 16.71 0.3 0 0 1275.07 642.31
  L 1247.37 642.16
  A 0.69 0.69 0.0 0 0 1246.67 642.85
  Z"
/>
<path fill="#ffffff" d="
  M 1246.59 595.07
  A 0.74 0.74 0.0 0 1 1247.33 594.33
  L 1271.44 594.28
  A 17.61 15.15 -0.1 0 1 1289.08 609.40
  L 1289.08 609.50
  A 17.61 15.15 -0.1 0 1 1271.50 624.68
  L 1247.39 624.73
  A 0.74 0.74 0.0 0 1 1246.65 623.99
  L 1246.59 595.07
  Z"
/>
<path fill="#1a232a" d="
  M 1371.6488 602.8586
  A 46.82 43.11 -88.9 0 1 1413.8521 650.4976
  A 46.82 43.11 -88.9 0 1 1369.8512 696.4814
  A 46.82 43.11 -88.9 0 1 1327.6479 648.8424
  A 46.82 43.11 -88.9 0 1 1371.6488 602.8586
  Z
  M 1370.7549 619.6602
  A 30.10 22.90 -90.2 0 0 1347.9601 649.8399
  A 30.10 22.90 -90.2 0 0 1370.9651 679.8598
  A 30.10 22.90 -90.2 0 0 1393.7599 649.6801
  A 30.10 22.90 -90.2 0 0 1370.7549 619.6602
  Z"
/>
<path fill="#1a232a" d="
  M 1717.79 683.22
  A 0.47 0.46 -30.0 0 0 1716.92 682.99
  C 1709.44 695.60 1694.63 697.39 1681.22 694.76
  Q 1668.28 692.23 1663.14 680.00
  C 1659.79 672.01 1659.91 660.38 1665.05 653.15
  C 1670.42 645.60 1680.13 642.29 1689.02 641.03
  Q 1698.19 639.72 1708.38 639.18
  Q 1709.07 639.14 1712.35 638.09
  Q 1718.05 636.25 1717.79 630.97
  Q 1717.53 626.01 1713.06 622.84
  C 1704.49 616.77 1690.77 616.66 1685.65 627.63
  Q 1684.68 629.73 1684.10 630.28
  A 1.43 1.42 23.5 0 1 1683.13 630.66
  L 1666.36 630.71
  A 1.46 1.45 2.5 0 1 1664.91 629.13
  C 1665.95 616.59 1675.30 607.55 1687.27 604.78
  C 1700.25 601.79 1713.13 602.87 1724.10 610.09
  Q 1738.09 619.31 1737.86 635.72
  Q 1737.52 660.87 1737.85 693.07
  A 1.09 1.08 -0.3 0 1 1736.76 694.16
  L 1718.81 694.16
  A 1.02 1.02 0.0 0 1 1717.79 693.14
  L 1717.79 683.22
  Z
  M 1717.61 654.12
  A 0.60 0.60 0.0 0 0 1716.93 653.55
  Q 1707.84 654.76 1691.75 657.22
  C 1683.96 658.41 1678.54 666.74 1683.64 673.88
  C 1690.23 683.11 1704.81 680.03 1711.39 672.41
  Q 1718.00 664.75 1717.61 654.12
  Z"
/>
<path fill="#1a232a" d="
  M 1468.51 603.60
  C 1495.57 603.02 1511.63 623.26 1512.18 648.77
  C 1512.72 674.28 1497.54 695.19 1470.48 695.77
  C 1443.42 696.35 1427.36 676.11 1426.81 650.60
  C 1426.26 625.09 1441.44 604.18 1468.51 603.60
  Z
  M 1469.7697 619.5707
  A 30.04 22.88 -89.6 0 0 1446.6806 649.4503
  A 30.04 22.88 -89.6 0 0 1469.3503 679.6493
  A 30.04 22.88 -89.6 0 0 1492.4394 649.7697
  A 30.04 22.88 -89.6 0 0 1469.7697 619.5707
  Z"
/>
<ellipse fill="#ffffff" cx="0.00" cy="0.00" transform="translate(1469.56,649.61) rotate(-89.6)" rx="30.04" ry="22.88"/>
<ellipse fill="#ffffff" cx="0.00" cy="0.00" transform="translate(1370.86,649.76) rotate(-90.2)" rx="30.10" ry="22.90"/>
<path fill="#ffffff" d="
  M 1246.67 642.85
  A 0.69 0.69 0.0 0 1 1247.37 642.16
  L 1275.07 642.31
  A 17.57 16.71 0.3 0 1 1292.55 659.11
  L 1292.55 659.35
  A 17.57 16.71 0.3 0 1 1274.89 675.97
  L 1247.19 675.82
  A 0.69 0.69 0.0 0 1 1246.51 675.13
  L 1246.67 642.85
  Z"
/>
<path fill="#ffffff" d="
  M 1717.61 654.12
  Q 1718.00 664.75 1711.39 672.41
  C 1704.81 680.03 1690.23 683.11 1683.64 673.88
  C 1678.54 666.74 1683.96 658.41 1691.75 657.22
  Q 1707.84 654.76 1716.93 653.55
  A 0.60 0.60 0.0 0 1 1717.61 654.12
  Z"
/>
<path fill="#1a232a" d="
  M 1448.31 791.81
  A 0.76 0.75 -3.7 0 1 1447.56 792.66
  L 1429.17 792.66
  A 1.25 1.24 -10.1 0 1 1428.00 791.85
  Q 1426.39 787.59 1425.18 785.20
  Q 1414.72 764.52 1391.62 768.91
  C 1368.62 773.27 1362.68 799.04 1364.39 818.94
  C 1365.88 836.31 1375.25 850.78 1393.22 853.24
  C 1410.01 855.54 1421.98 847.01 1427.84 831.82
  A 2.97 2.96 -79.5 0 1 1430.61 829.91
  L 1447.39 829.91
  A 1.64 1.63 5.4 0 1 1449.00 831.85
  C 1443.48 861.15 1418.17 875.14 1389.79 871.89
  C 1365.47 869.11 1348.79 851.95 1344.08 828.49
  Q 1340.94 812.85 1343.82 795.04
  C 1347.03 775.21 1360.22 757.74 1379.93 751.92
  Q 1403.81 744.88 1425.57 755.98
  C 1439.36 763.02 1446.41 776.92 1448.31 791.81
  Z"
/>
<rect fill="#1a232a" x="1558.24" y="750.65" width="19.42" height="119.88" rx="0.68"/>
<rect fill="#1a232a" x="1598.08" y="752.34" width="20.12" height="118.16" rx="0.84"/>
<path fill="#1a232a" d="
  M 1519.70 859.08
  A 0.72 0.71 -25.2 0 0 1518.39 858.61
  C 1510.69 870.56 1497.40 874.36 1483.84 871.89
  Q 1466.93 868.81 1462.36 852.62
  C 1460.02 844.28 1462.57 833.20 1469.26 827.01
  Q 1475.96 820.82 1485.41 819.14
  Q 1496.53 817.17 1509.86 815.86
  C 1514.42 815.41 1518.94 813.66 1519.80 808.73
  A 2.35 2.29 44.2 0 0 1519.77 807.71
  C 1518.70 803.27 1515.74 800.59 1511.76 798.44
  C 1504.60 794.59 1496.26 795.82 1490.32 801.08
  C 1488.45 802.74 1487.06 805.21 1486.06 807.45
  A 2.70 2.68 12.0 0 1 1483.60 809.04
  L 1468.77 809.04
  A 1.62 1.62 0.0 0 1 1467.16 807.20
  C 1469.38 790.57 1483.66 781.76 1499.50 781.09
  C 1515.52 780.41 1532.46 786.77 1537.44 803.42
  Q 1538.59 807.25 1538.46 815.80
  Q 1538.06 841.22 1538.36 869.23
  A 1.37 1.36 89.6 0 1 1537.00 870.62
  L 1519.79 870.62
  A 1.31 1.31 0.0 0 1 1518.49 869.15
  L 1519.70 859.08
  Z
  M 1518.07 831.15
  A 0.60 0.59 83.9 0 0 1517.39 830.60
  Q 1508.42 831.94 1492.55 834.62
  C 1484.87 835.92 1479.64 844.24 1484.79 851.22
  C 1491.45 860.24 1505.82 856.97 1512.21 849.33
  Q 1518.63 841.66 1518.07 831.15
  Z"
/>
<path fill="#ffffff" d="
  M 1518.07 831.15
  Q 1518.63 841.66 1512.21 849.33
  C 1505.82 856.97 1491.45 860.24 1484.79 851.22
  C 1479.64 844.24 1484.87 835.92 1492.55 834.62
  Q 1508.42 831.94 1517.39 830.60
  A 0.60 0.59 83.9 0 1 1518.07 831.15
  Z"
/>
<path fill="#1a232a" d="
  M 1486.26 946.95
  Q 1684.89 946.96 1693.27 946.91
  Q 1733.95 946.69 1761.92 975.21
  Q 1782.68 996.38 1787.08 1026.86
  Q 1787.99 1033.15 1787.99 1042.43
  Q 1787.99 1051.72 1787.08 1058.00
  Q 1782.68 1088.49 1761.92 1109.66
  Q 1733.95 1138.17 1693.26 1137.95
  Q 1684.88 1137.90 1486.26 1137.89
  Q 1287.63 1137.89 1279.26 1137.94
  Q 1238.57 1138.16 1210.60 1109.64
  Q 1189.84 1088.47 1185.44 1057.99
  Q 1184.53 1051.70 1184.53 1042.41
  Q 1184.53 1033.13 1185.44 1026.84
  Q 1189.84 996.36 1210.60 975.19
  Q 1238.58 946.67 1279.26 946.90
  Q 1287.64 946.95 1486.26 946.95
  Z
  M 1775.69 1040.35
  A 80.36 80.36 0.0 0 0 1695.33 959.99
  L 1277.31 959.99
  A 80.36 80.36 0.0 0 0 1196.95 1040.35
  L 1196.95 1045.35
  A 80.36 80.36 0.0 0 0 1277.31 1125.71
  L 1695.33 1125.71
  A 80.36 80.36 0.0 0 0 1775.69 1045.35
  L 1775.69 1040.35
  Z"
/>
<path fill="#ffffff" d="
  M 1775.69 1045.35
  A 80.36 80.36 0.0 0 1 1695.33 1125.71
  L 1277.31 1125.71
  A 80.36 80.36 0.0 0 1 1196.95 1045.35
  L 1196.95 1040.35
  A 80.36 80.36 0.0 0 1 1277.31 959.99
  L 1695.33 959.99
  A 80.36 80.36 0.0 0 1 1775.69 1040.35
  L 1775.69 1045.35
  Z
  M 1620.22 1025.48
  A 0.74 0.74 0.0 0 0 1619.54 1024.38
  L 1603.90 1024.94
  A 1.45 1.42 -69.4 0 0 1602.89 1025.41
  L 1582.49 1047.88
  A 0.70 0.69 66.1 0 1 1581.28 1047.41
  L 1581.28 1005.10
  A 1.07 1.07 0.0 0 0 1580.20 1004.03
  L 1567.68 1004.03
  A 0.65 0.65 0.0 0 0 1567.03 1004.68
  L 1567.03 1084.90
  A 0.86 0.86 0.0 0 0 1567.89 1085.76
  L 1580.41 1085.76
  A 0.91 0.91 0.0 0 0 1581.32 1084.85
  L 1581.32 1068.49
  A 2.19 2.17 66.2 0 1 1581.88 1067.03
  L 1586.93 1061.47
  A 0.79 0.79 0.0 0 1 1588.16 1061.54
  L 1605.29 1085.27
  A 1.62 1.60 -17.7 0 0 1606.60 1085.94
  L 1620.10 1085.94
  A 0.95 0.95 0.0 0 0 1620.87 1084.43
  L 1597.45 1051.99
  A 1.13 1.12 48.4 0 1 1597.53 1050.58
  L 1620.00 1025.93
  A 0.81 0.64 83.4 0 0 1620.13 1025.72
  Q 1620.21 1025.50 1620.22 1025.48
  Z
  M 1408.54 1042.58
  Q 1409.57 1041.80 1411.27 1040.78
  C 1416.04 1037.90 1418.70 1032.68 1419.08 1027.09
  C 1419.73 1017.63 1413.94 1009.99 1405.22 1006.57
  Q 1401.23 1005.00 1392.63 1004.93
  Q 1375.87 1004.79 1363.75 1004.95
  A 1.34 1.34 0.0 0 0 1362.43 1006.29
  L 1362.43 1084.76
  A 1.05 1.05 0.0 0 0 1363.47 1085.81
  Q 1377.00 1085.90 1396.51 1085.74
  C 1406.42 1085.66 1416.04 1082.16 1420.11 1072.97
  Q 1423.92 1064.36 1421.18 1055.79
  Q 1418.50 1047.39 1408.67 1043.50
  A 0.53 0.53 0.0 0 1 1408.54 1042.58
  Z
  M 1461.0151 1024.3139
  A 31.52 28.79 -89.1 0 0 1431.7336 1055.3778
  A 31.52 28.79 -89.1 0 0 1460.0249 1087.3461
  A 31.52 28.79 -89.1 0 0 1489.3064 1056.2822
  A 31.52 28.79 -89.1 0 0 1461.0151 1024.3139
  Z
  M 1526.0999 1024.3469
  A 31.52 28.86 -91.2 0 0 1497.9063 1056.4644
  A 31.52 28.86 -91.2 0 0 1527.4201 1087.3731
  A 31.52 28.86 -91.2 0 0 1555.6137 1055.2556
  A 31.52 28.86 -91.2 0 0 1526.0999 1024.3469
  Z"
/>
<path fill="#ffeedd" d="
  M 990.66 1070.55
  Q 992.62 1072.16 992.80 1072.25
  C 1019.27 1085.07 1044.28 1097.34 1067.27 1113.69
  Q 1069.76 1115.46 1074.20 1121.80
  A 5.77 5.70 21.9 0 1 1075.11 1123.90
  Q 1077.36 1134.35 1072.93 1144.01
  A 1.02 1.01 32.2 0 1 1071.35 1144.36
  Q 1066.59 1140.36 1060.08 1136.19
  Q 1034.59 1119.82 1007.26 1107.28
  Q 1002.73 1105.21 1000.43 1105.65
  Q 996.71 1106.37 995.80 1110.52
  Q 994.58 1116.09 999.67 1118.63
  C 1014.07 1125.81 1035.77 1136.47 1050.61 1145.42
  Q 1060.43 1151.34 1066.73 1158.27
  C 1075.26 1167.64 1071.79 1182.53 1067.40 1193.28
  A 0.34 0.33 -55.1 0 1 1066.84 1193.38
  Q 1052.10 1177.26 1033.02 1165.99
  Q 1019.84 1158.20 1007.02 1151.73
  Q 1000.96 1148.67 998.34 1154.87
  C 996.29 1159.72 1000.02 1162.16 1004.36 1164.30
  C 1020.81 1172.43 1037.51 1180.99 1049.74 1193.86
  C 1054.33 1198.70 1056.49 1204.06 1055.91 1211.18
  Q 1053.72 1238.22 1031.80 1251.60
  Q 1021.38 1257.97 1008.52 1259.02
  Q 995.55 1260.09 984.49 1253.43
  A 0.86 0.86 0.0 0 1 984.29 1252.13
  Q 986.04 1250.12 988.62 1246.60
  Q 992.89 1240.77 999.20 1240.98
  C 1006.04 1241.22 1026.52 1240.30 1028.74 1231.14
  Q 1029.64 1227.47 1025.96 1224.49
  A 2.48 2.46 -18.7 0 0 1024.94 1223.99
  C 1017.63 1222.31 1013.72 1228.07 1006.07 1227.31
  Q 997.73 1226.48 990.51 1225.13
  A 0.87 0.87 0.0 0 0 989.67 1225.43
  Q 980.51 1236.68 978.46 1238.97
  Q 963.12 1256.13 941.16 1269.18
  Q 901.69 1292.63 855.46 1294.97
  A 2.82 2.81 -8.7 0 1 852.60 1292.88
  C 842.44 1253.99 826.58 1217.31 808.71 1180.91
  A 1.36 1.33 -59.3 0 1 808.56 1180.29
  Q 808.57 1178.37 810.23 1177.46
  C 829.05 1167.11 845.13 1153.97 861.48 1137.41
  C 884.63 1113.96 905.72 1089.47 926.17 1063.89
  C 927.70 1061.98 929.93 1059.72 931.42 1058.19
  Q 941.46 1047.77 952.92 1041.55
  Q 960.51 1037.43 977.62 1032.64
  Q 998.64 1026.75 1003.02 1025.71
  Q 1018.57 1022.03 1019.47 1021.74
  C 1023.75 1020.37 1030.19 1019.51 1034.81 1017.80
  Q 1035.53 1017.54 1037.51 1017.38
  C 1040.16 1017.17 1043.37 1015.66 1045.47 1015.44
  Q 1047.48 1015.23 1050.99 1014.16
  Q 1051.60 1013.98 1056.56 1012.88
  Q 1068.61 1010.20 1078.03 1007.62
  Q 1079.40 1007.24 1081.26 1006.81
  Q 1131.55 995.14 1134.98 994.44
  C 1141.64 993.09 1150.86 992.25 1152.84 1000.82
  C 1155.38 1011.87 1143.35 1017.44 1134.68 1020.64
  Q 1121.47 1025.54 1109.67 1029.93
  A 1.77 1.76 11.6 0 0 1109.01 1030.36
  Q 1108.93 1030.44 1108.90 1030.49
  A 0.34 0.31 -73.8 0 1 1108.70 1030.61
  Q 1104.12 1031.44 1100.68 1033.47
  A 2.77 2.76 -64.5 0 1 1099.67 1033.83
  Q 1096.54 1034.25 1094.76 1035.54
  A 1.16 1.16 0.0 0 1 1094.13 1035.77
  Q 1093.05 1035.85 1081.99 1039.80
  C 1078.75 1040.96 1075.15 1041.76 1071.95 1043.53
  A 2.45 2.40 26.2 0 1 1071.07 1043.82
  Q 1067.90 1044.24 1064.43 1045.95
  A 1.22 1.22 0.0 0 1 1063.86 1046.07
  Q 1063.12 1046.04 1061.00 1046.87
  Q 1056.66 1048.58 1055.07 1049.46
  A 2.56 2.56 0.0 0 1 1053.87 1049.78
  Q 1051.17 1049.86 1048.19 1051.40
  A 4.86 4.53 22.2 0 1 1047.11 1051.81
  Q 1041.58 1053.15 1037.83 1054.56
  Q 1032.70 1056.49 1028.67 1057.67
  Q 1024.93 1058.75 1012.70 1062.73
  Q 1007.82 1064.31 1003.73 1062.35
  Q 996.94 1059.08 994.42 1058.93
  C 987.98 1058.53 984.41 1065.42 989.89 1069.92
  A 7.17 0.14 39.5 0 1 990.66 1070.55
  Z"
/>
<path fill="#1a232a" d="
  M 1620.22 1025.48
  Q 1620.21 1025.50 1620.13 1025.72
  A 0.81 0.64 83.4 0 1 1620.00 1025.93
  L 1597.53 1050.58
  A 1.13 1.12 48.4 0 0 1597.45 1051.99
  L 1620.87 1084.43
  A 0.95 0.95 0.0 0 1 1620.10 1085.94
  L 1606.60 1085.94
  A 1.62 1.60 -17.7 0 1 1605.29 1085.27
  L 1588.16 1061.54
  A 0.79 0.79 0.0 0 0 1586.93 1061.47
  L 1581.88 1067.03
  A 2.19 2.17 66.2 0 0 1581.32 1068.49
  L 1581.32 1084.85
  A 0.91 0.91 0.0 0 1 1580.41 1085.76
  L 1567.89 1085.76
  A 0.86 0.86 0.0 0 1 1567.03 1084.90
  L 1567.03 1004.68
  A 0.65 0.65 0.0 0 1 1567.68 1004.03
  L 1580.20 1004.03
  A 1.07 1.07 0.0 0 1 1581.28 1005.10
  L 1581.28 1047.41
  A 0.70 0.69 66.1 0 0 1582.49 1047.88
  L 1602.89 1025.41
  A 1.45 1.42 -69.4 0 1 1603.90 1024.94
  L 1619.54 1024.38
  A 0.74 0.74 0.0 0 1 1620.22 1025.48
  Z"
/>
<path fill="#1a232a" d="
  M 1408.54 1042.58
  A 0.53 0.53 0.0 0 0 1408.67 1043.50
  Q 1418.50 1047.39 1421.18 1055.79
  Q 1423.92 1064.36 1420.11 1072.97
  C 1416.04 1082.16 1406.42 1085.66 1396.51 1085.74
  Q 1377.00 1085.90 1363.47 1085.81
  A 1.05 1.05 0.0 0 1 1362.43 1084.76
  L 1362.43 1006.29
  A 1.34 1.34 0.0 0 1 1363.75 1004.95
  Q 1375.87 1004.79 1392.63 1004.93
  Q 1401.23 1005.00 1405.22 1006.57
  C 1413.94 1009.99 1419.73 1017.63 1419.08 1027.09
  C 1418.70 1032.68 1416.04 1037.90 1411.27 1040.78
  Q 1409.57 1041.80 1408.54 1042.58
  Z
  M 1376.92 1018.69
  L 1377.18 1037.35
  A 1.15 1.15 0.0 0 0 1378.35 1038.48
  L 1392.58 1038.28
  A 12.78 10.21 -0.8 0 0 1405.21 1027.89
  L 1405.20 1027.35
  A 12.78 10.21 -0.8 0 0 1392.28 1017.32
  L 1378.05 1017.52
  A 1.15 1.15 0.0 0 0 1376.92 1018.69
  Z
  M 1377.07 1052.63
  L 1377.03 1071.39
  A 1.85 1.85 0.0 0 0 1378.88 1073.25
  L 1395.61 1073.28
  A 12.00 11.06 0.1 0 0 1407.63 1062.24
  L 1407.63 1061.90
  A 12.00 11.06 0.1 0 0 1395.65 1050.82
  L 1378.92 1050.79
  A 1.85 1.85 0.0 0 0 1377.07 1052.63
  Z"
/>
<path fill="#ffffff" d="
  M 1376.92 1018.69
  A 1.15 1.15 0.0 0 1 1378.05 1017.52
  L 1392.28 1017.32
  A 12.78 10.21 -0.8 0 1 1405.20 1027.35
  L 1405.21 1027.89
  A 12.78 10.21 -0.8 0 1 1392.58 1038.28
  L 1378.35 1038.48
  A 1.15 1.15 0.0 0 1 1377.18 1037.35
  L 1376.92 1018.69
  Z"
/>
<path fill="#1a232a" d="
  M 1461.0151 1024.3139
  A 31.52 28.79 -89.1 0 1 1489.3064 1056.2822
  A 31.52 28.79 -89.1 0 1 1460.0249 1087.3461
  A 31.52 28.79 -89.1 0 1 1431.7336 1055.3778
  A 31.52 28.79 -89.1 0 1 1461.0151 1024.3139
  Z
  M 1460.6946 1036.1500
  A 19.80 14.81 -89.9 0 0 1445.8500 1055.9242
  A 19.80 14.81 -89.9 0 0 1460.6254 1075.7500
  A 19.80 14.81 -89.9 0 0 1475.4700 1055.9758
  A 19.80 14.81 -89.9 0 0 1460.6946 1036.1500
  Z"
/>
<path fill="#1a232a" d="
  M 1526.0999 1024.3469
  A 31.52 28.86 -91.2 0 1 1555.6137 1055.2556
  A 31.52 28.86 -91.2 0 1 1527.4201 1087.3731
  A 31.52 28.86 -91.2 0 1 1497.9063 1056.4644
  A 31.52 28.86 -91.2 0 1 1526.0999 1024.3469
  Z
  M 1526.9189 1036.2201
  A 19.75 14.80 -89.8 0 0 1512.0501 1055.9183
  A 19.75 14.80 -89.8 0 0 1526.7811 1075.7199
  A 19.75 14.80 -89.8 0 0 1541.6499 1056.0217
  A 19.75 14.80 -89.8 0 0 1526.9189 1036.2201
  Z"
/>
<ellipse fill="#ffffff" cx="0.00" cy="0.00" transform="translate(1460.66,1055.95) rotate(-89.9)" rx="19.80" ry="14.81"/>
<ellipse fill="#ffffff" cx="0.00" cy="0.00" transform="translate(1526.85,1055.97) rotate(-89.8)" rx="19.75" ry="14.80"/>
<path fill="#ffffff" d="
  M 1377.07 1052.63
  A 1.85 1.85 0.0 0 1 1378.92 1050.79
  L 1395.65 1050.82
  A 12.00 11.06 0.1 0 1 1407.63 1061.90
  L 1407.63 1062.24
  A 12.00 11.06 0.1 0 1 1395.61 1073.28
  L 1378.88 1073.25
  A 1.85 1.85 0.0 0 1 1377.03 1071.39
  L 1377.07 1052.63
  Z"
/>
</svg>
