<?xml version="1.0" encoding="UTF-8"?>
<!DOCTYPE svg PUBLIC "-//W3C//DTD SVG 1.1//EN" "http://www.w3.org/Graphics/SVG/1.1/DTD/svg11.dtd">
<!-- Creator: CorelDRAW 2021 (64-Bit) -->
<svg xmlns="http://www.w3.org/2000/svg" xml:space="preserve" width="338.667mm" height="338.667mm" version="1.1" style="shape-rendering:geometricPrecision; text-rendering:geometricPrecision; image-rendering:optimizeQuality; fill-rule:evenodd; clip-rule:evenodd"
viewBox="0 0 33866.66 33866.66"
 xmlns:xlink="http://www.w3.org/1999/xlink"
 xmlns:xodm="http://www.corel.com/coreldraw/odm/2003">
 <defs>
  <style type="text/css">
   <![CDATA[
    .fil2 {fill:#030506;fill-rule:nonzero}
    .fil1 {fill:#171F27;fill-rule:nonzero}
    .fil3 {fill:#F5DFC6;fill-rule:nonzero}
    .fil0 {fill:#FFEFE0;fill-rule:nonzero}
    .fil4 {fill:white;fill-rule:nonzero}
   ]]>
  </style>
 </defs>
 <g id="Layer_x0020_1">
  <metadata id="CorelCorpID_0Corel-Layer"/>
  <g id="_1937388242624">
   <path class="fil0" d="M12868.37 27787.58c-232.35,15.75 -500.38,22.78 -804.08,21.07 -47.64,-0.18 -87.53,-3 -119.69,-8.49 -14.59,-2.71 -25.91,-11.37 -30.34,-22.87 -11.13,-27.23 -27.45,-52.42 -48.95,-75.54 -34.98,-192.22 -55.48,-387.94 -61.51,-587.18 0,-0.1 0,-0.19 0,-0.28 0,-1.32 1.18,-2.42 2.72,-2.55l834.82 -129.25c1.29,-0.21 2.59,-0.32 3.89,-0.32 9.81,0 18.33,5.77 20.55,13.92l202.59 791.49z"/>
   <path class="fil0" d="M10132.17 7903.35c158.63,4.28 314.27,8.65 466.91,13.1 386.82,10.97 755.93,-35.29 1107.29,-138.76 13.96,-4.52 29.46,3.49 34.31,18.09 57.82,187.7 105.92,383.99 144.28,588.88 39.33,210.46 47.54,422.72 69.13,649.62 4.63,48.57 28.27,121.81 54.74,173.46 140.14,272.56 236.66,447.48 289.6,524.74 160.01,234.35 241.64,354.01 244.9,358.99 86.85,137.99 85.57,250.8 -97.14,289.61 -121.12,25.86 -254.05,42.56 -398.82,50.1 -77.09,4.11 -120.09,44.29 -128.99,120.52 -11.99,102.79 -29.64,260.49 -52.94,473.08 -1.42,13.17 -12.54,23.16 -25.79,23.16 -0.4,0 -0.79,-0.01 -1.18,-0.02 -248.24,-8.57 -474.81,-87.64 -679.7,-237.19 -15.8,-11.49 -34.85,-17.68 -54.39,-17.68 -29.32,0 -56.91,13.9 -74.34,37.46l-4.9 6.43c-27.94,37.34 -23.33,90.43 11.1,122.65 28.58,26.5 86.47,61.09 173.67,103.75 193.92,94.73 396.24,148.27 606.96,160.6 8.11,0.36 14.48,7.04 14.48,15.14 0,0.52 -0.02,1.04 -0.08,1.56 -21.42,207.63 -71.79,411.08 -151.12,610.32 -155.38,390.93 -449.26,570.56 -881.66,538.85 -259.71,-19.18 -555.83,-62.86 -888.35,-131.04 -1.11,-0.23 -2.4,-0.48 -3.68,-0.68 -43.17,-6.84 -83.74,22.74 -90.59,66.04 -0.21,1.28 -0.38,2.6 -0.53,3.88l-0.53 7.33c-4.03,52.55 33.51,100.62 86.61,109.53l291.64 45.69c8.67,1.33 15.07,8.76 15.07,17.53 0,1.28 -0.14,2.55 -0.41,3.8 -116.84,521.82 -237.53,1000.13 -362.09,1434.92 -63.2,221.51 -118.97,301.69 -364.12,283.7 -798.93,-58.33 -1515.11,-522.93 -2051.15,-1082.88 -84.63,-88.4 -158.55,-186.3 -221.76,-293.72 -9.18,-15.77 -14.04,-33.73 -14.04,-51.99 0,-14.01 2.87,-27.92 8.4,-40.78 133.09,-306.14 247.53,-632.49 343.3,-979.05 35.63,-129.17 62.27,-263.06 79.92,-401.65 1.37,-11.83 10.12,-21.51 21.84,-24.15 175.51,-39.07 319.92,-126.44 438.9,-264.18 151.62,-175.25 254.32,-375.26 308.11,-600.02 2.03,-8.45 9.58,-14.4 18.25,-14.4 3.15,0 6.25,0.8 9,2.3 117,63.74 238.63,98.61 364.89,104.6 62.19,2.83 229.74,5.91 238.47,-75.54 7.71,-71.96 -26.89,-109.3 -103.81,-112.04 -224.6,-7.97 -420.93,-27.76 -568.69,-195.56 -188.09,-213.55 -302.45,-524.23 -257.74,-819.75 31.09,-206.6 194.53,-417.57 408.59,-445.58 278.29,-36.5 551.72,145.19 653.73,396.5 2.4,6.01 24.85,64.59 67.33,175.77 49.86,130.29 170.11,41.63 230.51,-24.92 171.82,-189.98 312.73,-389.49 422.72,-598.48 160.09,-303.75 226.12,-621.11 236.15,-964.68 0.02,-0.1 0.02,-0.11 0.02,-0.11 0.34,-9.64 8.31,-17.19 17.81,-16.85 0,0 0.01,0 0.01,0l-0.1 0zm1207.09 1045.88c-94.82,-1.66 -175,94.76 -177.11,215.35 0,0 0,0 0,0 0,0 0,0 0,0 -2.11,120.6 74.64,219.77 171.4,221.46 96.76,1.69 176.95,-94.73 179.06,-215.32 0,0 0,0 0,0 0,0 0,0 0,0 2.1,-120.6 -74.65,-219.77 -171.41,-221.46l-1.94 -0.03z"/>
   <path class="fil0" d="M21977.28 8147.47c6.51,0.18 10.79,2.66 12.85,7.45 379.54,881.42 1171.28,1584.75 2037.27,1970.46 52.43,23.48 100.74,23.56 144.93,0.26 7.55,-3.86 13.81,-9.85 18,-17.22 100.73,-174.74 219.7,-316.07 405.23,-393.41 157.02,-65.54 343.83,-52.43 479,63.2 78.64,66.99 130.55,139.8 155.73,218.43 105.36,328.59 43.25,616.22 -186.31,862.91 -134.13,143.9 -298.26,194.1 -492.36,150.59 -24.32,-5.49 -46.08,-1.29 -65.26,12.59 -71.7,52.68 -33.93,137.22 33.4,170.11 108.45,53.2 250.55,23.65 361.57,3.86 10.21,-2.08 21.09,1.98 27.82,10.56 271.13,355.64 601.07,644.03 989.78,865.19 22.66,13.23 36.01,37.41 35.2,63.21 -2.74,104.51 4.37,201.14 21.34,289.88 55.67,289.69 141.32,544.36 256.96,763.98 76.92,146.13 186.65,262.02 329.19,347.69 12.16,7.37 16.29,23 9.46,35.53 -20.53,37.63 -47.5,75.99 -80.9,115.05 -431.54,507.43 -950.96,907.27 -1558.28,1199.54 -258.01,124.37 -843.38,304.25 -1012.47,-47.03 -28.53,-59.1 -56.53,-129.77 -61.93,-197.6 -11.13,-143.9 -14.81,-253.12 -11.05,-327.64 10.79,-220.74 18.24,-385.46 -39.58,-583.34 -52.07,-177.81 -136.18,-453.64 -252.34,-827.44 -3.09,-9.59 -8.13,-34.52 -15.16,-74.78 -2.16,-10.66 0.91,-22.21 8.39,-30.72 24.24,-27.35 56.36,-70.53 39.92,-104.96 -24.67,-51.91 -64.5,-73.16 -119.5,-63.73 -265.19,45.91 -504.77,71.27 -718.75,76.06 -434.54,10.02 -740.08,-139.02 -891.43,-566.11 -53.79,-151.95 -93.02,-313.07 -117.69,-483.36 -0.02,-0.13 -0.04,-0.25 -0.05,-0.38 -0.67,-6.34 3.83,-12.03 10.03,-12.68 0.19,-0.01 0.37,-0.03 0.55,-0.04 211.23,-14.39 416.9,-60.14 616.99,-137.23 56.03,-21.59 205.07,-99.97 184.51,-178.85 -21.84,-83.77 -101.5,-56.79 -161.12,-31.35 -222.2,95.77 -446.02,153.75 -671.47,173.97 -9.11,0.76 -17.15,-5.47 -18.53,-14.25 -20.71,-129.61 -42.37,-279.21 -64.98,-448.81 -7.88,-59.28 -39.84,-93.45 -95.85,-102.53 -6.68,-1.04 -92.17,-16.28 -256.47,-45.75 -88.91,-15.93 -336.11,-67.84 -224.07,-211.23 134.82,-172.34 217.65,-279.92 248.49,-322.75 134.31,-186.22 242.75,-379.73 325.32,-580.51 82.24,-199.92 77.87,-410.64 96.37,-644.23 26.04,-331.83 111.79,-647.4 257.23,-946.68 2.06,-4.11 5.39,-6.08 10.02,-5.91zm222.98 1394.59c-93.89,-0.01 -171.58,96.07 -171.58,214.55 0,0 0,0 0,0 0,0 0,0 0,0 0,118.5 77.66,214.59 173.44,214.59 95.78,0 173.47,-96.08 173.47,-214.56 0,0 0,0 0,0 0,0 0,0 0,0 0,-118.5 -77.66,-214.59 -173.44,-214.59l-1.89 0.01z"/>
   <ellipse class="fil1" transform="matrix(0.0101706 -1.16543 1.16543 0.0101706 11337.4 9167.65)" rx="187.41" ry="150.37"/>
   <ellipse class="fil1" transform="matrix(-0.0101706 -1.16543 1.16543 -0.0101706 22202.1 9756.63)" rx="184.1" ry="148.83"/>
   <path class="fil2" d="M28039.25 22114.92c-50.37,400.37 -122.06,853.4 -168.06,1197.5 -125.57,942.05 -285.42,1947.33 -479.52,3015.81 -32.37,177.83 -62.86,361.56 -91.47,551.2 -1.01,6.81 3.47,13.29 10.18,14.62l1672.21 332.56c2.01,0.38 4.09,0.59 6.14,0.59 14.42,0 27.02,-9.76 30.61,-23.73 30.15,-118.54 179.62,-647.74 448.41,-1587.57 126.44,-442.5 278.13,-1004.15 455.1,-1684.95 174.05,-670.19 289.79,-1284.35 347.17,-1842.5 40.34,-394.2 39.83,-763.2 39.31,-1263.53 0,-176.53 -18.23,-506.75 -29.03,-817.69 -9.76,-272.73 -38.71,-756.86 -86.86,-1452.39 -52.94,-766.29 -140.56,-1550.58 -316.85,-2279.61 -37.85,-156.07 -90.96,-323.43 -159.32,-502.12 -199.67,-521.65 -559.17,-928.43 -1026.6,-1240.4 -208.65,-139.45 -397.79,-250.2 -567.39,-332.27 -423.84,-204.89 -885.53,-392.23 -1385.08,-561.99 -1.98,-0.68 -4.07,-1.01 -6.16,-1.01 -6.72,0 -12.96,3.49 -16.46,9.24 -58.24,96.27 -125.74,186.64 -202.49,271.09 -459.63,505.39 -1009.29,900.18 -1648.99,1184.39 -238.47,105.88 -579.72,175.77 -817.16,83 -456.65,-178.34 -396.25,-671.47 -374.93,-1054.61 0,-0.22 0.01,-0.44 0.01,-0.66 0,-7.24 -5.86,-13.1 -13.1,-13.1 -1.86,0 -3.71,0.39 -5.4,1.16 -293.21,138.78 -568.43,333.82 -822.32,537.85 -380.83,305.8 -709.24,712.84 -859.32,1170.24 -285.06,868.58 -731.08,2264.1 -1338.05,4186.59 -17.98,56.88 -57.05,101.6 -117.18,134.15 -279.92,150.93 -602.51,314.19 -967.75,489.78 -614.34,295.18 -1235.01,581.19 -1862.02,858.04 -0.41,0.17 -0.77,0.36 -1.13,0.58 -5.22,3.13 -6.85,10.02 -3.65,15.37 0.21,0.35 0.45,0.7 0.69,1.03 405.74,516.23 642.15,1154.8 757.78,1799.54 1.48,8.64 8.98,14.96 17.74,14.96 2.1,0 4.2,-0.38 6.17,-1.09 878.33,-318.37 1440.83,-514.44 2154.19,-808.16 589.5,-242.84 1085.19,-474.63 1577.3,-819.49 97.9,-68.61 220.22,-164.72 293.71,-263.65 42.15,-56.54 21.07,-111.53 7.19,-199.93 -99.18,-635.92 -214.56,-1292.91 -346.13,-1970.96 -55.34,-285.59 -85.67,-489.54 -90.97,-611.86 -18.33,-424.86 11.82,-850.92 90.45,-1278.18 44.89,-243.78 94.31,-498.36 148.28,-763.71 12.16,-60.65 27.84,-105.2 47.02,-133.64 16.27,-23.11 42.64,-34.17 67.1,-28.56 32.53,6.71 52.56,29.68 60.1,68.91 0.98,4.72 1.32,10.27 0.87,15.72 -3.33,37.32 -9.43,77.47 -18.34,120.48 -116.15,565.08 -233.07,1138.89 -238.73,1716.82 -2.92,289.53 29.89,598.5 98.42,926.91 131.23,629.91 241.99,1243.74 332.27,1841.45 35.29,232.99 56.79,413.47 64.5,541.44 24.67,409.87 11.81,741.11 -16.19,1071.57 -89.77,1067.47 -171.75,2055.35 -245.92,2963.67 -7.54,90.62 -12.09,169.68 -13.62,237.18 -0.42,15.07 10.07,28.32 24.97,31.61 102.24,21.92 199.96,35.03 293.16,39.31 1411.29,65.01 2766.29,58.08 4152.92,20.82 -92.16,37.18 -192.73,54.65 -301.68,52.42 -70.58,-1.37 -106.48,-2.06 -107.68,-2.06 -960.56,9.43 -1917.69,9.86 -2871.4,1.29 -98,-0.86 -191.11,-4.54 -279.33,-11.05 -187.07,-13.88 -321.73,-6.17 -493.38,-24.16 -43.69,-4.62 -114.78,-7.44 -213.29,-8.48 -19.36,-0.17 -82.66,-13.44 -189.9,-39.83 -8.54,-2.02 -16.07,-6.85 -21.36,-13.68 -21.91,-27.36 -31.41,-56.13 -28.5,-86.28 14.39,-154.53 19.87,-270.76 16.45,-348.71 -0.67,-10.88 0.51,-23.85 3.54,-36.29 31.92,-118.92 18.56,-247.41 41.69,-373.58 11.3,-61.85 13.45,-128.92 6.42,-201.22 -2.21,-21.91 -0.54,-44.14 4.89,-65.53 30.83,-124.1 20.3,-253.62 39.32,-377.22 9.93,-64.75 12.41,-123.26 7.44,-175.51 -1.02,-12.39 -0.16,-23.41 2.37,-34.1 19.66,-90.85 28.38,-191.44 26.15,-301.77 -0.11,-15.89 1.51,-31.08 4.79,-45.92 14.12,-63.26 20.14,-124.45 18.09,-183.55 -3.86,-112.82 35.2,-241.81 31.61,-367.22 -0.63,-14.48 0.56,-32.48 3.72,-50.09 14.31,-75.56 20.43,-136.56 18.38,-182.98 -2.58,-63.21 1.97,-122.4 13.61,-177.57 8.23,-39.23 12.6,-115.72 13.11,-229.47 0.07,-10.35 0.86,-20.32 2.29,-30.2 17.66,-125.49 25.72,-205.1 24.18,-238.85 -3.6,-76.06 -4.8,-133.54 -3.6,-172.42 5.14,-163.44 1.02,-330.22 4.37,-462.82 2.05,-75.2 -4.02,-173.97 -18.24,-296.28 -92.52,-792.25 -226.14,-1505.6 -407.05,-2395.49 -36.49,-179.88 -68.35,-438.4 -67.84,-649.37 0.52,-249.52 -9.76,-376.98 14.38,-559.69 11.06,-85.06 11.32,-170.37 24.93,-255.17 51.91,-323.96 111.11,-646.89 177.58,-968.78 13.35,-64.77 32.89,-173.2 7.44,-234.37 -2.71,-6.32 -8.94,-10.43 -15.82,-10.43 -7.09,0 -13.46,4.35 -16.04,10.96 -20.38,52.58 -41.89,129.42 -64.5,230.49 -116.15,520.97 -191.61,1031.92 -226.39,1532.84 -15.17,221.77 21.33,446.36 48.31,673.26 7.36,62.02 17.74,128.24 31.09,198.65 59.62,318.64 83.26,478.47 133.62,721.31 82.75,398.32 152.13,867.28 234.37,1371.21 22.35,136.97 17.98,216.89 -84.54,309.39 -89.43,80.86 -159.76,139.02 -210.98,174.48 -131.83,91.23 -239.24,178.86 -358.99,245.68 -165.15,92.34 -285.93,157.25 -362.34,194.78 -395.05,194.61 -809.2,376.11 -1242.45,544.53 -318.65,123.85 -623.84,240.08 -915.59,348.69 -173.2,64.42 -270.51,99.55 -291.92,105.36 -60.64,16.62 -157.78,51.48 -291.41,104.59 -97.99,38.9 -205.75,73.84 -323.26,104.85 -2.99,0.77 -6.08,1.18 -9.18,1.18 -17.15,0 -31.93,-12.12 -35.28,-28.95 -27.07,-137.21 -50.46,-250.44 -70.16,-339.69 -2.91,-12.68 -28.77,-99.97 -77.61,-261.86 -96.28,-319.16 -224.93,-612.45 -385.97,-879.87 -69.89,-115.99 -140.65,-212.01 -212.26,-288.07 -30.32,-32.04 -36.06,-61.17 -17.21,-87.37 11.99,-16.97 38.8,-32.9 80.43,-47.8 70.07,-25.18 120.09,-44.45 150.08,-57.81 793.69,-353.26 1581.31,-724.15 2362.84,-1112.7 68.53,-34.09 135.95,-69.63 202.25,-106.64 134.39,-74.77 166.26,-181.42 216.37,-339.71 304.6,-961.94 562.68,-1774.22 774.25,-2436.87 279.93,-877.12 447.22,-1394.25 501.87,-1551.34 160.6,-462.55 451.24,-830.28 815.37,-1143.52 280.61,-241.56 574.67,-436.51 882.18,-584.88 4.41,-2.2 9.22,-3.52 14.13,-3.85l40.09 -2.31c0.35,-0.02 0.7,-0.04 1.04,-0.04 8.94,0 16.19,7.25 16.19,16.19 0,0.01 0,0.03 0,0.04 -1.04,268.54 -26.73,547.61 80.94,787.87 184.25,411.67 758.32,314.8 1082.37,170.9 417.15,-185.37 806.29,-428.47 1167.42,-729.29 58.93,-49.17 131.14,-118.12 216.62,-206.86 152.39,-158.3 310.68,-298.35 416.3,-484.91 15.7,-27.56 48.27,-40.1 77.93,-30.21 340.87,111.11 691.61,243.84 1052.23,398.19 297.06,127.29 579.22,277.87 846.47,451.76 94.9,61.68 176.45,121.89 244.63,180.65 98.68,85.06 219.97,169.34 310.68,261.6 283.7,289.18 487.91,628.29 612.63,1017.35 120.26,374.67 211.23,773.57 272.9,1196.71 63.91,439.26 105.27,825.74 124.12,1159.47 5.39,98.15 29.04,208.65 30.58,326.6 0.85,63.9 7.54,130.98 20.04,201.21 4.34,26.11 5.84,47.45 5.32,68.56 -0.29,113.61 0.42,179.08 2.13,196.39 24.93,241.54 13.63,398.81 37.78,619.04 6.67,61.84 9.17,145.27 7.45,250.29 -2.32,139.27 25.18,244.89 27.24,380.83 2.92,207.98 7.45,361.3 13.61,459.98 14.4,233.84 17.57,392.49 9.51,475.91 -21.07,214.32 -17.47,462.56 -37.26,675.07 -53.44,579.04 -153.23,1159.12 -299.36,1740.21 -190.16,756.35 -382.21,1472.44 -576.13,2148.28 -184.35,642.6 -318.05,1114.67 -401.14,1416.18 -4.09,14.53 -17.35,24.23 -32.09,23.62 -59.4,-2.04 -115.92,-5.12 -177.34,-18.74 -471.98,-103.98 -980.78,-205.4 -1526.42,-304.25 -18.92,-3.47 -32.89,-19.6 -33.66,-38.82 -3.42,-91.48 4.45,-190.31 23.64,-296.53 78.38,-436.59 212.01,-1140.19 302.46,-1722.49 142.88,-921.24 269.31,-1854.82 399.33,-2760.39 1.38,-9.42 6.85,-13.96 16.45,-13.61 8.22,0.16 14.47,4.45 18.76,12.84z"/>
   <path class="fil3" d="M28039.25 22114.92c8.05,-94.74 6.25,-189.21 -5.4,-283.44 -39.4,-315.73 -99.62,-784.53 -180.65,-1406.41 -70.41,-538.87 -166.01,-1085.7 -235.13,-1560.33 -59.28,-407.04 -130.97,-883.81 -215.09,-1430.3 -6.06,-39.52 -40.05,-68.69 -80.01,-68.69 -6.2,0 -12.38,0.72 -18.41,2.12l-3.59 0.78c-47.67,11 -78.85,57.08 -71.22,105.44 77.63,486.13 127.4,801.42 149.34,945.83 71.6,470.09 118.89,774.86 141.85,914.31 130.8,794.55 233.58,1616.1 330.2,2362.09 24.42,187.84 19.53,378.25 -8.22,590.78 -166.26,1268.92 -336.89,2495.96 -565.08,3720.94 -2.31,12.61 -13.26,22.05 -26.33,22.6l-344.48 12.1c-1386.63,37.26 -2741.63,44.19 -4152.92,-20.82 -93.2,-4.28 -190.93,-17.39 -293.2,-39.31 -14.86,-3.29 -25.35,-16.54 -24.93,-31.56 1.53,-67.53 6.08,-146.61 13.62,-237.23 74.17,-908.32 156.15,-1896.2 245.92,-2963.67 28,-330.46 40.86,-661.7 16.19,-1071.57 -7.71,-127.97 -29.21,-308.45 -64.5,-541.44 -90.28,-597.71 -201.04,-1211.54 -332.27,-1841.45 -68.53,-328.41 -101.33,-637.38 -98.42,-926.91 5.66,-577.93 122.58,-1151.74 238.73,-1716.82 8.91,-43.01 14.99,-82.92 18.24,-119.75 0.55,-6.18 0.21,-11.73 -0.87,-17.17 -7.47,-38.75 -27.74,-61.55 -60.8,-68.4 -23.66,-5.4 -50.03,5.66 -65.85,28.18 -19.49,28.83 -35.31,73.58 -47.47,134.23 -53.97,265.37 -103.39,519.93 -148.28,763.71 -78.63,427.26 -108.78,853.32 -90.45,1278.18 5.32,122.32 35.63,326.27 90.97,611.86 131.57,678.06 246.95,1335.04 346.13,1970.96 13.88,88.4 34.96,143.39 -7.19,199.93 -73.49,98.93 -195.81,195.04 -293.71,263.65 -492.11,344.86 -987.8,576.65 -1577.3,819.49 -713.36,293.72 -1275.86,489.79 -2154.19,808.17 -1.97,0.7 -4.07,1.08 -6.17,1.08 -8.76,0 -16.26,-6.32 -17.72,-14.97 -115.65,-644.73 -352.06,-1283.3 -757.82,-1799.56 -0.22,-0.3 -0.46,-0.65 -0.67,-1 -3.2,-5.35 -1.57,-12.24 3.65,-15.37 0.36,-0.22 0.72,-0.41 1.1,-0.58 627.02,-276.85 1247.71,-562.86 1862.05,-858.04 365.24,-175.59 687.83,-338.85 967.75,-489.78 60.13,-32.55 99.2,-77.27 117.18,-134.15 606.97,-1922.49 1052.99,-3318.01 1338.05,-4186.59 150.08,-457.4 478.49,-864.44 859.32,-1170.24 253.89,-204.03 529.11,-399.07 822.31,-537.85 1.7,-0.77 3.55,-1.16 5.41,-1.16 7.24,0 13.1,5.86 13.1,13.1 0,0.22 -0.01,0.44 -0.01,0.65 -21.32,383.15 -81.72,876.28 374.93,1054.62 237.44,92.77 578.69,22.88 817.16,-83 639.7,-284.21 1189.36,-679 1648.99,-1184.39 76.75,-84.45 144.25,-174.82 202.49,-271.1 3.5,-5.74 9.74,-9.23 16.46,-9.23 2.09,0 4.18,0.33 6.16,1.01 499.55,169.78 961.24,357.1 1385.08,561.99 169.6,82.07 358.74,192.82 567.39,332.27 467.43,311.97 826.93,718.75 1026.6,1240.4 68.36,178.68 121.47,346.06 159.32,502.12 176.29,729.03 263.91,1513.32 316.85,2279.61 48.15,695.53 77.1,1179.66 86.86,1452.39 10.8,310.94 29.03,641.16 29.03,817.69 0.52,500.33 1.03,869.33 -39.31,1263.53 -57.38,558.15 -173.12,1172.31 -347.17,1842.5 -176.97,680.8 -328.66,1242.46 -455.1,1684.95 -268.79,939.83 -418.26,1469.03 -448.41,1587.58 -3.59,13.96 -16.19,23.72 -30.61,23.72 -2.05,0 -4.13,-0.21 -6.13,-0.6l-1672.12 -332.51c-6.81,-1.37 -11.29,-7.85 -10.26,-14.76 28.59,-189.58 59.08,-373.27 91.45,-551.1 194.1,-1068.48 353.95,-2073.76 479.52,-3015.81 46,-344.1 117.69,-797.13 168.06,-1197.5z"/>
   <path class="fil4" d="M11584.31 21115.05c0.86,0.18 1.73,0.29 2.61,0.29 6.09,0 11.05,-4.96 11.05,-11.05 0,-0.27 -0.02,-0.55 -0.04,-0.83 -38.03,-589.22 -21.33,-1245.27 -21.33,-2528.33 0,-186.56 -3.17,-353.84 -9.51,-501.86 -11.64,-275.82 -17.21,-443.45 -16.7,-502.9 0.69,-95.93 -2.4,-188.87 -9.25,-278.81 -17.47,-229.99 -11.05,-389.31 -30.06,-611.34 -13.63,-161.11 -11.32,-315.05 -26.74,-472.56 -0.84,-8.57 0.63,-17.31 4.3,-25.05 18.56,-37.44 47.1,-53.25 85.64,-47.42 27.12,4.39 47.05,27.33 48.38,55.08 18.98,313.95 37.37,679.6 55.19,1096.92 40.86,959.79 34.69,1868.44 34.18,2803.31 -0.17,398.81 6.94,744.27 21.33,1036.36 0.59,15.85 11.87,29.93 27.7,34.02l762.74 183.89c22.52,5.42 38.38,25.56 38.38,48.71 0,10.88 -3.56,21.48 -10.11,30.17l-5.15 6.7c-19.36,26.68 -50.39,42.51 -83.39,42.51 -8.25,0 -16.5,-0.99 -24.52,-2.96 -1308.25,-319.91 -2710.3,-661.93 -4049.89,-1018.87 -174.74,-46.52 -209.69,-151.87 -255.42,-315.05 -238.47,-853.15 -563.12,-1995.64 -973.94,-3427.49 -10.25,-37.22 10.77,-74.99 47.09,-85.82l1.75 -0.52c-0.11,0.03 0.11,-0.04 0.33,-0.1 35.14,-10.75 72.4,9.15 83.18,44.43 0.06,0.18 0.12,0.39 0.18,0.56 388.93,1352.41 704.26,2460.5 945.98,3324.26 14.06,50.2 33.16,114.18 57.31,191.97 26.98,87.36 60.4,110.5 145.71,132.85 973.41,257.14 2021.08,523.45 3143.02,798.93z"/>
   <path class="fil2" d="M11398.52 23525.19c45.26,6.79 78.77,45.69 78.77,91.46 0,9.96 -1.61,19.86 -4.75,29.3l-0.27 0.53c-20.35,58.39 -78.97,92.26 -138.16,80.92 -88.75,-15.66 -186.14,-17.19 -286.1,-32.1 -118.04,-17.65 -216.29,-27.67 -294.75,-30.07 -69.38,-2.23 -125.82,-9.34 -169.34,-21.33 -39.92,-10.97 -156.15,-21.41 -348.71,-31.35 -8.69,-0.45 -18.09,-1.64 -27.32,-3.47 -115.25,-25.1 -224.68,-40.64 -328.33,-46.63 -15.23,-1.19 -28.53,-3.77 -41.27,-7.81 -136.56,-41.02 -288.69,-32.8 -423.34,-66.97 -22.96,-5.83 -84.8,-13.62 -185.53,-23.39 -54.47,-5.32 -115.72,-15.76 -183.74,-31.35 -71.43,-16.45 -147.5,-26.3 -228.19,-29.55 -0.68,0 -1.37,0 -2.05,0l-312.22 -53.96c-1.96,-0.44 -3.77,-0.89 -5.48,-1.4 -68.64,-23.91 -157.44,-39.81 -266.4,-47.69 -8.24,-0.61 -17.86,-2.19 -27.26,-4.66 -76.05,-20.88 -154.67,-35.08 -235.88,-42.62 -13.97,-1.3 -31.53,-4.82 -48.49,-10.36 -61.72,-20.84 -128.74,-33.66 -201.03,-38.47 -15.99,-1.28 -29.52,-3.53 -42.61,-6.89 -180.77,-45.6 -275.69,-69.34 -284.77,-71.23 -212.26,-46.59 -357.28,-83.93 -435.05,-112.03 -202.33,-73.67 -393.6,-178.17 -573.83,-313.51 -69.72,-52.25 -157.69,-139.36 -263.91,-261.34 -81.37,-93.53 -187.33,-248.83 -317.87,-465.89 -310.67,-517.55 -583.58,-1063.09 -854.68,-1615.32 -43.68,-88.74 -88.15,-183.31 -133.38,-283.7 -62.95,-140.05 -149.04,-298.34 -217.4,-458.19 -10.1,-23.81 -36.31,-81.97 -78.63,-174.48 -207.81,-454.84 -396.93,-892.98 -567.39,-1314.4 -37.77,-93.55 12.6,-161.39 112.81,-159.07 24.82,0.46 47.49,14.18 59.38,35.97 16.09,29.12 34.59,68.96 55.49,119.49 71.6,173.37 265.62,613.06 582.04,1319.05 77.94,174.22 163.09,356.49 255.43,546.83 15.42,31.61 26.73,75.03 44.46,110.75 86,171.65 227.93,455.79 425.8,852.38 37.26,74.77 82.74,137.99 111.01,211.23 6.35,16.44 20.3,45.23 41.88,86.34 68.71,130.03 191.54,349.65 368.5,658.88 128.32,224.42 266.23,407.47 413.72,549.15 119.42,114.95 275.91,213.02 469.49,294.23 130.55,54.99 236.16,77.34 382.13,117.95 84.11,23.47 143.21,37.34 177.3,41.63 71.7,8.99 142.37,37.26 235.91,54.22 141.85,25.52 253.28,48.4 334.32,68.61 69.89,17.47 130.11,29.81 180.64,37 85.57,12.34 156.25,38.8 241.31,42.92 46.42,2.22 96.28,9 149.55,20.3 168.83,35.72 439.93,65.52 659.14,106.9 199.41,37.51 375.34,62.27 527.82,74.26 96.79,7.54 176.96,17.31 240.52,29.3 254.91,47.8 516,72.98 751.9,96.36 82.74,8.23 159.84,30.84 255.69,39.32 131.91,11.83 256.28,26.46 373.12,43.95zm-7384.86 -5514.11l-2.57 1.54c-24.27,13.77 -39.29,39.56 -39.29,67.48 0,10.17 2.01,20.26 5.89,29.65 422.46,1018.47 863.68,1980.15 1323.66,2885.03 238.72,469.49 467.94,907.88 744.45,1299.25 250.8,355.47 587.95,591.89 1011.44,709.24 277.01,76.75 549.92,140.06 818.71,189.91 1150.55,212.77 2311.89,379.03 3484.02,498.77 2.5,0.26 5.02,0.39 7.52,0.39 35.07,0 65.08,-25.21 71.13,-59.75l0.5 -3.59c0.63,-3.59 0.96,-7.24 0.96,-10.89 0,-32.25 -24.38,-59.29 -56.46,-62.62 -943.09,-96.44 -1882.15,-222.69 -2817.18,-378.76 -360.28,-60.3 -759.18,-138.85 -1196.73,-235.65 -169.94,-37.69 -320.43,-81.53 -451.49,-131.57 -322.42,-123 -579.22,-326.6 -770.41,-610.81 -144.07,-214.32 -273.07,-426.41 -387,-636.27 -606.2,-1116.8 -1150.98,-2324.05 -1660.8,-3522.06 -9.49,-22.6 -31.63,-37.32 -56.14,-37.32 -10.6,0 -21.01,2.77 -30.2,8.02l-0.01 0.01z"/>
   <path class="fil4" d="M4013.66 18011.08c9.2,-5.26 19.61,-8.03 30.21,-8.03 24.51,0 46.65,14.72 56.15,37.32 509.81,1198.01 1054.59,2405.26 1660.79,3522.06 113.93,209.86 242.93,421.95 387,636.27 191.19,284.21 447.99,487.81 770.41,610.81 131.06,50.02 281.55,93.88 451.49,131.57 437.55,96.8 836.44,175.35 1196.73,235.65 935.03,156.07 1874.09,282.33 2817.17,378.77 32.09,3.32 56.47,30.36 56.47,62.61 0,3.65 -0.33,7.3 -0.95,10.87l-0.52 3.62c-6.04,34.53 -36.05,59.74 -71.12,59.74 -2.5,0 -5.02,-0.13 -7.52,-0.39 -1172.13,-119.74 -2333.47,-286 -3484.02,-498.77 -268.79,-49.85 -541.7,-113.16 -818.71,-189.91 -423.49,-117.35 -760.64,-353.77 -1011.44,-709.24 -276.51,-391.37 -505.73,-829.76 -744.45,-1299.25 -459.98,-904.88 -901.21,-1866.56 -1323.66,-2885.03 -3.88,-9.39 -5.89,-19.48 -5.89,-29.65 0,-27.92 15.02,-53.71 39.29,-67.49l2.57 -1.53z"/>
   <path class="fil0" d="M17570.99 21667.02c7.56,-3.48 16.29,-1.37 21.17,5.02 297.98,385.83 493.28,888.21 610.71,1361.3 2.27,8.62 -1.74,17.72 -9.66,21.8l-702.65 369.31c-20.85,10.63 -45.19,7.77 -62.27,-6.93 -539.94,-450.74 -1116.72,-864.89 -1730.38,-1242.47 -31.51,-19.36 -67.92,-30.92 -109.2,-34.69 -209.52,-19.18 -377.76,57.91 -504.7,231.28 -118.21,161.63 -227.68,330.97 -461.78,295.51 -22.34,-3.39 -38.87,-22.62 -38.87,-45.23 0,-0.85 0.03,-1.73 0.07,-2.58 10.8,-200.68 83,-387.24 127.2,-543.73 67.32,-239.25 176.03,-391.37 418.86,-473.6 260.31,-88.15 555.06,-178.6 804.58,-97.39 308.11,99.95 606.46,209.68 902.75,281.12 129.5,31.36 255.17,37.6 376.97,18.76 114.87,-17.73 216.63,-70.41 357.2,-137.48z"/>
   <path class="fil2" d="M22518.47 21646.2c-64.24,57.56 -110.85,97.14 -139.8,118.73 -338.86,253.54 -688.34,462.89 -1048.44,628.04 -909.94,417.58 -1863.57,744.18 -2894.8,1126.31 -170.62,63.21 -244.89,-75.05 -348.71,-174.74 -16.74,-16.11 -41.81,-19.73 -62.19,-9.01l-434.53 228.2c-8.62,4.59 -14,13.56 -14,23.33 0,3.82 0.84,7.61 2.43,11.09 176.28,376.99 -57.05,528.61 -375.43,599.79 -10.06,2.2 -17.96,10 -20.29,20.03 -23.82,96.63 -73.51,176.37 -149.06,239.25 -74,61.93 -231.79,145.96 -332.26,116.92 -15.42,-4.45 -25.86,-6.76 -31.35,-6.93 -8.5,-0.41 -16.52,4.65 -19.99,12.69 -106.25,240.97 -291.21,329.5 -554.85,265.6 -1.39,-0.33 -2.82,-0.5 -4.25,-0.5 -6.81,0 -13.08,3.74 -16.3,9.74 -147.51,277.55 -402.17,190.69 -637.31,114.88 -7.2,-2.35 -14.76,-3.55 -22.35,-3.55 -17.82,0 -35.02,6.57 -48.3,18.45 -214.33,192.22 -407.82,164.47 -591.3,-49.07 -7.78,-8.79 -18.29,-13.71 -29.27,-13.9 -38.9,-1.7 -72.07,-2.21 -99.47,-1.52 -184.25,5.14 -292.96,-96.63 -363.36,-255.95 -4.36,-10 -13.65,-17.35 -24.73,-19.5 -43.37,-7.74 -101.45,3.83 -143.08,-7.22 -140.82,-37.86 -241.38,-126.18 -301.68,-264.94 -9.77,-22.35 -14.65,-60.91 -25.96,-84.29 -3.95,-8.31 -11.61,-13.97 -20.43,-15.2 -139.15,-20.78 -252.47,-80.39 -321.08,-206.82 -58.07,-106.72 -59.88,-216.45 -5.39,-329.18 0.4,-0.89 0.64,-1.43 0.85,-1.98 5.29,-13.78 -1.7,-29.29 -15.61,-34.63 -0.5,-0.18 -1.01,-0.36 -1.52,-0.52l-133.29 -43.82c0,-0.02 -0.34,-0.12 -0.65,-0.21 -15.19,-4.65 -31.32,4.02 -36,19.34 -0.1,0.29 -0.18,0.59 -0.26,0.88 -16.28,65.31 -35.81,119.53 -105.45,116.95 -146.64,-4.96 -301.59,-6.59 -464.87,-4.88 -10.83,0.09 -19.58,8.93 -19.58,19.78 0,0.51 0.03,1.04 0.06,1.54 92.51,1220.63 173.29,2219.57 242.33,2996.82 7.19,80.69 -2.83,113.33 -79.15,138.26 -11.8,3.85 -19.8,14.89 -19.8,27.33 0,1.85 0.19,3.72 0.54,5.55 50.53,256.28 108,513.61 172.42,771.95 19.26,77.09 -48.07,139.27 -119.76,108.18 -28.95,-12.51 -46.94,-35.8 -53.96,-69.89l-172.69 -791.48c-1.87,-8.16 -9.13,-13.93 -17.5,-13.93 -1.11,0 -2.22,0.11 -3.29,0.3l-711.58 129.27c-1.31,0.13 -2.31,1.23 -2.31,2.55 0,0.09 0,0.18 0.01,0.27 5.13,199.24 22.6,394.97 52.41,587.19 22.79,112.38 -13.96,158.55 -110.24,138.51 -25.52,-5.32 -42.66,-19.02 -51.4,-41.12 -25.18,-159.66 -44.53,-354.37 -58.07,-584.09 -21.76,-365.93 -49.42,-766.73 -83,-1202.38 -1.02,-12.11 -11.15,-21.41 -23.29,-21.41 -1.32,0 -2.65,0.11 -3.94,0.34 -384.1,66.64 -769.98,116.5 -1157.66,149.56 -265.37,22.79 -487.39,39.4 -666.07,49.85 -174.74,10.02 -312.49,7.97 -472.84,24.67 -171.39,17.73 -458.7,15.68 -686.88,32.89l-486.2 6.68 -95.33 -2.56c-3.53,-0.2 -6.33,-3.14 -6.33,-6.69 0,-0.53 0.06,-1.04 0.19,-1.55l2.28 -10.01c0.37,-1.12 1.33,-1.85 2.35,-1.8 187.4,-13.53 384.57,-21.42 591.52,-23.65 405.51,-4.1 711.8,-39.05 1093.67,-46.76 152.98,-3.08 320.53,-13.96 502.64,-32.64 400.37,-41.12 625.21,-64.93 674.54,-71.43 242.07,-31.87 502.13,-80.18 748.06,-93.03 7.87,-0.49 14.82,5.48 15.68,13.53 49.07,465.72 76.05,1006.13 107.4,1463.81 7.88,115.8 24.67,236.66 50.37,362.58 1.73,8.09 7.8,14.29 15.71,16.26 29.27,7.31 46.39,-0.59 51.36,-23.71 0.57,-2.27 0.71,-4.25 0.68,-6.31l-41.53 -677.75c-0.05,-0.85 -0.07,-1.69 -0.07,-2.51 0,-21.06 15.46,-38.94 36.3,-41.96 249.44,-37.51 446.79,-69.63 592.05,-96.35 18.33,-3.43 64.77,-7.28 139.29,-11.56 0.22,-0.02 0.43,-0.02 0.64,-0.02 7.74,0 14.66,4.82 17.35,12.08 19.7,55 36.66,113.33 50.88,175.01 69.2,303.22 105.1,459.8 107.66,469.75 24.16,92.16 45.24,157.78 63.22,196.83 3.98,9.22 13.09,15.21 23.15,15.21 13.9,0 25.18,-11.28 25.18,-25.18 0,-0.11 0,-0.21 0,-0.32 1.19,-103.63 -7.98,-188.86 -27.52,-255.67 -6.34,-21.76 -43.6,-197.09 -111.78,-526.03 -5.65,-27.41 -4.54,-55.07 3.35,-82.99 1.79,-6.17 5.84,-11.13 11.3,-14.02l58.34 -30.44c14.7,-7.61 23.75,-23.79 22.41,-40.78 -28.65,-316.64 -55.74,-619.64 -81.26,-908.98 -38.81,-441.49 -57.05,-787.37 -106.91,-1314.16 -15.93,-168.92 -35.2,-431.98 -57.82,-789.16 -3.42,-54.82 22.71,-83.69 78.38,-86.61 176.29,-9.41 323.27,-8.64 440.97,2.32 28.75,3 55.75,-16 62.87,-44.58l14.47 -59.75c1.79,-8 8.41,-14.14 16.65,-15.42 79.73,-11.31 140.37,15.16 202.3,35.72 19.47,6.52 32.62,24.77 32.62,45.32 0,6.22 -1.22,12.38 -3.58,18.14 -81.03,197.03 -30.42,350.78 151.86,461.27 2.23,1.3 5.09,2.48 8.14,3.19l138.34 33.56c28.7,7.32 50.13,29.58 56.24,57.69 30.52,133.21 105.39,228.83 224.63,286.91 65.52,31.86 113.58,27.76 192.72,25.19 0.8,-0.03 1.59,-0.05 2.37,-0.05 30.21,0 57.73,17.43 70.64,44.75 62.17,129.52 113.04,213.3 271.08,230.26 45.92,4.96 92.26,7.19 139.03,6.67 25.63,-0.12 49.29,10.82 65.23,29.85 177.17,205.9 359.28,219.08 546.35,39.53 23.27,-22.15 56.13,-30.32 86.66,-21.75 109.77,29.92 199.53,51.82 269.26,65.7 153.84,30.33 267.24,-19.96 340.22,-150.84 12.82,-23.11 37.19,-37.46 63.62,-37.46 4.44,0 8.88,0.41 13.24,1.21 92.49,17.24 231.76,22.63 313.74,-28.76 94.91,-59.45 157.69,-137.4 188.37,-233.85 5.48,-17.19 21.38,-28.83 39.31,-28.78l175 0c2.5,0.03 5.38,-0.45 8.12,-1.42 161.28,-60.73 260.16,-165.35 296.65,-313.88 7.52,-30.54 33.34,-53.06 64.51,-56.29 117.51,-11.98 222.44,-59.35 314.77,-142.1 112.56,-100.73 82.24,-273.16 18.51,-390.08 -5.36,-9.85 -8.17,-20.89 -8.17,-32.09 0,-25.56 14.53,-48.91 37.46,-60.18l456.9 -225.61c29.03,-14.06 63.24,-8.75 86.12,13.13 11.79,11.29 56.07,57.81 132.82,139.52 74.26,78.89 211.48,32.12 316.59,-12.08 123.34,-51.91 197.87,-81.88 223.56,-89.94 114.27,-36.15 221.77,-75.89 322.5,-119.24 54.23,-23.12 119.24,-38.54 174.75,-58.33 637.03,-228.45 1211.11,-446.36 1796.22,-698.19 113.24,-48.82 212.44,-95.16 297.59,-139.02 63.55,-32.89 160.77,-83.52 291.66,-151.87 274.44,-143.22 552.99,-329.18 835.67,-557.88 1.64,-1.26 3.64,-1.93 5.7,-1.93 1.91,0 3.77,0.57 5.35,1.65 5.99,3.95 8.9,10.72 8.74,20.31z"/>
   <path class="fil0" d="M14657.95 21705.57c-41.29,94.05 -70.24,161.98 -86.86,203.77 -91.48,231.28 -148.18,440.37 -170.11,627.28 -47.29,401.39 418.86,391.62 617.5,193.74 72.64,-72.45 139.97,-155.12 201.98,-247.96 62.7,-93.54 156.84,-146.66 282.42,-159.34 54.47,-5.47 96.19,0.52 125.14,18 562.08,341.25 1112.52,732.88 1651.31,1174.87 119.74,98.17 276.24,293.47 113.83,419.38 -64.76,50.37 -178.6,110.24 -253.38,54.23 -280.78,-209.52 -587.18,-425.99 -919.19,-649.37 -14.33,-9.63 -31.24,-14.79 -48.53,-14.79 -28.96,0 -56.06,14.41 -72.22,38.42l-1.82 2.58c-9.93,14.79 -15.24,32.25 -15.24,50.09 0,28 13.06,54.43 35.3,71.44 79.48,60.83 200.6,143.4 363.35,247.74 158.98,101.93 306.65,206.77 443.01,314.53 164.47,130.29 30.07,268.53 -102.27,328.15 -73.5,33.4 -159.32,-6.68 -215.61,-48.31 -188.09,-140.14 -385.62,-285.24 -592.57,-435.31 -74.7,-53.96 -133.11,-89.6 -175.25,-106.91 -73.24,-29.8 -136.2,42.4 -101.25,115.39 16.11,33.4 37.95,58.33 65.52,74.77 124.03,73.5 331.24,217.49 621.62,431.98 66.98,49.33 76.49,104.16 28.52,164.46 -162.14,204.04 -314.01,104.59 -514.96,-12.08 -39.58,-22.96 -158.99,-91.65 -358.23,-206.09 -11.9,-6.64 -22.83,-15.05 -32.35,-24.93 -96.9,-100.73 -150.87,-155.46 -306.59,-151.86 -0.07,-0.01 -0.16,-0.01 -0.25,-0.01 -8.51,0 -15.41,-6.9 -15.41,-15.42 0,-0.08 0,-0.18 0,-0.26 4.35,-245.66 -196.85,-362.32 -428.9,-319.92 -15.2,2.89 -30.26,-7.38 -33.33,-23.05 -44.02,-247.03 -318.98,-360.62 -538.69,-256.54 -0.15,0.07 -0.43,0.19 -0.69,0.3 -9.93,4.22 -21.44,-0.52 -25.72,-10.58 -0.09,-0.23 -0.18,-0.45 -0.27,-0.69 -31.21,-83.65 -92.64,-137.81 -184.29,-162.49 -170.12,-45.57 -311.12,1.63 -422.98,141.6 -15.76,19.69 -45.83,23.39 -90.2,11.05 -43.68,-12 -102.36,-31.61 -176.03,-58.85 -10.91,-4.02 -18.18,-14.43 -18.18,-26.07 0,-2.12 0.24,-4.25 0.72,-6.32 33.4,-140.99 64.49,-295.68 93.28,-464.08 59.1,-345.03 114.34,-706.76 165.74,-1085.19 1.58,-11.49 11.69,-19.93 23.4,-19.53 267.92,9.59 538.51,-27.75 811.76,-112.04 97.48,-29.98 179.54,-55.85 246.18,-77.61 0.91,-0.31 1.87,-0.48 2.82,-0.48 4.83,0 8.74,3.92 8.74,8.74 0,1.23 -0.25,2.44 -0.75,3.56l-0.02 0.01z"/>
   <path class="fil0" d="M13909.9 23551.4c92.52,7.7 156.25,62.18 117.44,160.6 -25.35,64.08 -71.26,150.76 -137.74,260.05 -36.75,60.66 -70.66,122.85 -128.74,120.01 -45.06,-2.22 -85.23,-20.04 -120.52,-53.45 -160.86,-151.1 16.44,-335.86 149.56,-440.97 43,-33.91 83,-49.33 120,-46.24z"/>
   <path class="fil0" d="M14455.2 24180.98c-66.3,112.8 -88.65,169.09 -149.82,232.04 -106.38,109.21 -222.53,49.08 -295.51,-56.53 -95.08,-137.48 7.2,-252.35 86.33,-386.74 79.15,-134.66 129.78,-279.85 296.3,-263.66 127.46,12.59 236.67,84.8 192.73,231.02 -25.19,84.03 -63.47,130.79 -130.03,243.87z"/>
   <path class="fil0" d="M15011.8 24047.87c67.58,44.96 12.34,171.65 -17.99,231.52 -98.84,195.14 -170.88,328.25 -216.12,399.34 -100.98,159.58 -439.67,16.7 -302.19,-205.58 51.05,-82.57 107.58,-181.93 169.6,-298.08 34.69,-65.28 93.28,-147.5 173.2,-161.13 75.72,-12.84 140.22,-1.54 193.5,33.93z"/>
   <path class="fil0" d="M15326.08 24372.68c64.24,24.93 71.95,89.68 57.3,149.55 -42.65,173.71 -223.82,585.9 -445.33,344.87 -23.98,-26.05 -28.87,-57.4 -14.65,-94.06 39.57,-102.27 91.83,-201.72 156.76,-298.35 61.15,-90.71 139.27,-143.39 245.92,-102.01z"/>
   <path class="fil0" d="M15548.87 24565.67c0.1,-0.33 0.3,-0.85 0.51,-1.35 3.5,-8.23 13.1,-12.03 21.47,-8.49 0.5,0.22 1,0.46 1.48,0.72l319.85 184.88c17.89,10.49 24.62,32.66 15.8,51.19 -28.52,60.96 -81.24,85.52 -158.16,73.69 -98.16,-15.07 -185.28,-38.54 -261.33,-70.4 -7.78,-3.35 -11.59,-12.01 -8.93,-19.98l69.31 -210.26z"/>
   <path class="fil3" d="M11790.65 27799.14c-3.29,-2.3 -7389.33,22.26 -8106.43,22.88 -8.23,-0.13 -15.57,-4.3 -19.66,-11.05 -15.16,-24.16 -19.23,-52.26 -12.2,-84.3 25.18,-114.44 37.18,-217.05 35.98,-307.85 -0.2,-7.45 0.59,-13.86 2.22,-20.13l18.85 -77.52c2.27,-8.63 3.33,-18.62 2.92,-28.49 -5.54,-104.52 -3.61,-194.65 5.81,-270.37 15.42,-121.98 21.42,-197.69 17.99,-227.16 -6.93,-60.9 -4.62,-210.46 5.66,-305.02 14.55,-133.46 18.75,-272.48 12.58,-417.07 -0.02,-0.96 -0.02,-2.05 0.04,-3.12 0.93,-17.84 16.28,-31.56 34.27,-30.62 1.04,0.06 2.09,0.17 3.12,0.32 496.01,78.64 968.79,131.58 1418.33,158.82 222.53,13.54 389.14,26.13 499.8,37.78 160.09,16.96 316.85,10.28 498.01,25.69 201.48,16.97 385.46,0 606.97,22.11 105.53,10.62 207.21,14.81 305.03,12.59 329.95,-7.98 684.05,3.34 980.34,4.62 134.49,0.34 268.54,-6.68 402.16,-21.07 47.28,-5.14 92.77,-15.68 136.46,-31.61 228.18,-17.21 515.49,-15.16 686.88,-32.89 160.35,-16.7 298.1,-14.65 472.84,-24.67 178.68,-10.45 400.7,-27.06 666.07,-49.85 387.68,-33.06 773.56,-82.92 1157.66,-149.56 1.29,-0.23 2.62,-0.34 3.94,-0.34 12.14,0 22.27,9.3 23.29,21.4 33.58,435.66 61.25,836.45 83,1202.39 13.53,229.72 32.9,424.43 58.07,584.09z"/>
   <path class="fil0" d="M28836.3 27831.9c3.23,-16.76 2.82,-30.16 -1.22,-40.17 -2.17,-5.16 -7.41,-8.54 -13.23,-8.54 -6.05,0 -11.45,3.65 -13.44,9.11l-7.58 21.97c-4.49,12.67 -16.83,21.01 -30.53,20.79 -766.37,-10.02 -1321.03,-12.22 -1663.97,-6.63 -55.78,0.77 -101.55,-10.59 -137.32,-34.1l258.28 -761.35c4.73,-14.15 18.51,-23.76 34.08,-23.76 2.29,0 4.59,0.21 6.84,0.63l1612.05 305.72c9.72,1.74 16.32,10.47 15.15,19.94l-59.11 496.39z"/>
   <path class="fil1" d="M22553.15 21678.85l-8.74 -35.47c-0.23,-0.89 -0.53,-1.64 -0.91,-2.35 -2.74,-5.14 -9.01,-7.15 -14.02,-4.48 -0.76,0.4 -1.47,0.9 -2.1,1.48l-8.91 8.17c0.16,-9.59 -2.75,-16.35 -8.74,-20.29 -1.58,-1.1 -3.44,-1.67 -5.35,-1.67 -2.06,0 -4.06,0.67 -5.71,1.9 -282.67,228.72 -561.22,414.69 -835.66,557.91 -130.89,68.35 -228.11,118.98 -291.66,151.87 -85.15,43.86 -184.35,90.2 -297.59,139.02 -585.11,251.83 -1159.19,469.74 -1796.22,698.19 -55.51,19.79 -120.52,35.21 -174.75,58.33 -100.73,43.35 -208.23,83.09 -322.5,119.24 -25.7,8.06 -100.21,38.03 -223.56,89.94 -105.11,44.2 -242.33,90.97 -316.59,12.08 -76.75,-81.71 -121.12,-128.32 -133.11,-139.79 -22.59,-21.61 -56.8,-26.92 -85.47,-13.04l-457.26 225.81c-22.93,11.25 -37.46,34.6 -37.46,60.16 0,11.2 2.81,22.24 8.16,32.08 63.74,116.93 94.06,289.36 -18.5,390.09 -92.34,82.75 -197.27,130.12 -314.78,142.11 -31.16,3.22 -56.98,25.74 -64.5,56.27 -36.49,148.54 -135.25,253.12 -296.29,313.77 -3.1,1.09 -5.98,1.57 -8.86,1.53l-174.62 0.01c-17.93,-0.05 -33.83,11.59 -39.32,28.77 -30.67,96.46 -93.45,174.41 -188.36,233.86 -81.98,51.39 -221.25,46 -313.76,28.77 -4.34,-0.81 -8.78,-1.22 -13.22,-1.22 -26.43,0 -50.8,14.35 -63.6,37.45 -72.99,130.89 -186.41,181.17 -340.24,150.85 -69.73,-13.88 -159.59,-35.8 -269.57,-65.79 -30.22,-8.48 -63.08,-0.31 -86.1,21.61 -187.24,179.7 -369.6,166.42 -547.08,-39.85 -15.46,-18.48 -39.12,-29.42 -64.01,-29.31 -47.27,0.53 -93.85,-1.7 -139.77,-6.66 -158.04,-16.96 -208.91,-100.74 -271.1,-230.24 -12.89,-27.34 -40.41,-44.77 -70.62,-44.77 -0.78,0 -1.57,0.02 -2.34,0.03 -79.17,2.59 -127.23,6.69 -192.75,-25.17 -119.24,-58.08 -194.19,-154.01 -224.86,-287.8 -5.88,-27.22 -27.31,-49.48 -55.1,-56.59l-138.9 -33.61c-3.4,-0.87 -6.26,-2.05 -8.79,-3.61 -182.07,-110.32 -232.59,-263.98 -151.57,-461 2.37,-5.77 3.59,-11.93 3.59,-18.15 0,-20.55 -13.15,-38.8 -32.62,-45.33 -61.93,-20.55 -122.57,-47.02 -202.25,-35.71 -8.29,1.28 -14.91,7.42 -16.7,15.48l-14.38 59.3c-7.21,28.97 -34.21,47.97 -63.37,44.91 -117.42,-10.93 -264.27,-11.67 -440.56,-2.26 -55.67,2.92 -81.8,31.79 -78.38,86.61 22.62,357.18 41.89,620.24 57.82,789.16 49.86,526.79 68.1,872.67 106.91,1314.16 25.52,289.34 52.59,592.14 81.2,908.38 1.4,17.59 -7.65,33.77 -22.87,41.65l-58.07 30.31c-5.21,2.75 -9.26,7.71 -10.97,13.6 -7.94,28.11 -9.08,55.86 -3.43,83.27 68.18,328.93 105.44,504.27 111.78,526.03 19.54,66.82 28.7,152.04 27.5,255.68 0.02,0.1 0.02,0.2 0.02,0.31 0,13.9 -11.28,25.18 -25.18,25.18 -10.06,0 -19.17,-5.99 -23.14,-15.22 -17.99,-39.05 -39.07,-104.66 -63.23,-196.82 -2.56,-9.95 -38.46,-166.53 -107.66,-469.75 -14.22,-61.68 -31.18,-120.01 -50.89,-175 -2.68,-7.27 -9.6,-12.09 -17.34,-12.09 -0.21,0 -0.42,0 -0.63,0.01 -74.53,4.29 -120.97,8.14 -139.3,11.57 -145.26,26.72 -342.63,58.84 -592.06,96.36 -20.83,3.01 -36.29,20.89 -36.29,41.95 0,0.82 0.02,1.66 0.07,2.49l41.36 678.17c0.2,1.66 0.06,3.64 -0.26,5.52 -5.14,23.38 -22.43,31.39 -51.9,24.03 -7.62,-1.9 -13.69,-8.1 -15.35,-15.91 -25.74,-126.11 -42.56,-247.06 -50.44,-362.86 -31.35,-457.68 -58.33,-998.09 -107.41,-1463.72 -0.85,-8.14 -7.8,-14.11 -15.74,-13.62 -245.86,12.85 -505.92,61.16 -747.99,93.03 -49.33,6.5 -274.17,30.32 -674.54,71.43 -182.11,18.67 -349.66,29.56 -502.64,32.64 -381.87,7.71 -688.16,42.66 -1093.67,46.76 -206.95,2.23 -404.13,10.12 -591.55,23.65 -0.99,-0.05 -1.95,0.68 -2.3,1.76l-2.33 10.06c-0.1,0.5 -0.16,1.01 -0.16,1.54 0,3.55 2.8,6.49 6.34,6.66l95.32 2.59c-672.23,10.62 -1168.53,8.23 -1488.88,-7.19 -648.09,-31.35 -1297.97,-56.79 -1943.49,-122.32 -47.79,-25.01 -79.74,-38.71 -95.85,-41.12 -170.62,-24.92 -369.01,-36.74 -513.17,-60.12 -108.61,-17.82 -229.9,-37.95 -363.87,-60.4 -1.39,-0.23 -2.11,-0.32 -2.82,-0.39 -27.81,-2.93 -52.72,17.13 -55.62,44.8 -0.08,0.75 -0.14,1.52 -0.2,2.28 -9.72,134.22 2.61,279.67 -16.4,426.4 -14.9,116.49 -16.87,252.52 -5.9,408.07 5.9,81.46 -27.77,232.82 -30.33,344.09 -3.09,138.76 -26.21,254.4 -30.07,387.51 -1.54,50.37 -10.19,122.31 -25.95,215.86 -3.01,17.19 -17.96,29.74 -35.42,29.74 -12.84,0 -24.7,-6.83 -31.13,-17.93 -17.31,-30.32 -24.07,-66.38 -20.31,-108.18 13.2,-140.31 29.64,-305.71 49.34,-496.21 9.59,-92.68 14.39,-179.19 14.39,-259.54 0,-100.73 3.25,-187.42 9.77,-260.05 22.1,-241.56 11.05,-509.07 14.65,-716.45 0.23,-9.79 -5.22,-18.92 -14,-23.33 -66.05,-32.75 -110.46,-70.03 -133.25,-111.83 -1.33,-2.54 -2.04,-5.37 -2.04,-8.24 -7.72,-242.74 -6.78,-657.23 2.81,-1243.47 5.99,-370.04 9.34,-782.99 10.02,-1238.87 2.31,-1500.45 -0.76,-2507.53 -8.48,-3581.93 -2.74,-403.95 -3.86,-1149.78 -3.33,-2237.45 0.16,-141.33 3.33,-259.79 9.5,-355.4 10.79,-165.23 8.99,-330.2 24.67,-474.36 31.01,-285.59 57.74,-479.34 80.17,-581.27 40.77,-185.88 65.01,-294.24 72.73,-325.08 87.89,-349.81 223.56,-674.46 407.04,-973.92 78.38,-127.45 155.72,-225.11 221.77,-323.52 79.4,-118.21 216.11,-282.68 308.36,-366.18 84.98,-76.93 139.37,-126.87 163.18,-149.83 111.27,-107.66 223.31,-175.76 354.88,-277.01 82.91,-63.55 156.83,-113.49 221.76,-149.81 103.48,-57.91 168.32,-95.68 194.53,-113.33 66.13,-44.19 131.66,-80.25 196.59,-108.18 87.88,-37.52 174.74,-96.63 280.35,-144.43 339.04,-153.84 682.35,-285.65 1029.95,-395.47 33.91,-10.79 62.44,-43.95 85.57,-99.45 134.31,-323.44 259.02,-691.33 374.15,-1103.69 30.15,-107.93 42.14,-181.6 35.98,-221 -1.41,-9.92 -4.52,-23.53 -8.59,-36.73 -27.17,-82.07 -66.71,-171.67 -118.61,-268.81 -128.24,-239.75 -248.49,-489.27 -346.66,-670.7 -4.45,-8.05 -17.65,-34.09 -39.57,-78.11 -211.07,-424 -355.48,-862.14 -433.26,-1314.42 -6.17,-35.21 -3.08,-74.77 -8.22,-103.82 -50.71,-298.77 -30.07,-617.49 61.93,-956.18 34.94,-128.66 74.18,-237.28 117.69,-325.85 95.94,-195.29 177.22,-337.32 243.86,-426.06 81.89,-109.3 123.44,-164.8 124.64,-166.51 44.71,-61.33 89.94,-112.98 135.67,-154.95 110.5,-101.52 188.37,-179.88 308.12,-260.84 50.71,-34.42 104.59,-71.86 161.63,-112.29 111.88,-79.32 243.19,-153.49 393.94,-222.54 147.16,-67.15 358.74,-132.94 634.72,-197.35 69.72,-16.28 137.82,-25.79 204.3,-28.53 25.35,-1.02 85.14,-10.45 179.36,-28.26 15.88,-2.91 32.11,-4.1 48.31,-3.6 189.13,5.48 298.52,7.19 328.16,5.14 137.91,-10.28 251.31,-6.42 340.23,11.56 81.03,16.44 146.99,23.22 197.86,20.3 85.32,-5.14 233.08,32.64 340.49,47.8 120.53,16.96 176.8,32.89 320.44,68.1 389.57,95.25 708.31,202.15 956.2,320.7 168.23,80.51 304.77,189.73 409.61,327.64 62.19,81.97 82.49,212.26 89.18,317.62 9.49,149.55 -29.82,321.22 -136.72,428.88 -34.26,34.61 -74.52,72.89 -120.77,114.87 -12.54,11.44 -19.71,27.66 -19.71,44.64 0,6.12 0.93,12.21 2.76,18.05 44.87,141.85 90.62,311.37 137.21,508.56 19.7,83.09 31.87,153.06 36.49,209.94 6.94,85.84 27.5,167.29 33.15,281.65 9.51,195.81 36.49,342.53 127.71,523.45 117.18,232.81 246.19,445.92 387,639.35 123.61,169.34 253.12,463.05 -1.03,593.08 -46.77,23.99 -88.91,39.67 -126.43,47.03 -129.51,25.01 -250.12,39.57 -361.81,43.68 -25.8,0.54 -47.58,20.89 -50.06,47.26 -24.7,291.08 -57.7,558.34 -98.98,801.78 -43.01,253.72 -118.73,473.16 -227.16,658.36 -111.8,190.93 -264.17,323.78 -470.79,389.83 -212.59,68 -434.02,82.83 -664.26,44.45 -65.79,-10.97 -130.8,-14.81 -195.04,-11.56 -20.37,1.08 -37.58,15.56 -42.14,35.46 -38.38,163.26 -80.18,326.61 -125.41,490.04 -9.77,35.64 -15.25,83.18 -16.45,142.62 -0.53,22.19 12.73,42.69 33.4,51.28 325.85,133.74 641.16,284.85 917.91,484.77 451.24,325.83 786.34,784.02 969.82,1305.42 93.53,266.04 160.94,541 202.23,824.88 32.56,225.61 56.7,431.8 72.46,618.53 19.02,228.7 46,466.15 49.09,672.24 1.2,70.58 8.31,211.82 21.33,423.74 17.98,293.63 29.03,589.41 33.15,887.33 2.57,203.51 24.16,440.44 28,640.37 10.28,538.79 19.2,1072.52 26.73,1601.19 2.57,179.71 10.53,380.07 23.9,601.06 0.07,0.7 0.09,1.43 0.09,2.15 0,17.03 -13.81,30.84 -30.83,30.84 -2.81,0 -5.6,-0.39 -8.3,-1.14l-746.01 -204.28c-8.58,-2.18 -14.96,-9.68 -15.66,-18.59 -11.07,-144.33 -35.22,-291.06 -23.4,-424.43 6.94,-78.12 -10.79,-184.76 -10.79,-289.35 0,-571.51 -0.51,-1122.53 -1.54,-1653.1 -0.51,-228.18 12.07,-426.32 -5.4,-663.76 -13.11,-179.62 1.03,-518.82 -27.49,-775.02 -12.85,-114.36 -1.04,-222.02 -9,-354.62 -11.3,-184.34 -22.7,-396.86 -34.18,-637.55 -1.36,-27.93 -7.53,-71.7 -18.5,-131.32 -1.29,-7.2 -4.55,-14.48 -9.37,-20.6 -26.3,-31.83 -56.84,-44.32 -91.62,-37.47 -70.58,14.04 -103.64,62.36 -99.19,144.94 6.94,131.56 23.12,340.22 22.61,514.19 -0.26,109.99 21.84,215.61 25.44,342.03 6.17,219.2 18.51,442.51 23.38,656.31 11.31,480.7 18.17,809.37 20.56,986 9.77,672.23 -7.19,1383.03 5.65,2068.36 1.38,73.67 6.6,148.45 15.68,224.34 0.15,1.12 0.22,2.29 0.22,3.44 0,16.18 -13.12,29.3 -29.3,29.3 -3.03,0 -6.06,-0.47 -8.94,-1.4 -186.05,-60.38 -354.89,-94.81 -529.37,-152.63 -75.55,-25.01 -145.7,-43.85 -210.46,-56.53 -208.66,-41.12 -381.43,-82.83 -518.31,-125.15 -134.83,-41.8 -271.79,-75.89 -410.89,-102.27 -108.63,-20.74 -273.09,-63.99 -493.4,-129.77 -63.21,-19.02 -134.13,-36.84 -212.77,-53.46 -263.4,-56.01 -561.48,-148.78 -730.82,-185.02 -37.01,-7.88 -63.14,-33.14 -78.38,-75.8 -22.45,-62.19 -57.39,-179.02 -104.85,-350.51 -190.5,-687.83 -384,-1371.55 -580.5,-2051.15 -102.78,-355.99 -211.65,-731.86 -326.61,-1127.59 -13.51,-46.84 -56.4,-79.1 -105.15,-79.1 -6.53,0 -13.04,0.58 -19.47,1.74l-1.8 0.27c-44.5,7.91 -76.94,46.63 -76.94,91.84 0,6.7 0.74,13.4 2.16,19.94 18.85,84.46 47.7,194.35 86.6,329.69 307.84,1071.06 588.46,2057.92 841.83,2960.57 21.25,75.38 48.57,165.76 81.98,271.12 33.92,106.89 103.12,178.76 207.63,215.6 70.92,24.83 167.55,52.07 289.87,81.71 200.18,48.31 397.28,105.61 597.97,162.67 55.24,15.67 121.04,23.63 163.44,35.72 60.47,16.95 277.69,72.89 651.67,167.79 20.21,5.14 171.4,42.66 453.56,112.56 259.72,64.42 410.89,101.33 453.56,110.76 198.89,44.19 390.76,90.79 575.61,139.79 188.62,50.02 448.33,113.75 779.14,191.18 10.44,2.4 34.09,9.59 70.92,21.59 40.94,13.01 89.94,15.42 146.99,7.2 8.17,-1.28 16.24,-4.69 23.17,-9.88 16.07,-12.44 33.28,-38.61 51.61,-78.52 3.79,-8.65 13.53,-13.53 23.12,-11.39l922.28 222.62c15.23,3.66 25.97,17.29 25.97,32.96 0,0.23 0,0.46 -0.01,0.69 -1.38,46.94 22.17,70.68 70.66,71.19 252.86,3.08 469.74,-42.91 692.79,-99.96 224.09,-57.3 517.03,-145.45 771.69,-197.87 237.96,-49.16 364.64,-74.96 380.06,-77.34 208.32,-32.73 416.9,-13.29 625.73,58.33 326.35,111.86 584.87,193.07 775.54,243.61 172.69,45.9 343.06,24.49 511.12,-64.25 34.95,-18.33 64.16,-41.54 87.62,-69.64 79.41,-94.3 146.74,-138 272.91,-196.07 995.51,-456.89 1592.45,-735.87 1790.84,-836.96 204.72,-104.16 453.72,-235.9 747.02,-395.22 152.89,-83 201.2,-118.97 251.06,-282.41 258.17,-845.26 690.05,-2196.17 1295.65,-4052.71 24.15,-73.83 48.22,-135.93 72.21,-186.3 252.86,-530.13 685.34,-974.95 1174.36,-1280.49 213.45,-133.46 404.81,-249.35 574.08,-347.68 11.09,-6.51 16.76,-18.98 14.59,-31.52 -16.41,-101.99 -42.52,-211.92 -78.32,-329.78 -67.5,-222.71 -141.85,-472.49 -223.05,-749.34 -4.64,-16.08 -19.47,-27.62 -36.66,-28.25 -42.23,-0.78 -104.17,-2.58 -153.5,4.09 -209.35,28.1 -419.81,35.39 -631.39,21.86 -241.29,-15.68 -454.33,-88.4 -629.58,-262.38 -85.31,-84.62 -156.66,-209.69 -214.05,-375.18 -119.5,-345.36 -172.43,-696.14 -221.77,-1054.61 -4.45,-32.54 -15.42,-62.61 -32.89,-90.2 -4.23,-7.03 -11.98,-11.89 -20.7,-12.8 -107.66,-10.47 -212.46,-28.31 -314.4,-53.49 -190.41,-46.77 -324.03,-207.38 -214.05,-401.65 30.67,-54.31 84.98,-126 162.92,-215.09 62.02,-70.92 148.28,-194.27 258.78,-370.04 106.38,-169.26 178.07,-354.19 215.07,-554.8 3.94,-21.76 10.2,-119.92 18.77,-294.48 17.21,-353.85 102.52,-684.07 260.31,-1009.13 56.28,-115.64 126.17,-199.16 194.53,-294.24 76.31,-106.9 180.39,-193.76 276.75,-292.43 56.54,-57.74 123.95,-115.38 202.24,-172.95 220.82,-162.57 415.27,-278.04 583.33,-346.39 68.69,-27.92 230.93,-79.83 486.7,-155.73 154.87,-45.91 372.86,-74.26 654,-85.06 128.23,-5.14 233.07,15.94 376.72,16.96 124.37,1.03 278.29,25.44 443.02,56.54 370.73,69.72 714.89,217.65 1032.51,443.79 66.98,47.97 159.06,122.4 276.24,223.31 149.3,128.99 252.61,282.67 399.85,472.82 63.91,82.41 130.37,198.31 199.41,347.68 284.9,615.88 416.9,1257.88 395.99,1926.02 -5.65,175.94 -20.64,379.45 -44.96,610.56 -24.42,233.58 140.04,415.52 327.89,518.31 131.57,72.12 258.52,146.13 380.83,222.02 131.58,81.89 259.11,186.22 382.63,312.99 107.94,111.01 180.65,185.63 218.18,223.83 57.9,59.1 119.66,140.65 185.28,244.64 138.58,219.97 243.69,451.41 315.29,694.33 101.25,342.8 160.62,629.58 272.91,955.94 140.99,409.78 381.94,775.71 722.87,1097.79 42.65,40.25 45.47,90.88 8.47,151.86 -13.02,21.42 -39.57,44.03 -79.66,67.84 -67.33,39.74 -146.22,79.75 -236.68,120.01 -19.49,8.65 -32.08,27.99 -32.08,49.33 0,7.72 1.65,15.34 4.85,22.36 50.71,111.18 99.62,242.84 146.73,394.97 91.65,296.54 162.24,607.31 211.75,932.3 12.5,81.37 26.98,175.33 43.42,281.89 18,116.49 30.76,210.55 38.29,282.15 37.18,350.51 56.1,528.34 56.79,533.48 18.25,112.29 5.4,231.02 29.81,354.36 3.45,15.22 5.62,34.76 5.71,54.21 -0.21,88.75 3.29,161.65 10.48,218.7 19.28,149.3 5.65,266.48 35.47,419.12 2.36,10.36 4.12,24.42 4.66,38.41 3.4,147.59 10.66,278.01 21.81,391.24 12.07,123.36 6.42,190.42 3.59,294.75 -3.85,129.78 31.6,265.2 28.01,402.68 -5.31,201.3 0.42,388.03 17.22,560.2 16.7,173.71 9,301.42 7.7,521.14 -0.69,121.98 -5.91,230.24 -15.67,324.81 -15.42,145.7 -1.54,291.4 -19.53,432.74 -13.53,104.51 -31.35,255.6 -53.44,453.3 -50.38,450.47 -159.34,914.31 -267,1341.91 -245.66,976.32 -515.23,1965.66 -808.7,2968.02 -15.59,53.45 -16.18,132 -1.79,235.65 40.94,298.08 71.86,554.71 92.76,769.88 0.11,1.05 0.16,2.12 0.16,3.19 0,19.02 -15.42,34.44 -34.44,34.44 -5.4,0 -10.74,-1.28 -15.57,-3.72 -157.78,-81.19 -382.62,-56.01 -543.75,3.09 -2.62,0.94 -5.4,1.41 -8.18,1.41 -13.49,0 -24.42,-10.93 -24.42,-24.41 0,-1.08 0.07,-2.15 0.21,-3.21l57.06 -422.21c0.11,-0.8 0.15,-1.6 0.15,-2.41 0,-7.76 -4.6,-14.79 -11.71,-17.9 -60.99,-26.37 -97.32,-40.84 -108.96,-43.41 -143.39,-30.49 -434.12,-89.94 -872.16,-178.33 -165.84,-33.42 -321.99,-56.8 -468.47,-70.17 -0.86,-0.08 -1.75,-0.12 -2.62,-0.12 -12.3,0 -23.17,7.94 -26.92,19.65l-236.16 717.22c-5.75,17.48 -22.1,29.32 -40.53,29.32 -6.14,0 -12.22,-1.32 -17.81,-3.89 -56.7,-26.04 -120.6,-42.82 -191.69,-50.36 -16.29,-1.71 -82.93,-2.56 -199.93,-2.56 -2375.28,0 -3705.97,0 -3992.06,0 -78.63,0 -163.43,1.87 -254.4,5.65 -9.3,0.45 -17.72,3.32 -24.88,8.27l-48.87 32.84c-3.54,2.32 -7.41,3.97 -11.48,4.9 -18.95,4.37 -37.83,-7.33 -42.18,-26.13 -0.94,-4.1 -1.13,-8.33 -0.57,-12.5l215.86 -1598.29c0.27,-2.06 0.41,-4.13 0.41,-6.18 0,-20.25 -13.03,-38.21 -32.27,-44.48l-89.18 -29.52c-17.87,-6.13 -29.48,-22.89 -29.02,-41.5 3.08,-151.01 9.93,-268.07 20.55,-351.16 8.39,-65.09 13.28,-127.02 14.65,-185.79 3.33,-142.62 22.61,-228.44 25.43,-356.41 1.03,-49.35 8.49,-106.48 22.37,-171.41 4.68,-22.8 6.48,-44.74 5.67,-66.74 -1.38,-47.15 -1.05,-87.09 1.01,-119.82 2.05,-30.32 13.35,-151.87 33.91,-364.64 12.51,-128.15 21.59,-242.76 27.24,-343.83 6.69,-119.58 12.34,-195.89 16.97,-228.96 28.26,-199.16 25.95,-370.81 47.79,-572.28 17.99,-165.32 29.9,-302.71 35.71,-412.19 10.28,-196.32 44.72,-365.41 44.98,-549.65 0,-200.1 -4.71,-391.28 -14.14,-573.57 -3.59,-67.49 -16.27,-94.82 -38.03,-81.96zm-12438.72 -13758.54c-10.03,343.57 -76.06,660.93 -236.15,964.68 -109.99,209 -250.9,408.48 -422.72,598.48 -60.4,66.55 -180.65,155.21 -230.51,24.92 -42.48,-111.18 -64.93,-169.76 -67.33,-175.77 -102.01,-251.31 -375.44,-433 -653.73,-396.5 -214.06,28.01 -377.5,238.98 -408.59,445.58 -44.71,295.52 69.65,606.2 257.74,819.75 147.76,167.8 344.09,187.59 568.69,195.56 76.92,2.74 111.52,40.08 103.81,112.04 -8.73,81.45 -176.28,78.37 -238.47,75.54 -126.26,-5.99 -247.89,-40.86 -364.9,-104.59 -2.74,-1.51 -5.84,-2.31 -8.99,-2.31 -8.67,0 -16.22,5.95 -18.24,14.39 -53.8,224.77 -156.51,424.78 -308.12,600.03 -118.98,137.74 -263.39,225.11 -438.9,264.17 -11.72,2.65 -20.47,12.33 -21.83,24.16 -17.66,138.59 -44.3,272.47 -79.93,401.65 -95.77,346.56 -210.21,672.91 -343.32,979.06 -5.51,12.85 -8.38,26.76 -8.38,40.77 0,18.26 4.86,36.22 14.04,52 63.21,107.41 137.13,205.31 221.76,293.71 536.04,559.95 1252.22,1024.55 2051.15,1082.88 245.15,17.99 300.92,-62.19 364.12,-283.7 124.56,-434.79 245.24,-913.1 362.08,-1434.92 0.28,-1.25 0.42,-2.52 0.42,-3.8 0,-8.77 -6.4,-16.2 -15.06,-17.53l-290.39 -45.49c-54.36,-9.11 -91.9,-57.18 -87.78,-110.99l0.42 -5.93c0.17,-1.42 0.34,-2.74 0.55,-4.02 6.85,-43.3 47.42,-72.88 90.59,-66.04 1.28,0.2 2.57,0.45 3.83,0.7 332.42,68.17 628.49,111.84 888.2,131.02 432.4,31.71 726.28,-147.92 881.66,-538.85 79.33,-199.24 129.7,-402.69 151.11,-610.32 0.07,-0.52 0.09,-1.04 0.09,-1.56 0,-8.1 -6.37,-14.78 -14.47,-15.15 -210.72,-12.33 -413.05,-65.86 -606.97,-160.59 -87.2,-42.66 -144.94,-77.1 -173.2,-103.31 -34.9,-32.66 -39.51,-85.75 -11.17,-123.6l4.49 -5.91c17.44,-23.57 45.03,-37.47 74.35,-37.47 19.54,0 38.59,6.19 54.4,17.67 204.88,149.56 431.43,228.63 679.67,237.2 0.41,0.01 0.8,0.02 1.2,0.02 13.25,0 24.37,-9.99 25.8,-23.16 23.29,-212.59 40.94,-370.29 52.93,-473.08 8.9,-76.23 51.9,-116.41 128.99,-120.52 144.77,-7.54 277.7,-24.24 398.82,-50.1 182.71,-38.81 183.99,-151.62 97.14,-289.61 -3.25,-4.97 -84.89,-124.64 -244.9,-358.99 -52.94,-77.26 -149.47,-252.18 -289.6,-524.74 -26.47,-51.65 -50.11,-124.89 -54.74,-173.46 -21.59,-226.9 -29.8,-439.16 -69.13,-649.62 -38.36,-204.89 -86.42,-401.06 -144.15,-588.46 -4.98,-15.02 -20.48,-23.03 -34.85,-18.37 -351.09,103.38 -720.06,149.59 -1106.88,138.62 -152.64,-4.45 -308.28,-8.82 -466.91,-13.1 0.1,0 0.09,0 0.09,0 -9.5,-0.34 -17.47,7.21 -17.81,16.85 0,0 0,0.01 0,0.01l-0.02 0.1zm11862.85 227.16c-4.63,-0.17 -7.96,1.8 -10.02,5.91 -145.44,299.28 -231.19,614.85 -257.23,946.68 -18.5,233.59 -14.13,444.31 -96.37,644.23 -82.57,200.78 -191.01,394.29 -325.32,580.51 -30.84,42.83 -113.67,150.41 -248.49,322.75 -112.04,143.39 135.16,195.3 224.07,211.23 164.3,29.47 249.79,44.71 256.47,45.75 56.01,9.08 87.97,43.25 95.85,102.53 22.61,169.6 44.28,319.24 65.01,448.93 1.35,8.66 9.39,14.89 18.38,14.13 225.53,-20.22 449.39,-78.21 671.59,-173.97 59.62,-25.44 139.28,-52.42 161.12,31.35 20.56,78.88 -128.48,157.26 -184.51,178.85 -200.09,77.09 -405.75,122.84 -616.98,137.22 -0.19,0.02 -0.37,0.04 -0.56,0.05 -6.2,0.65 -10.7,6.34 -10.03,12.68 0.01,0.13 0.03,0.25 0.04,0.38 24.68,170.29 63.91,331.41 117.7,483.36 151.35,427.09 456.89,576.13 891.43,566.11 213.97,-4.79 453.56,-30.15 718.75,-76.06 55,-9.42 94.83,11.82 119.5,63.73 16.44,34.43 -15.68,77.61 -39.57,104.59 -7.83,8.88 -10.9,20.43 -8.65,31.59 6.96,39.92 11.98,64.69 15.07,74.28 116.16,373.8 200.27,649.63 252.34,827.44 57.82,197.88 50.37,362.6 39.58,583.34 -3.76,74.52 -0.08,183.72 11.05,327.64 5.4,67.83 33.4,138.5 61.93,197.6 169.09,351.28 754.46,171.4 1012.47,47.03 607.3,-292.27 1126.74,-692.11 1558.28,-1199.54 33.4,-39.06 60.38,-77.44 80.94,-115.13 6.79,-12.45 2.66,-28.08 -9.42,-35.41 -142.59,-85.7 -252.35,-201.6 -329.27,-347.73 -115.64,-219.62 -201.29,-474.29 -256.96,-763.98 -16.96,-88.74 -24.08,-185.54 -21.33,-290.38 0.8,-25.3 -12.55,-49.48 -34.78,-62.45 -389,-221.33 -719.01,-509.74 -990.03,-865.22 -6.91,-8.81 -17.79,-12.87 -28.31,-10.73 -110.71,19.73 -252.81,49.28 -361.26,-3.92 -67.33,-32.89 -105.1,-117.43 -33.4,-170.11 19.18,-13.88 40.94,-18.08 65.26,-12.59 194.1,43.51 358.23,-6.69 492.36,-150.59 229.56,-246.69 291.66,-534.32 186.31,-862.91 -25.18,-78.63 -77.09,-151.44 -155.73,-218.43 -135.17,-115.63 -321.98,-128.74 -479,-63.2 -185.53,77.34 -304.5,218.67 -405.23,393.41 -4.19,7.37 -10.45,13.36 -17.99,17.22 -44.2,23.3 -92.51,23.22 -144.94,-0.26 -865.99,-385.71 -1657.73,-1089.04 -2037.27,-1970.46 -2.06,-4.79 -6.34,-7.27 -12.85,-7.45zm4893.26 5343.22c-42.14,-98.33 -71.52,-211.15 -88.14,-338.43 -24.5,-189.13 -28.52,-398.99 -12.08,-629.58 11.31,-159.59 42.66,-367.48 42.66,-572.54 0,-94.57 8.47,-165.23 -38.29,-226.4 -0.89,-1.14 -1.63,-2 -2.37,-2.84 -17.86,-19.83 -48.32,-21.5 -68.04,-3.74 -0.88,0.78 -1.73,1.62 -2.55,2.46 -158.65,163.11 -338.02,279.95 -538.12,350.53 -29.21,9.85 -50.9,36.57 -54.6,68.24 -6.26,62.26 -4.85,123.8 4.24,184.62 37.52,249.26 118.46,502.64 242.83,760.13 104.59,216.1 295.52,330.97 503.41,418.6 1.02,0.42 2.1,0.63 3.2,0.63 4.68,0 8.48,-3.8 8.48,-8.49 0,-1.09 -0.21,-2.17 -0.63,-3.19zm36.49 12552.05l344.34 -12.08c13.21,-0.57 24.16,-10.01 26.5,-22.77 228.16,-1224.83 398.79,-2451.87 565.05,-3720.79 27.75,-212.53 32.64,-402.94 8.22,-590.78 -96.62,-745.99 -199.4,-1567.54 -330.2,-2362.09 -22.96,-139.45 -70.25,-444.22 -141.85,-914.31 -21.94,-144.41 -71.7,-459.64 -149.3,-945.66 -7.67,-48.53 23.51,-94.61 71.34,-105.66l3.44 -0.72c6.02,-1.41 12.2,-2.13 18.4,-2.13 39.96,0 73.95,29.17 80,68.67 84.12,546.5 155.82,1023.28 215.1,1430.32 69.12,474.63 164.72,1021.46 235.13,1560.33 81.03,621.88 141.25,1090.68 180.65,1406.41 11.65,94.23 13.45,188.7 5.4,283.44 -4.29,-8.39 -10.54,-12.68 -18.76,-12.84 -9.6,-0.35 -15.07,4.19 -16.45,13.61 -130.02,905.57 -256.45,1839.15 -399.33,2760.39 -90.45,582.3 -224.08,1285.9 -302.46,1722.49 -19.19,106.21 -27.06,205.06 -23.64,296.54 0.77,19.21 14.74,35.34 33.66,38.8 545.64,98.86 1054.44,200.28 1526.42,304.26 61.42,13.62 117.94,16.7 177.57,18.76 14.51,0.59 27.77,-9.11 31.79,-23.43 83.14,-301.65 216.86,-773.79 401.21,-1416.39 193.92,-675.84 385.97,-1391.93 576.13,-2148.28 146.13,-581.09 245.92,-1161.17 299.36,-1740.21 19.79,-212.51 16.19,-460.75 37.26,-675.07 8.06,-83.42 4.89,-242.07 -9.51,-475.91 -6.16,-98.68 -10.69,-252 -13.61,-459.98 -2.06,-135.94 -29.56,-241.56 -27.24,-380.83 1.72,-105.02 -0.77,-188.45 -7.45,-250.29 -24.15,-220.23 -12.85,-377.5 -37.78,-619.04 -1.71,-17.31 -2.4,-84.55 -2.05,-201.74 0.44,-15.76 -1.06,-37.1 -4.49,-57.94 -13.11,-73.75 -20.1,-142.58 -20.95,-206.48 -1.54,-117.95 -25.19,-228.45 -30.58,-326.6 -18.85,-333.73 -60.22,-720.21 -124.12,-1159.47 -61.67,-423.14 -152.64,-822.04 -272.9,-1196.71 -124.72,-389.06 -328.93,-728.17 -612.63,-1017.35 -90.71,-92.26 -212,-176.54 -310.68,-261.6 -68.18,-58.76 -149.73,-118.97 -244.63,-180.65 -267.25,-173.89 -549.41,-324.47 -846.47,-451.76 -360.62,-154.36 -711.46,-287.12 -1052.55,-398.31 -29.34,-9.77 -61.91,2.77 -77.44,30.03 -105.79,186.86 -264.08,326.91 -416.47,485.21 -85.49,88.74 -157.69,157.69 -216.62,206.86 -361.13,300.82 -750.27,543.92 -1167.42,729.29 -324.05,143.9 -898.12,240.77 -1082.37,-170.9 -107.67,-240.26 -81.98,-519.33 -80.94,-787.87 0,-0.01 0,-0.03 0,-0.04 0,-8.94 -7.25,-16.19 -16.19,-16.19 -0.34,0 -0.69,0.02 -1.03,0.04l-40.09 2.32c-4.92,0.32 -9.73,1.64 -14.14,3.84 -307.51,148.37 -601.57,343.32 -882.18,584.88 -364.13,313.24 -654.77,680.97 -815.37,1143.52 -54.65,157.09 -221.94,674.2 -501.87,1551.34 -211.57,662.65 -469.65,1474.93 -774.25,2436.87 -50.11,158.29 -81.98,264.94 -216.37,339.71 -66.3,37.01 -133.72,72.55 -202.25,106.64 -781.53,388.55 -1569.15,759.44 -2362.84,1112.7 -29.99,13.36 -80.01,32.63 -150.08,57.81 -41.63,14.9 -68.44,30.83 -80.43,47.8 -18.85,26.22 -13.11,55.33 17.21,87.37 71.61,76.06 142.37,172.08 212.26,288.07 161.04,267.42 289.69,560.71 385.97,879.87 48.83,161.89 74.7,249.18 77.61,261.86 19.7,89.25 43.09,202.49 70.15,339.71 3.36,16.81 18.14,28.93 35.29,28.93 3.1,0 6.19,-0.41 9.18,-1.19 117.51,-31 225.27,-65.94 323.26,-104.84 133.63,-53.11 230.77,-87.97 291.41,-104.59 21.41,-5.82 118.72,-40.94 291.92,-105.36 291.75,-108.61 596.94,-224.84 915.59,-348.69 433.25,-168.42 847.4,-349.92 1242.45,-544.53 76.41,-37.52 197.19,-102.46 362.34,-194.78 119.75,-66.82 227.16,-154.45 358.99,-245.68 51.22,-35.46 121.55,-93.62 210.98,-174.48 102.52,-92.5 106.89,-172.42 84.54,-309.39 -82.24,-503.93 -151.62,-972.89 -234.37,-1371.21 -50.36,-242.84 -74,-402.67 -133.62,-721.31 -13.35,-70.41 -23.73,-136.63 -31.09,-198.65 -26.98,-226.9 -63.48,-451.49 -48.31,-673.26 34.78,-500.92 110.24,-1011.87 226.39,-1532.84 22.61,-101.07 44.12,-177.91 64.5,-230.51 2.58,-6.59 8.95,-10.94 16.04,-10.94 6.88,0 13.11,4.11 15.82,10.44 25.45,61.16 5.91,169.59 -7.44,234.36 -66.47,321.89 -125.67,644.82 -177.58,968.78 -13.61,84.8 -13.87,170.11 -24.93,255.17 -24.14,182.71 -13.86,310.17 -14.38,559.69 -0.51,210.97 31.35,469.49 67.84,649.37 180.91,889.89 314.53,1603.24 407.05,2395.49 14.22,122.31 20.29,221.08 18.24,296.28 -3.35,132.6 0.77,299.38 -4.37,462.82 -1.2,38.88 0,96.36 3.6,172.42 1.54,33.75 -6.52,113.58 -24.16,239.49 -1.45,9.24 -2.24,19.21 -2.46,28.93 -0.42,114.17 -4.73,190.87 -12.96,230.1 -11.64,55.16 -16.19,114.36 -13.61,177.57 2.05,46.42 -3.86,106.3 -17.74,179.62 -3.8,20.97 -4.99,38.97 -4.24,56.86 3.47,122 -35.59,250.99 -31.73,363.81 2.05,59.1 -4.03,120.51 -18.25,184.24 -3.12,14.15 -4.74,29.34 -4.63,44.51 2.23,110.81 -6.59,212.13 -26.47,303.95 -2.21,9.23 -3.07,20.25 -2.2,31.15 5.07,53.24 2.64,112.24 -7.29,177 -19.02,123.6 -8.49,253.12 -39.33,377.23 -5.42,21.38 -7.09,43.61 -4.88,65.52 7.03,72.3 4.88,139.37 -6.42,201.22 -23.13,126.17 -9.77,254.66 -41.12,371.58 -3.6,14.44 -4.78,27.41 -4.07,40.33 3.41,76.58 -2.1,192.14 -16.49,346.67 -2.91,30.15 6.6,58.94 28.53,86.34 5.26,6.77 12.79,11.6 21.27,13.6 107.28,26.4 170.6,39.68 189.96,39.85 98.51,1.04 169.6,3.86 213.29,8.48 171.65,17.99 306.31,10.28 493.38,24.16 88.22,6.51 181.33,10.19 279.33,11.05 953.71,8.57 1910.85,8.14 2871.4,-1.29 1.2,0 37.1,0.69 107.68,2.06 108.95,2.23 209.52,-15.24 301.68,-52.42zm-15508.51 -2517.55c-116.84,-17.47 -241.21,-32.12 -373.12,-43.95 -95.85,-8.48 -172.95,-31.09 -255.69,-39.32 -235.9,-23.38 -496.99,-48.56 -751.9,-96.36 -63.56,-11.99 -143.73,-21.76 -240.52,-29.3 -152.47,-11.99 -328.42,-36.75 -527.82,-74.26 -219.21,-41.38 -490.31,-71.18 -659.14,-106.9 -53.27,-11.3 -103.13,-18.08 -149.55,-20.3 -85.06,-4.12 -155.74,-30.58 -241.31,-42.92 -50.53,-7.19 -110.75,-19.53 -180.64,-37 -81.04,-20.21 -192.47,-43.09 -334.32,-68.61 -93.54,-16.96 -164.21,-45.23 -235.91,-54.22 -34.09,-4.29 -93.19,-18.16 -177.3,-41.63 -145.97,-40.61 -251.58,-62.96 -382.13,-117.95 -193.58,-81.21 -350.07,-179.28 -469.49,-294.23 -147.5,-141.68 -285.4,-324.73 -413.72,-549.15 -176.96,-309.23 -299.79,-528.85 -368.5,-658.88 -21.58,-41.11 -35.55,-69.9 -41.88,-86.34 -28.27,-73.24 -73.75,-136.46 -111.01,-211.23 -197.87,-396.59 -339.8,-680.73 -425.8,-852.38 -17.73,-35.72 -29.04,-79.14 -44.46,-110.75 -92.34,-190.34 -177.49,-372.62 -255.43,-546.83 -316.42,-705.99 -510.44,-1145.67 -582.04,-1319.05 -20.9,-50.53 -39.41,-90.37 -55.5,-119.49 -11.88,-21.79 -34.55,-35.51 -59.35,-35.98 -100.23,-2.31 -150.6,65.53 -112.83,159.08 170.46,421.43 359.6,859.56 567.39,1314.4 42.32,92.51 68.53,150.67 78.63,174.48 68.36,159.85 154.45,318.14 217.4,458.19 45.23,100.39 89.68,194.96 133.38,283.7 271.1,552.23 544.01,1097.77 854.68,1615.32 130.54,217.06 236.5,372.36 317.87,465.89 106.22,121.98 194.19,209.09 263.91,261.34 180.23,135.34 371.5,239.84 573.83,313.51 77.77,28.1 222.79,65.44 435.05,112.03 9.08,1.89 104.76,25.88 287.04,71.96 10.82,2.63 24.35,4.88 38,5.86 73.85,5 140.51,17.61 199.96,37.82 20.37,6.49 37.93,10.01 55.51,11.45 78.8,7.44 155.8,21.53 231.01,42.26 10.66,2.69 20.28,4.27 29.84,4.87 108.07,7.89 196.46,23.82 265.17,47.81 1.62,0.4 3.43,0.85 5.31,1.2l312.3 54.05c0.69,0 1.37,0 2.05,0 80.69,3.25 156.76,13.1 228.19,29.55 68.02,15.59 129.27,26.05 183.74,31.35 100.73,9.77 162.57,17.56 185.53,23.39 134.65,34.17 286.78,25.95 425.03,67.57 11.05,3.44 24.35,6.02 37.8,7.01 104.83,6.13 214.63,21.7 329.42,46.71 9.92,1.95 19.32,3.14 28.7,3.61 192.1,9.92 308.1,20.36 348.02,31.33 43.52,11.99 99.96,19.1 169.34,21.33 78.46,2.4 176.71,12.42 294.75,30.07 99.96,14.91 197.35,16.44 287.55,32.38 57.74,11.06 116.36,-22.81 136.24,-79.82l0.72 -1.9c3.16,-9.45 4.77,-19.35 4.77,-29.31 0,-45.77 -33.51,-84.67 -78.76,-91.48l-0.01 0.02zm6172.47 -1858.17c-140.57,67.07 -242.33,119.75 -357.2,137.48 -121.8,18.84 -247.47,12.6 -376.97,-18.76 -296.29,-71.44 -594.64,-181.17 -902.75,-281.12 -249.52,-81.21 -544.27,9.24 -804.58,97.39 -242.83,82.23 -351.54,234.35 -418.86,473.6 -44.2,156.49 -116.4,343.05 -127.2,543.74 -0.04,0.84 -0.07,1.72 -0.07,2.57 0,22.61 16.53,41.84 38.88,45.22 234.09,35.47 343.56,-133.87 461.77,-295.5 126.94,-173.37 295.18,-250.46 504.7,-231.28 41.28,3.77 77.69,15.33 109.2,34.69 613.65,377.58 1190.64,791.91 1730.97,1242.97 16.49,14.2 40.83,17.06 60.98,6.77l703.25 -369.61c8.02,-4.12 12.03,-13.22 9.75,-21.94 -117.42,-472.99 -312.72,-975.37 -610.8,-1361.34 -4.78,-6.25 -13.51,-8.36 -20.91,-4.97l-0.16 0.09zm-2923.83 26.72c-66.64,21.76 -148.7,47.63 -246.18,77.61 -273.25,84.29 -543.84,121.63 -811.77,112.04 -11.7,-0.4 -21.81,8.04 -23.37,19.52 -51.41,378.44 -106.66,740.17 -165.76,1085.2 -28.79,168.4 -59.89,323.11 -93.29,464.09 -0.47,2.06 -0.71,4.19 -0.71,6.31 0,11.64 7.27,22.05 18.2,26.06 73.66,27.25 132.33,46.86 176.01,58.86 44.37,12.33 74.44,8.66 90.2,-11.05 111.86,-139.97 252.86,-187.17 422.98,-141.6 91.65,24.68 153.06,78.81 184.25,162.41 0.13,0.32 0.22,0.54 0.31,0.77 4.28,10.06 15.79,14.8 25.72,10.58 0.26,-0.11 0.54,-0.23 0.8,-0.36 219.6,-104.02 494.56,9.57 538.51,256.27 3.14,16 18.2,26.27 33.75,23.3 231.7,-42.32 432.9,74.34 428.53,320.01 0.02,0.07 0.02,0.17 0.02,0.25 0,8.52 6.9,15.42 15.41,15.42 0.09,0 0.18,0 0.26,0 155.71,-3.59 209.68,51.14 306.56,151.87 9.54,9.88 20.47,18.29 32.39,24.93 199.22,114.44 318.63,183.13 358.21,206.09 200.95,116.67 352.82,216.12 514.96,12.08 47.97,-60.3 38.46,-115.13 -28.52,-164.46 -290.38,-214.49 -497.59,-358.48 -621.62,-431.98 -27.57,-16.44 -49.41,-41.36 -65.52,-74.77 -34.95,-72.99 28.01,-145.19 101.25,-115.39 42.14,17.31 100.55,52.94 175.25,106.91 206.95,150.07 404.48,295.17 592.57,435.31 56.29,41.63 142.11,81.71 215.61,48.31 132.34,-59.62 266.74,-197.86 102.27,-328.15 -136.36,-107.76 -284.04,-212.6 -443.01,-314.53 -162.75,-104.34 -283.88,-186.91 -363.36,-247.72 -22.23,-17.03 -35.29,-43.46 -35.29,-71.46 0,-17.84 5.31,-35.3 15.25,-50.12l1.78 -2.55c16.19,-24.01 43.29,-38.42 72.25,-38.42 17.29,0 34.2,5.16 48.53,14.77 332.01,223.4 638.41,439.87 919.19,649.39 74.78,56.01 188.62,-3.86 253.38,-54.23 162.41,-125.91 5.91,-321.21 -113.83,-419.38 -538.79,-441.99 -1089.23,-833.62 -1651.31,-1174.87 -28.95,-17.47 -70.67,-23.47 -125.14,-18 -125.58,12.68 -219.72,65.8 -282.42,159.34 -62.01,92.85 -129.34,175.51 -201.98,247.96 -198.64,197.88 -664.79,207.65 -617.5,-193.74 21.93,-186.91 78.63,-396 170.11,-627.28 16.62,-41.79 45.57,-109.73 86.86,-203.77 0.52,-1.13 0.77,-2.34 0.77,-3.57 0,-4.82 -3.91,-8.74 -8.74,-8.74 -0.95,0 -1.91,0.17 -2.81,0.47l-0.01 0.01zm-619.82 2018.26c38.81,-98.42 -24.92,-152.9 -117.44,-160.6 -37,-3.09 -77,12.33 -120,46.24 -133.12,105.11 -310.42,289.87 -149.56,440.97 35.29,33.41 75.46,51.23 120.52,53.45 58.08,2.84 91.99,-59.35 128.74,-120.01 66.48,-109.29 112.39,-195.97 137.74,-260.05zm68.86 257.75c-79.13,134.39 -181.41,249.26 -86.33,386.74 72.98,105.61 189.13,165.74 295.51,56.53 61.17,-62.95 83.52,-119.24 149.82,-232.04 66.56,-113.08 104.84,-159.84 130.03,-243.87 43.94,-146.22 -65.27,-218.43 -192.73,-231.02 -166.52,-16.19 -217.15,129 -296.3,263.66zm915.6 78.12c-53.28,-35.47 -117.78,-46.77 -193.5,-33.93 -79.92,13.63 -138.51,95.85 -173.2,161.13 -62.02,116.15 -118.54,215.51 -169.6,298.08 -137.48,222.28 201.21,365.16 302.19,205.58 45.24,-71.09 117.28,-204.2 216.12,-399.34 30.33,-59.87 85.57,-186.56 17.99,-231.52zm371.58 474.36c14.65,-59.87 6.94,-124.62 -57.3,-149.55 -106.65,-41.38 -184.77,11.3 -245.92,102.01 -64.93,96.63 -117.19,196.07 -156.76,298.35 -14.22,36.66 -9.33,68.01 14.65,94.06 221.51,241.03 402.68,-171.16 445.33,-344.87zm165.49 43.44l-69.38 210.45c-2.59,7.78 1.22,16.44 8.82,19.71 76.18,31.92 163.35,55.41 261.51,70.48 76.92,11.83 129.68,-12.84 158.3,-74 8.68,-18.22 1.95,-40.39 -15.62,-50.7l-319.98 -184.94c-0.67,-0.38 -1.17,-0.62 -1.67,-0.84 -8.37,-3.54 -17.97,0.26 -21.47,8.49 -0.21,0.5 -0.41,1.02 -0.57,1.56l0.06 -0.21z"/>
  </g>
 </g>
</svg>
