<svg width="25" height="24" viewBox="0 0 25 24" fill="none" xmlns="http://www.w3.org/2000/svg">
<g clip-path="url(#clip0_923_957)">
<path d="M17.4987 1.20898L18.8175 3.68181L21.2903 5.00065L18.8175 6.31949L17.4987 8.79232L16.1798 6.31949L13.707 5.00065L16.1798 3.68181L17.4987 1.20898ZM11.1653 9.33398L16.1653 12.0006L11.1653 14.6673L8.4987 19.6673L5.83203 14.6673L0.832031 12.0006L5.83203 9.33398L8.4987 4.33398L11.1653 9.33398ZM11.9153 12.0006L9.6871 10.8122L8.4987 8.58398L7.31029 10.8122L5.08203 12.0006L7.31029 13.189L8.4987 15.4173L9.6871 13.189L11.9153 12.0006ZM20.1653 16.334L18.4987 13.209L16.832 16.334L13.707 18.0006L16.832 19.6673L18.4987 22.7923L20.1653 19.6673L23.2903 18.0006L20.1653 16.334Z" fill="white"/>
</g>
<defs>
<clipPath id="clip0_923_957">
<rect width="24" height="24" fill="white" transform="translate(0.5)"/>
</clipPath>
</defs>
</svg>
