<svg width="52" height="52" viewBox="0 0 52 52" fill="none" xmlns="http://www.w3.org/2000/svg">
<g filter="url(#filter0_i_90_115)">
<path d="M0 10C0 4.47715 4.47715 0 10 0H42C47.5228 0 52 4.47715 52 10V42C52 47.5228 47.5228 52 42 52H10C4.47715 52 0 47.5228 0 42V10Z" fill="#9216FF" fill-opacity="0.04"/>
<path d="M10 0.5H42C47.2467 0.5 51.5 4.7533 51.5 10V42C51.5 47.2467 47.2467 51.5 42 51.5H10C4.7533 51.5 0.5 47.2467 0.5 42V10C0.500001 4.7533 4.7533 0.5 10 0.5Z" stroke="url(#paint0_radial_90_115)"/>
<path d="M22.5002 16.6666C23.7889 16.6666 24.8335 17.7113 24.8335 18.9999V26.9649C23.7903 26.1601 22.4605 25.6855 20.942 25.4325L20.5584 27.7341C22.1691 28.0025 23.1972 28.5115 23.8304 29.1975C24.4485 29.8671 24.8335 30.8614 24.8335 32.4166C24.8335 34.0274 23.5277 35.3333 21.9168 35.3333C20.306 35.3333 19.0002 34.0274 19.0002 32.4166V32.0074C19.5019 32.1746 20.0226 32.3115 20.5584 32.4007L20.942 30.0991C20.0752 29.9547 19.2046 29.6334 18.3341 29.2198C17.3453 28.7501 16.6668 27.7488 16.6668 26.5833C16.6668 25.6094 16.909 24.8432 17.3187 24.2799C17.722 23.7254 18.349 23.2819 19.2831 23.0484L20.1668 22.8275V18.9999C20.1668 17.7113 21.2115 16.6666 22.5002 16.6666ZM26.0002 15.9131C25.1451 14.9443 23.894 14.3333 22.5002 14.3333C19.9228 14.3333 17.8335 16.4226 17.8335 18.9999V21.0698C16.8406 21.4691 16.0268 22.0891 15.4316 22.9075C14.6746 23.9483 14.3335 25.2237 14.3335 26.5833C14.3335 28.4093 15.2618 30.0094 16.6668 30.9492V32.4166C16.6668 35.3161 19.0173 37.6666 21.9168 37.6666C23.5661 37.6666 25.0377 36.9062 26.0002 35.7167C26.9627 36.9062 28.4343 37.6666 30.0835 37.6666C32.983 37.6666 35.3335 35.3161 35.3335 32.4166V30.9492C36.7386 30.0094 37.6668 28.4093 37.6668 26.5833C37.6668 25.2237 37.3257 23.9483 36.5686 22.9075C35.9735 22.0891 35.1598 21.4691 34.1668 21.0698V18.9999C34.1668 16.4226 32.0774 14.3333 29.5002 14.3333C28.1063 14.3333 26.8552 14.9443 26.0002 15.9131ZM33.0002 32.0074V32.4166C33.0002 34.0274 31.6943 35.3333 30.0835 35.3333C28.4727 35.3333 27.1668 34.0274 27.1668 32.4166C27.1668 30.8614 27.5518 29.8671 28.1699 29.1975C28.8032 28.5115 29.8313 28.0025 31.442 27.7341L31.0584 25.4325C29.5398 25.6855 28.2101 26.1601 27.1668 26.9649V18.9999C27.1668 17.7113 28.2115 16.6666 29.5002 16.6666C30.7889 16.6666 31.8335 17.7113 31.8335 18.9999V22.8275L32.7172 23.0484C33.6513 23.2819 34.2784 23.7254 34.6817 24.2799C35.0913 24.8432 35.3335 25.6094 35.3335 26.5833C35.3335 27.7488 34.655 28.7501 33.6662 29.2198C32.7958 29.6334 31.9251 29.9547 31.0584 30.0991L31.442 32.4007C31.9778 32.3115 32.4984 32.1746 33.0002 32.0074Z" fill="url(#paint1_linear_90_115)"/>
</g>
<defs>
<filter id="filter0_i_90_115" x="0" y="0" width="52" height="52" filterUnits="userSpaceOnUse" color-interpolation-filters="sRGB">
<feFlood flood-opacity="0" result="BackgroundImageFix"/>
<feBlend mode="normal" in="SourceGraphic" in2="BackgroundImageFix" result="shape"/>
<feColorMatrix in="SourceAlpha" type="matrix" values="0 0 0 0 0 0 0 0 0 0 0 0 0 0 0 0 0 0 127 0" result="hardAlpha"/>
<feOffset/>
<feGaussianBlur stdDeviation="4"/>
<feComposite in2="hardAlpha" operator="arithmetic" k2="-1" k3="1"/>
<feColorMatrix type="matrix" values="0 0 0 0 0.572549 0 0 0 0 0.0862745 0 0 0 0 1 0 0 0 0.4 0"/>
<feBlend mode="normal" in2="shape" result="effect1_innerShadow_90_115"/>
</filter>
<radialGradient id="paint0_radial_90_115" cx="0" cy="0" r="1" gradientUnits="userSpaceOnUse" gradientTransform="translate(26) rotate(90) scale(35.75 27.5913)">
<stop stop-color="white"/>
<stop offset="1" stop-color="#D6BEFF" stop-opacity="0"/>
</radialGradient>
<linearGradient id="paint1_linear_90_115" x1="26.0002" y1="14.3333" x2="26.0002" y2="37.6666" gradientUnits="userSpaceOnUse">
<stop stop-color="#D6BEFF"/>
<stop offset="1" stop-color="#9216FF"/>
</linearGradient>
</defs>
</svg>
