<svg width="52" height="52" viewBox="0 0 52 52" fill="none" xmlns="http://www.w3.org/2000/svg">
<g filter="url(#filter0_i_90_108)">
<path d="M0 10C0 4.47715 4.47715 0 10 0H42C47.5228 0 52 4.47715 52 10V42C52 47.5228 47.5228 52 42 52H10C4.47715 52 0 47.5228 0 42V10Z" fill="#9216FF" fill-opacity="0.04"/>
<path d="M10 0.5H42C47.2467 0.5 51.5 4.7533 51.5 10V42C51.5 47.2467 47.2467 51.5 42 51.5H10C4.7533 51.5 0.5 47.2467 0.5 42V10C0.500001 4.7533 4.7533 0.5 10 0.5Z" stroke="url(#paint0_radial_90_108)"/>
<path d="M26.0002 16.6666C29.2069 16.6666 32.0375 18.2839 33.7184 20.7499H30.6668V23.0833H37.6668V16.0833H35.3335V18.9992C33.2057 16.1669 29.818 14.3333 26.0002 14.3333C19.5568 14.3333 14.3335 19.5566 14.3335 25.9999H16.6668C16.6668 20.8453 20.8455 16.6666 26.0002 16.6666ZM35.3335 25.9999C35.3335 31.1546 31.1548 35.3333 26.0002 35.3333C22.7935 35.3333 19.9628 33.7159 18.282 31.2499H21.3335V28.9166H14.3335V35.9166H16.6668V33.0006C18.7946 35.8329 22.1824 37.6666 26.0002 37.6666C32.4434 37.6666 37.6668 32.4432 37.6668 25.9999H35.3335Z" fill="url(#paint1_linear_90_108)"/>
</g>
<defs>
<filter id="filter0_i_90_108" x="0" y="0" width="52" height="52" filterUnits="userSpaceOnUse" color-interpolation-filters="sRGB">
<feFlood flood-opacity="0" result="BackgroundImageFix"/>
<feBlend mode="normal" in="SourceGraphic" in2="BackgroundImageFix" result="shape"/>
<feColorMatrix in="SourceAlpha" type="matrix" values="0 0 0 0 0 0 0 0 0 0 0 0 0 0 0 0 0 0 127 0" result="hardAlpha"/>
<feOffset/>
<feGaussianBlur stdDeviation="4"/>
<feComposite in2="hardAlpha" operator="arithmetic" k2="-1" k3="1"/>
<feColorMatrix type="matrix" values="0 0 0 0 0.572549 0 0 0 0 0.0862745 0 0 0 0 1 0 0 0 0.4 0"/>
<feBlend mode="normal" in2="shape" result="effect1_innerShadow_90_108"/>
</filter>
<radialGradient id="paint0_radial_90_108" cx="0" cy="0" r="1" gradientUnits="userSpaceOnUse" gradientTransform="translate(26) rotate(90) scale(35.75 27.5913)">
<stop stop-color="white"/>
<stop offset="1" stop-color="#D6BEFF" stop-opacity="0"/>
</radialGradient>
<linearGradient id="paint1_linear_90_108" x1="26.0002" y1="14.3333" x2="26.0002" y2="37.6666" gradientUnits="userSpaceOnUse">
<stop stop-color="#D6BEFF"/>
<stop offset="1" stop-color="#9216FF"/>
</linearGradient>
</defs>
</svg>
