<svg width="48" height="48" viewBox="0 0 48 48" fill="none" xmlns="http://www.w3.org/2000/svg">
<g filter="url(#filter0_i_90_93)">
<path d="M0 10C0 4.47715 4.47715 0 10 0H38C43.5229 0 48 4.47715 48 10V38C48 43.5229 43.5228 48 38 48H10C4.47715 48 0 43.5228 0 38V10Z" fill="#9216FF" fill-opacity="0.04"/>
<path d="M10 0.5H38C43.2467 0.5 47.5 4.75329 47.5 10V38C47.5 43.2467 43.2467 47.5 38 47.5H10C4.7533 47.5 0.5 43.2467 0.5 38V10C0.5 4.7533 4.75329 0.5 10 0.5Z" stroke="url(#paint0_radial_90_93)"/>
<path d="M23.9998 13L18 23H30L23.9998 13ZM23.9998 16.8873L26.4676 21H21.5323L23.9998 16.8873ZM18.75 32C17.2312 32 16 30.7688 16 29.25C16 27.7312 17.2312 26.5 18.75 26.5C20.2688 26.5 21.5 27.7312 21.5 29.25C21.5 30.7688 20.2688 32 18.75 32ZM18.75 34C21.3734 34 23.5 31.8734 23.5 29.25C23.5 26.6266 21.3734 24.5 18.75 24.5C16.1267 24.5 14 26.6266 14 29.25C14 31.8734 16.1267 34 18.75 34ZM27 27.5V31.5H31V27.5H27ZM25 33.5V25.5H33V33.5H25Z" fill="url(#paint1_linear_90_93)"/>
</g>
<defs>
<filter id="filter0_i_90_93" x="0" y="0" width="48" height="48" filterUnits="userSpaceOnUse" color-interpolation-filters="sRGB">
<feFlood flood-opacity="0" result="BackgroundImageFix"/>
<feBlend mode="normal" in="SourceGraphic" in2="BackgroundImageFix" result="shape"/>
<feColorMatrix in="SourceAlpha" type="matrix" values="0 0 0 0 0 0 0 0 0 0 0 0 0 0 0 0 0 0 127 0" result="hardAlpha"/>
<feOffset/>
<feGaussianBlur stdDeviation="4"/>
<feComposite in2="hardAlpha" operator="arithmetic" k2="-1" k3="1"/>
<feColorMatrix type="matrix" values="0 0 0 0 0.572549 0 0 0 0 0.0862745 0 0 0 0 1 0 0 0 0.4 0"/>
<feBlend mode="normal" in2="shape" result="effect1_innerShadow_90_93"/>
</filter>
<radialGradient id="paint0_radial_90_93" cx="0" cy="0" r="1" gradientUnits="userSpaceOnUse" gradientTransform="translate(24) rotate(90) scale(33 25.4689)">
<stop stop-color="white"/>
<stop offset="1" stop-color="#D6BEFF" stop-opacity="0"/>
</radialGradient>
<linearGradient id="paint1_linear_90_93" x1="23.5" y1="13" x2="23.5" y2="34" gradientUnits="userSpaceOnUse">
<stop stop-color="#D6BEFF"/>
<stop offset="1" stop-color="#9216FF"/>
</linearGradient>
</defs>
</svg>
