<svg width="21" height="20" viewBox="0 0 21 20" fill="none" xmlns="http://www.w3.org/2000/svg">
<path d="M7.11621 14.9993C6.86862 13.9388 5.75213 13.0708 5.29366 12.4987C4.37907 11.3574 3.83203 9.90893 3.83203 8.33268C3.83203 4.65078 6.8168 1.66602 10.4987 1.66602C14.1806 1.66602 17.1654 4.65078 17.1654 8.33268C17.1654 9.90977 16.6177 11.3589 15.7023 12.5005C15.244 13.0718 14.1285 13.939 13.8812 14.9993H7.11621ZM13.832 16.666V17.4993C13.832 18.4198 13.0859 19.166 12.1654 19.166H8.83203C7.91156 19.166 7.16536 18.4198 7.16536 17.4993V16.666H13.832ZM11.332 8.33668V4.99935L7.58203 10.0033H9.66536V13.3367L13.4154 8.33668H11.332Z" fill="white"/>
</svg>
