<svg width="72" height="72" viewBox="0 0 72 72" fill="none" xmlns="http://www.w3.org/2000/svg">
<rect width="72" height="72" rx="36" fill="white" fill-opacity="0.04"/>
<path d="M42.6654 42.6654C45.4269 42.6654 47.6654 44.9039 47.6654 47.6654C47.6654 50.4269 45.4269 52.6654 42.6654 52.6654C39.9039 52.6654 37.6654 50.4269 37.6654 47.6654C37.6654 44.9039 39.9039 42.6654 42.6654 42.6654ZM25.9987 35.9987C29.6806 35.9987 32.6654 38.9835 32.6654 42.6654C32.6654 46.3472 29.6806 49.332 25.9987 49.332C22.3168 49.332 19.332 46.3472 19.332 42.6654C19.332 38.9835 22.3168 35.9987 25.9987 35.9987ZM42.6654 45.9987C41.7449 45.9987 40.9987 46.7449 40.9987 47.6654C40.9987 48.5859 41.7449 49.332 42.6654 49.332C43.5859 49.332 44.332 48.5859 44.332 47.6654C44.332 46.7449 43.5859 45.9987 42.6654 45.9987ZM25.9987 39.332C24.1577 39.332 22.6654 40.8244 22.6654 42.6654C22.6654 44.5064 24.1577 45.9987 25.9987 45.9987C27.8396 45.9987 29.332 44.5064 29.332 42.6654C29.332 40.8244 27.8396 39.332 25.9987 39.332ZM40.1654 19.332C45.228 19.332 49.332 23.4361 49.332 28.4987C49.332 33.5614 45.228 37.6654 40.1654 37.6654C35.1027 37.6654 30.9987 33.5614 30.9987 28.4987C30.9987 23.4361 35.1027 19.332 40.1654 19.332ZM40.1654 22.6654C36.9437 22.6654 34.332 25.277 34.332 28.4987C34.332 31.7204 36.9437 34.332 40.1654 34.332C43.387 34.332 45.9987 31.7204 45.9987 28.4987C45.9987 25.277 43.387 22.6654 40.1654 22.6654Z" fill="white"/>
</svg>
