<svg width="32" height="32" viewBox="0 0 32 32" fill="none" xmlns="http://www.w3.org/2000/svg">
<path d="M17 21.2258H17.8667C18.7333 21.2258 19.4533 20.4524 19.4533 19.5191C19.4533 18.3591 19.04 18.1324 18.36 17.8924L17.0133 17.4258V21.2258H17Z" fill="#B7995B"/>
<path d="M15.9595 2.53127C8.59944 2.55794 2.63944 8.5446 2.6661 15.9047C2.69277 23.2647 8.67944 29.2247 16.0395 29.198C23.3995 29.1713 29.3595 23.1847 29.3328 15.8247C29.3061 8.4646 23.3195 2.51794 15.9595 2.53127ZM19.0128 15.998C20.0528 16.358 21.4528 17.1313 21.4528 19.518C21.4528 21.5713 19.8395 23.2247 17.8661 23.2247H16.9995V23.998C16.9995 24.5447 16.5461 24.998 15.9995 24.998C15.4528 24.998 14.9995 24.5447 14.9995 23.998V23.2247H14.5195C12.3328 23.2247 10.5594 21.3847 10.5594 19.118C10.5594 18.5713 11.0128 18.118 11.5594 18.118C12.1061 18.118 12.5594 18.5713 12.5594 19.118C12.5594 20.278 13.4395 21.2247 14.5195 21.2247H14.9995V16.718L12.9861 15.998C11.9461 15.638 10.5461 14.8647 10.5461 12.4779C10.5461 10.4246 12.1594 8.77127 14.1328 8.77127H14.9995V7.99794C14.9995 7.45127 15.4528 6.99794 15.9995 6.99794C16.5461 6.99794 16.9995 7.45127 16.9995 7.99794V8.77127H17.4795C19.6661 8.77127 21.4395 10.6113 21.4395 12.8779C21.4395 13.4247 20.9861 13.878 20.4395 13.878C19.8928 13.878 19.4395 13.4247 19.4395 12.8779C19.4395 11.7179 18.5595 10.7713 17.4795 10.7713H16.9995V15.278L19.0128 15.998Z" fill="#B7995B"/>
<path d="M12.5625 12.4895C12.5625 13.6495 12.9758 13.8762 13.6559 14.1162L15.0025 14.5828V10.7695H14.1359C13.2692 10.7695 12.5625 11.5429 12.5625 12.4895Z" fill="#B7995B"/>
</svg>
