<svg width="72" height="72" viewBox="0 0 72 72" fill="none" xmlns="http://www.w3.org/2000/svg">
<rect width="72" height="72" rx="36" fill="white" fill-opacity="0.04"/>
<path d="M22.668 41V30.1667C22.668 26.0245 26.0258 22.6667 30.168 22.6667C34.3101 22.6667 37.668 26.0245 37.668 30.1667V41.8333C37.668 44.1345 39.5335 46 41.8346 46C44.1358 46 46.0013 44.1345 46.0013 41.8333V30.7155C44.0593 30.0291 42.668 28.177 42.668 26C42.668 23.2386 44.9065 21 47.668 21C50.4295 21 52.668 23.2386 52.668 26C52.668 28.177 51.2766 30.0291 49.3346 30.7155V41.8333C49.3346 45.9755 45.9768 49.3333 41.8346 49.3333C37.6925 49.3333 34.3346 45.9755 34.3346 41.8333V30.1667C34.3346 27.8655 32.4692 26 30.168 26C27.8668 26 26.0013 27.8655 26.0013 30.1667V41H31.0013L24.3346 49.3333L17.668 41H22.668ZM47.668 27.6667C48.5885 27.6667 49.3346 26.9205 49.3346 26C49.3346 25.0795 48.5885 24.3333 47.668 24.3333C46.7475 24.3333 46.0013 25.0795 46.0013 26C46.0013 26.9205 46.7475 27.6667 47.668 27.6667Z" fill="white"/>
</svg>
