<svg width="44" height="44" viewBox="0 0 44 44" fill="none" xmlns="http://www.w3.org/2000/svg">
<rect width="44" height="44" rx="22" fill="url(#paint0_linear_90_233)"/>
<rect x="0.5" y="0.5" width="43" height="43" rx="21.5" stroke="white" stroke-opacity="0.56"/>
<path d="M22.0008 13.6665C17.3984 13.6665 13.6675 17.3975 13.6675 21.9998C13.6675 26.1593 16.7149 29.6068 20.6987 30.2319V24.4087H18.5828V21.9998H20.6987V20.1639C20.6987 18.0754 21.9428 16.9217 23.8463 16.9217C24.7581 16.9217 25.7117 17.0845 25.7117 17.0845V19.1353H24.6609C23.6257 19.1353 23.3029 19.7776 23.3029 20.4367V21.9998H25.6141L25.2447 24.4087H23.3029V30.2319C27.2867 29.6068 30.3342 26.1593 30.3342 21.9998C30.3342 17.3975 26.6032 13.6665 22.0008 13.6665Z" fill="white"/>
<defs>
<linearGradient id="paint0_linear_90_233" x1="22" y1="0" x2="22" y2="44" gradientUnits="userSpaceOnUse">
<stop stop-color="#D6BEFF"/>
<stop offset="1" stop-color="#9216FF"/>
</linearGradient>
</defs>
</svg>
