<svg width="48" height="48" viewBox="0 0 48 48" fill="none" xmlns="http://www.w3.org/2000/svg">
<path d="M21.9995 12.0002H27.9995L34.5795 5.40019C34.7654 5.21273 34.9866 5.06394 35.2303 4.96241C35.474 4.86087 35.7355 4.80859 35.9995 4.80859C36.2635 4.80859 36.5249 4.86087 36.7686 4.96241C37.0123 5.06394 37.2336 5.21273 37.4195 5.40019L42.5795 10.5802C42.952 10.9549 43.1611 11.4618 43.1611 11.9902C43.1611 12.5186 42.952 13.0255 42.5795 13.4002L37.9995 18.0002H21.9995V22.0002C21.9995 22.5306 21.7888 23.0393 21.4137 23.4144C21.0386 23.7895 20.5299 24.0002 19.9995 24.0002C19.469 24.0002 18.9603 23.7895 18.5853 23.4144C18.2102 23.0393 17.9995 22.5306 17.9995 22.0002V16.0002C17.9995 14.9393 18.4209 13.9219 19.171 13.1718C19.9212 12.4216 20.9386 12.0002 21.9995 12.0002ZM9.99948 22.0002V30.0002L5.41948 34.5802C5.04697 34.9549 4.83789 35.4618 4.83789 35.9902C4.83789 36.5186 5.04697 37.0255 5.41948 37.4002L10.5795 42.5802C10.7654 42.7677 10.9866 42.9164 11.2303 43.018C11.474 43.1195 11.7355 43.1718 11.9995 43.1718C12.2635 43.1718 12.5249 43.1195 12.7686 43.018C13.0123 42.9164 13.2335 42.7677 13.4195 42.5802L21.9995 34.0002H29.9995C30.5299 34.0002 31.0386 33.7895 31.4137 33.4144C31.7888 33.0393 31.9995 32.5306 31.9995 32.0002V30.0002H33.9995C34.5299 30.0002 35.0386 29.7895 35.4137 29.4144C35.7888 29.0393 35.9995 28.5306 35.9995 28.0002V26.0002H37.9995C38.5299 26.0002 39.0386 25.7895 39.4137 25.4144C39.7888 25.0393 39.9995 24.5306 39.9995 24.0002V22.0002H25.9995V24.0002C25.9995 25.0611 25.578 26.0785 24.8279 26.8286C24.0778 27.5788 23.0603 28.0002 21.9995 28.0002H17.9995C16.9386 28.0002 15.9212 27.5788 15.171 26.8286C14.4209 26.0785 13.9995 25.0611 13.9995 24.0002V18.0002L9.99948 22.0002Z" fill="#B7995B"/>
</svg>
