<svg width="52" height="52" viewBox="0 0 52 52" fill="none" xmlns="http://www.w3.org/2000/svg">
<g filter="url(#filter0_i_90_585)">
<path d="M0 10C0 4.47715 4.47715 0 10 0H42C47.5228 0 52 4.47715 52 10V42C52 47.5228 47.5228 52 42 52H10C4.47715 52 0 47.5228 0 42V10Z" fill="#9216FF" fill-opacity="0.04"/>
<path d="M10 0.5H42C47.2467 0.5 51.5 4.7533 51.5 10V42C51.5 47.2467 47.2467 51.5 42 51.5H10C4.7533 51.5 0.5 47.2467 0.5 42V10C0.500001 4.7533 4.7533 0.5 10 0.5Z" stroke="url(#paint0_radial_90_585)"/>
<path d="M22.4997 16.6667C23.7884 16.6667 24.833 17.7114 24.833 19V26.965C23.7898 26.1602 22.46 25.6856 20.9415 25.4326L20.5579 27.7342C22.1686 28.0026 23.1967 28.5116 23.8299 29.1976C24.448 29.8672 24.833 30.8615 24.833 32.4167C24.833 34.0275 23.5272 35.3334 21.9163 35.3334C20.3055 35.3334 18.9997 34.0275 18.9997 32.4167V32.0076C19.5014 32.1747 20.0221 32.3116 20.5579 32.4008L20.9415 30.0992C20.0747 29.9548 19.2041 29.6335 18.3336 29.2199C17.3448 28.7502 16.6663 27.7489 16.6663 26.5834C16.6663 25.6096 16.9086 24.8433 17.3182 24.28C17.7215 23.7255 18.3486 23.2821 19.2826 23.0485L20.1663 22.8276V19C20.1663 17.7114 21.211 16.6667 22.4997 16.6667ZM25.9997 15.9133C25.1446 14.9444 23.8935 14.3334 22.4997 14.3334C19.9223 14.3334 17.833 16.4227 17.833 19V21.07C16.8401 21.4692 16.0263 22.0892 15.4311 22.9076C14.6741 23.9485 14.333 25.2239 14.333 26.5834C14.333 28.4094 15.2613 30.0095 16.6663 30.9493V32.4167C16.6663 35.3162 19.0168 37.6667 21.9163 37.6667C23.5656 37.6667 25.0372 36.9063 25.9997 35.7169C26.9622 36.9063 28.4338 37.6667 30.083 37.6667C32.9825 37.6667 35.333 35.3162 35.333 32.4167V30.9493C36.7381 30.0095 37.6663 28.4094 37.6663 26.5834C37.6663 25.2239 37.3252 23.9485 36.5682 22.9076C35.973 22.0892 35.1593 21.4692 34.1663 21.07V19C34.1663 16.4227 32.077 14.3334 29.4997 14.3334C28.1059 14.3334 26.8547 14.9444 25.9997 15.9133ZM32.9997 32.0076V32.4167C32.9997 34.0275 31.6938 35.3334 30.083 35.3334C28.4722 35.3334 27.1663 34.0275 27.1663 32.4167C27.1663 30.8615 27.5513 29.8672 28.1694 29.1976C28.8027 28.5116 29.8308 28.0026 31.4415 27.7342L31.0579 25.4326C29.5393 25.6856 28.2096 26.1602 27.1663 26.965V19C27.1663 17.7114 28.211 16.6667 29.4997 16.6667C30.7884 16.6667 31.833 17.7114 31.833 19V22.8276L32.7168 23.0485C33.6508 23.2821 34.2779 23.7255 34.6812 24.28C35.0908 24.8433 35.333 25.6096 35.333 26.5834C35.333 27.7489 34.6545 28.7502 33.6657 29.2199C32.7953 29.6335 31.9246 29.9548 31.0579 30.0992L31.4415 32.4008C31.9773 32.3116 32.4979 32.1747 32.9997 32.0076Z" fill="url(#paint1_linear_90_585)"/>
</g>
<defs>
<filter id="filter0_i_90_585" x="0" y="0" width="52" height="52" filterUnits="userSpaceOnUse" color-interpolation-filters="sRGB">
<feFlood flood-opacity="0" result="BackgroundImageFix"/>
<feBlend mode="normal" in="SourceGraphic" in2="BackgroundImageFix" result="shape"/>
<feColorMatrix in="SourceAlpha" type="matrix" values="0 0 0 0 0 0 0 0 0 0 0 0 0 0 0 0 0 0 127 0" result="hardAlpha"/>
<feOffset/>
<feGaussianBlur stdDeviation="4"/>
<feComposite in2="hardAlpha" operator="arithmetic" k2="-1" k3="1"/>
<feColorMatrix type="matrix" values="0 0 0 0 0.572549 0 0 0 0 0.0862745 0 0 0 0 1 0 0 0 0.4 0"/>
<feBlend mode="normal" in2="shape" result="effect1_innerShadow_90_585"/>
</filter>
<radialGradient id="paint0_radial_90_585" cx="0" cy="0" r="1" gradientUnits="userSpaceOnUse" gradientTransform="translate(26) rotate(90) scale(35.75 27.5913)">
<stop stop-color="white"/>
<stop offset="1" stop-color="#D6BEFF" stop-opacity="0"/>
</radialGradient>
<linearGradient id="paint1_linear_90_585" x1="25.9997" y1="14.3334" x2="25.9997" y2="37.6667" gradientUnits="userSpaceOnUse">
<stop stop-color="#D6BEFF"/>
<stop offset="1" stop-color="#9216FF"/>
</linearGradient>
</defs>
</svg>
