<svg width="53" height="52" viewBox="0 0 53 52" fill="none" xmlns="http://www.w3.org/2000/svg">
<g filter="url(#filter0_i_90_310)">
<path d="M0.5 10C0.5 4.47715 4.97715 0 10.5 0H42.5C48.0228 0 52.5 4.47715 52.5 10V42C52.5 47.5228 48.0228 52 42.5 52H10.5C4.97715 52 0.5 47.5228 0.5 42V10Z" fill="#9216FF" fill-opacity="0.04"/>
<path d="M10.5 0.5H42.5C47.7467 0.5 52 4.7533 52 10V42C52 47.2467 47.7467 51.5 42.5 51.5H10.5C5.2533 51.5 1 47.2467 1 42V10C1 4.7533 5.2533 0.5 10.5 0.5Z" stroke="url(#paint0_radial_90_310)"/>
<path d="M23.0002 16.6667C24.2889 16.6667 25.3335 17.7114 25.3335 19V26.965C24.2903 26.1602 22.9605 25.6856 21.442 25.4326L21.0584 27.7342C22.6691 28.0026 23.6972 28.5116 24.3304 29.1976C24.9485 29.8672 25.3335 30.8615 25.3335 32.4167C25.3335 34.0275 24.0277 35.3334 22.4168 35.3334C20.806 35.3334 19.5002 34.0275 19.5002 32.4167V32.0076C20.0019 32.1747 20.5226 32.3116 21.0584 32.4008L21.442 30.0992C20.5752 29.9548 19.7046 29.6335 18.8341 29.2199C17.8453 28.7502 17.1668 27.7489 17.1668 26.5834C17.1668 25.6096 17.409 24.8433 17.8187 24.28C18.222 23.7255 18.849 23.2821 19.7831 23.0485L20.6668 22.8276V19C20.6668 17.7114 21.7115 16.6667 23.0002 16.6667ZM26.5002 15.9133C25.6451 14.9444 24.394 14.3334 23.0002 14.3334C20.4228 14.3334 18.3335 16.4227 18.3335 19V21.07C17.3406 21.4692 16.5268 22.0892 15.9316 22.9076C15.1746 23.9485 14.8335 25.2239 14.8335 26.5834C14.8335 28.4094 15.7618 30.0095 17.1668 30.9493V32.4167C17.1668 35.3162 19.5173 37.6667 22.4168 37.6667C24.0661 37.6667 25.5377 36.9063 26.5002 35.7169C27.4627 36.9063 28.9343 37.6667 30.5835 37.6667C33.483 37.6667 35.8335 35.3162 35.8335 32.4167V30.9493C37.2386 30.0095 38.1668 28.4094 38.1668 26.5834C38.1668 25.2239 37.8257 23.9485 37.0686 22.9076C36.4735 22.0892 35.6598 21.4692 34.6668 21.07V19C34.6668 16.4227 32.5774 14.3334 30.0002 14.3334C28.6063 14.3334 27.3552 14.9444 26.5002 15.9133ZM33.5002 32.0076V32.4167C33.5002 34.0275 32.1943 35.3334 30.5835 35.3334C28.9727 35.3334 27.6668 34.0275 27.6668 32.4167C27.6668 30.8615 28.0518 29.8672 28.6699 29.1976C29.3032 28.5116 30.3313 28.0026 31.942 27.7342L31.5584 25.4326C30.0398 25.6856 28.7101 26.1602 27.6668 26.965V19C27.6668 17.7114 28.7115 16.6667 30.0002 16.6667C31.2889 16.6667 32.3335 17.7114 32.3335 19V22.8276L33.2172 23.0485C34.1513 23.2821 34.7784 23.7255 35.1817 24.28C35.5913 24.8433 35.8335 25.6096 35.8335 26.5834C35.8335 27.7489 35.155 28.7502 34.1662 29.2199C33.2958 29.6335 32.4251 29.9548 31.5584 30.0992L31.942 32.4008C32.4778 32.3116 32.9984 32.1747 33.5002 32.0076Z" fill="url(#paint1_linear_90_310)"/>
</g>
<defs>
<filter id="filter0_i_90_310" x="0.5" y="0" width="52" height="52" filterUnits="userSpaceOnUse" color-interpolation-filters="sRGB">
<feFlood flood-opacity="0" result="BackgroundImageFix"/>
<feBlend mode="normal" in="SourceGraphic" in2="BackgroundImageFix" result="shape"/>
<feColorMatrix in="SourceAlpha" type="matrix" values="0 0 0 0 0 0 0 0 0 0 0 0 0 0 0 0 0 0 127 0" result="hardAlpha"/>
<feOffset/>
<feGaussianBlur stdDeviation="4"/>
<feComposite in2="hardAlpha" operator="arithmetic" k2="-1" k3="1"/>
<feColorMatrix type="matrix" values="0 0 0 0 0.572549 0 0 0 0 0.0862745 0 0 0 0 1 0 0 0 0.4 0"/>
<feBlend mode="normal" in2="shape" result="effect1_innerShadow_90_310"/>
</filter>
<radialGradient id="paint0_radial_90_310" cx="0" cy="0" r="1" gradientUnits="userSpaceOnUse" gradientTransform="translate(26.5) rotate(90) scale(35.75 27.5913)">
<stop stop-color="white"/>
<stop offset="1" stop-color="#D6BEFF" stop-opacity="0"/>
</radialGradient>
<linearGradient id="paint1_linear_90_310" x1="26.5002" y1="14.3334" x2="26.5002" y2="37.6667" gradientUnits="userSpaceOnUse">
<stop stop-color="#D6BEFF"/>
<stop offset="1" stop-color="#9216FF"/>
</linearGradient>
</defs>
</svg>
