<svg width="52" height="52" viewBox="0 0 52 52" fill="none" xmlns="http://www.w3.org/2000/svg">
<g clip-path="url(#clip0_1012_944)">
<g filter="url(#filter0_i_1012_944)">
<path d="M0 10C0 4.47715 4.47715 0 10 0H42C47.5228 0 52 4.47715 52 10V42C52 47.5228 47.5228 52 42 52H10C4.47715 52 0 47.5228 0 42V10Z" fill="#9216FF" fill-opacity="0.04"/>
<path d="M10 0.5H42C47.2467 0.500001 51.5 4.7533 51.5 10V42C51.5 47.2467 47.2467 51.5 42 51.5H10C4.7533 51.5 0.5 47.2467 0.5 42V10C0.500001 4.7533 4.7533 0.5 10 0.5Z" stroke="url(#paint0_radial_1012_944)"/>
<path d="M22.4987 16.6673C23.7874 16.6673 24.832 17.712 24.832 19.0007V26.9656C23.7888 26.1608 22.4591 25.6862 20.9405 25.4332L20.5569 27.7348C22.1676 28.0032 23.1957 28.5123 23.8289 29.1983C24.447 29.8678 24.832 30.8622 24.832 32.4173C24.832 34.0281 23.5262 35.334 21.9154 35.334C20.3045 35.334 18.9987 34.0281 18.9987 32.4173V32.0082C19.5004 32.1754 20.0211 32.3122 20.5569 32.4015L20.9405 30.0999C20.0738 29.9554 19.2031 29.6341 18.3326 29.2205C17.3439 28.7508 16.6654 27.7495 16.6654 26.584C16.6654 25.6102 16.9076 24.8439 17.3172 24.2806C17.7205 23.7261 18.3476 23.2827 19.2817 23.0491L20.1654 22.8282V19.0007C20.1654 17.712 21.21 16.6673 22.4987 16.6673ZM25.9987 15.9139C25.1436 14.945 23.8925 14.334 22.4987 14.334C19.9214 14.334 17.832 16.4233 17.832 19.0007V21.0706C16.8391 21.4698 16.0254 22.0898 15.4302 22.9082C14.6732 23.9491 14.332 25.2245 14.332 26.584C14.332 28.4101 15.2603 30.0101 16.6654 30.9499V32.4173C16.6654 35.3168 19.0159 37.6673 21.9154 37.6673C23.5646 37.6673 25.0362 36.9069 25.9987 35.7175C26.9612 36.9069 28.4328 37.6673 30.082 37.6673C32.9815 37.6673 35.332 35.3168 35.332 32.4173V30.9499C36.7372 30.0101 37.6654 28.4101 37.6654 26.584C37.6654 25.2245 37.3242 23.9491 36.5672 22.9082C35.9721 22.0898 35.1583 21.4698 34.1654 21.0706V19.0007C34.1654 16.4233 32.076 14.334 29.4987 14.334C28.1049 14.334 26.8537 14.945 25.9987 15.9139ZM32.9987 32.0082V32.4173C32.9987 34.0281 31.6928 35.334 30.082 35.334C28.4712 35.334 27.1654 34.0281 27.1654 32.4173C27.1654 30.8622 27.5504 29.8678 28.1685 29.1983C28.8017 28.5123 29.8298 28.0032 31.4405 27.7348L31.0569 25.4332C29.5384 25.6862 28.2086 26.1608 27.1654 26.9656V19.0007C27.1654 17.712 28.21 16.6673 29.4987 16.6673C30.7874 16.6673 31.832 17.712 31.832 19.0007V22.8282L32.7158 23.0491C33.6498 23.2827 34.2769 23.7261 34.6802 24.2806C35.0898 24.8439 35.332 25.6102 35.332 26.584C35.332 27.7495 34.6535 28.7508 33.6647 29.2205C32.7943 29.6341 31.9236 29.9554 31.0569 30.0999L31.4405 32.4015C31.9763 32.3122 32.4969 32.1754 32.9987 32.0082Z" fill="url(#paint1_linear_1012_944)"/>
</g>
</g>
<defs>
<filter id="filter0_i_1012_944" x="0" y="0" width="52" height="52" filterUnits="userSpaceOnUse" color-interpolation-filters="sRGB">
<feFlood flood-opacity="0" result="BackgroundImageFix"/>
<feBlend mode="normal" in="SourceGraphic" in2="BackgroundImageFix" result="shape"/>
<feColorMatrix in="SourceAlpha" type="matrix" values="0 0 0 0 0 0 0 0 0 0 0 0 0 0 0 0 0 0 127 0" result="hardAlpha"/>
<feOffset/>
<feGaussianBlur stdDeviation="4"/>
<feComposite in2="hardAlpha" operator="arithmetic" k2="-1" k3="1"/>
<feColorMatrix type="matrix" values="0 0 0 0 0.572549 0 0 0 0 0.0862745 0 0 0 0 1 0 0 0 0.4 0"/>
<feBlend mode="normal" in2="shape" result="effect1_innerShadow_1012_944"/>
</filter>
<radialGradient id="paint0_radial_1012_944" cx="0" cy="0" r="1" gradientUnits="userSpaceOnUse" gradientTransform="translate(26) rotate(90) scale(35.75 27.5913)">
<stop stop-color="white"/>
<stop offset="1" stop-color="#D6BEFF" stop-opacity="0"/>
</radialGradient>
<linearGradient id="paint1_linear_1012_944" x1="25.9987" y1="14.334" x2="25.9987" y2="37.6673" gradientUnits="userSpaceOnUse">
<stop stop-color="#D6BEFF"/>
<stop offset="1" stop-color="#9216FF"/>
</linearGradient>
<clipPath id="clip0_1012_944">
<rect width="52" height="52" fill="white"/>
</clipPath>
</defs>
</svg>
