<svg width="44" height="44" viewBox="0 0 44 44" fill="none" xmlns="http://www.w3.org/2000/svg">
<rect width="44" height="44" rx="22" fill="url(#paint0_linear_90_239)"/>
<rect x="0.5" y="0.5" width="43" height="43" rx="21.5" stroke="white" stroke-opacity="0.56"/>
<path d="M22.8567 13.6675C23.7946 13.669 24.2698 13.674 24.6805 13.6862L24.8422 13.6915C25.0291 13.6981 25.2134 13.7065 25.4357 13.7169C26.3224 13.7579 26.9273 13.8981 27.4586 14.1044C28.0078 14.3162 28.4717 14.6023 28.9349 15.0655C29.3974 15.5287 29.6836 15.994 29.8961 16.5419C30.1016 17.0724 30.2419 17.678 30.2836 18.5648C30.2935 18.787 30.3015 18.9714 30.3081 19.1582L30.3133 19.32C30.3255 19.7306 30.3311 20.2059 30.3328 21.1437L30.3335 21.7652C30.3336 21.8411 30.3336 21.9194 30.3336 22.0002L30.3335 22.2353L30.333 22.8567C30.3314 23.7946 30.3265 24.2698 30.3142 24.6805L30.3089 24.8422C30.3023 25.0291 30.294 25.2134 30.2836 25.4357C30.2426 26.3224 30.1016 26.9273 29.8961 27.4586C29.6842 28.0078 29.3974 28.4717 28.9349 28.9349C28.4717 29.3974 28.0057 29.6836 27.4586 29.8961C26.9273 30.1016 26.3224 30.2419 25.4357 30.2836C25.2134 30.2935 25.0291 30.3015 24.8422 30.3081L24.6805 30.3133C24.2698 30.3255 23.7946 30.3311 22.8567 30.3328L22.2353 30.3335C22.1594 30.3336 22.0811 30.3336 22.0002 30.3336L21.7652 30.3335L21.1437 30.333C20.2059 30.3314 19.7306 30.3265 19.32 30.3142L19.1582 30.3089C18.9714 30.3023 18.787 30.294 18.5648 30.2836C17.678 30.2426 17.0738 30.1016 16.5419 29.8961C15.9933 29.6842 15.5287 29.3974 15.0655 28.9349C14.6023 28.4717 14.3169 28.0057 14.1044 27.4586C13.8981 26.9273 13.7586 26.3224 13.7169 25.4357C13.707 25.2134 13.6989 25.0291 13.6924 24.8422L13.6871 24.6805C13.6749 24.2698 13.6694 23.7946 13.6676 22.8567L13.6675 21.1437C13.669 20.2059 13.674 19.7306 13.6862 19.32L13.6915 19.1582C13.6981 18.9714 13.7065 18.787 13.7169 18.5648C13.7579 17.6773 13.8981 17.0731 14.1044 16.5419C14.3162 15.9933 14.6023 15.5287 15.0655 15.0655C15.5287 14.6023 15.994 14.3169 16.5419 14.1044C17.0731 13.8981 17.6773 13.7586 18.5648 13.7169C18.787 13.707 18.9714 13.6989 19.1582 13.6924L19.32 13.6871C19.7306 13.6749 20.2059 13.6694 21.1437 13.6676L22.8567 13.6675ZM22.0002 17.8336C19.6978 17.8336 17.8336 19.6998 17.8336 22.0002C17.8336 24.3027 19.6998 26.1669 22.0002 26.1669C24.3027 26.1669 26.1669 24.3006 26.1669 22.0002C26.1669 19.6978 24.3006 17.8336 22.0002 17.8336ZM22.0002 19.5002C23.381 19.5002 24.5002 20.6191 24.5002 22.0002C24.5002 23.381 23.3813 24.5002 22.0002 24.5002C20.6195 24.5002 19.5002 23.3813 19.5002 22.0002C19.5002 20.6195 20.6191 19.5002 22.0002 19.5002ZM26.3752 16.5836C25.8008 16.5836 25.3336 17.0501 25.3336 17.6245C25.3336 18.1989 25.8002 18.6662 26.3752 18.6662C26.9496 18.6662 27.4169 18.1996 27.4169 17.6245C27.4169 17.0501 26.9488 16.5828 26.3752 16.5836Z" fill="white"/>
<defs>
<linearGradient id="paint0_linear_90_239" x1="22" y1="0" x2="22" y2="44" gradientUnits="userSpaceOnUse">
<stop stop-color="#D6BEFF"/>
<stop offset="1" stop-color="#9216FF"/>
</linearGradient>
</defs>
</svg>
