<svg width="48" height="48" viewBox="0 0 48 48" fill="none" xmlns="http://www.w3.org/2000/svg">
<path d="M20.4469 15.6722C20.4469 16.8909 20.4469 18.0722 20.8312 19.1784C16.7906 23.9222 6.12188 36.4566 5.12813 37.4128C4.93062 37.59 4.77262 37.8068 4.6644 38.0491C4.55619 38.2914 4.50017 38.5537 4.5 38.8191C4.5 39.6159 4.9875 40.3847 5.4 40.8159C6.01875 41.4628 8.6625 43.9097 9.15 43.4409C10.5938 42.0347 10.8844 41.6597 11.475 41.0784C12.3656 40.2066 11.3812 38.4253 11.6906 37.7034C12 36.9816 12.3281 36.8409 12.8625 36.7284C13.3969 36.6159 14.3437 37.0003 15.0844 37.0097C15.8625 37.0191 16.2844 36.6909 16.8656 36.1472C17.3344 35.7159 17.6719 35.3128 17.6813 34.6847C17.7 33.8409 16.4812 32.7253 17.3906 31.8347C18.3 30.9441 19.6125 32.4159 20.5781 32.3034C21.5438 32.1909 22.7156 30.8503 22.8375 30.2784C22.9594 29.7066 21.7406 28.2347 21.9281 27.4003C21.9937 27.1191 22.5656 26.4628 22.9969 26.3691C23.4281 26.2753 25.3406 27.0159 25.7719 26.9222C26.2969 26.8097 26.9062 26.2566 27.4031 25.9472C28.8562 26.5753 30.1781 26.8284 31.875 26.8284C38.2969 26.8284 43.5 21.8222 43.5 15.6534C43.5 9.48469 38.2969 4.5 31.875 4.5C25.4531 4.5 20.4469 9.50344 20.4469 15.6722ZM37.5 13.5C37.5 14.0933 37.3241 14.6734 36.9944 15.1667C36.6648 15.6601 36.1962 16.0446 35.6481 16.2716C35.0999 16.4987 34.4967 16.5581 33.9147 16.4424C33.3328 16.3266 32.7982 16.0409 32.3787 15.6213C31.9591 15.2018 31.6734 14.6672 31.5576 14.0853C31.4419 13.5033 31.5013 12.9001 31.7284 12.352C31.9554 11.8038 32.3399 11.3352 32.8333 11.0056C33.3266 10.6759 33.9067 10.5 34.5 10.5C35.2956 10.5 36.0587 10.8161 36.6213 11.3787C37.1839 11.9413 37.5 12.7044 37.5 13.5Z" fill="#B7995B"/>
</svg>
