<svg width="44" height="44" viewBox="0 0 44 44" fill="none" xmlns="http://www.w3.org/2000/svg">
<rect width="44" height="44" rx="22" fill="url(#paint0_linear_90_230)"/>
<rect x="0.5" y="0.5" width="43" height="43" rx="21.5" stroke="white" stroke-opacity="0.56"/>
<path d="M17.7836 16.1664C17.7833 16.845 17.3716 17.4557 16.7426 17.7104C16.1137 17.9652 15.3931 17.8132 14.9206 17.3261C14.4481 16.839 14.3181 16.1141 14.5919 15.4932C14.8657 14.8723 15.4886 14.4794 16.1669 14.4998C17.0678 14.5268 17.784 15.2651 17.7836 16.1664ZM17.8336 19.0664H14.5002V29.4998H17.8336V19.0664ZM23.1003 19.0664H19.7836V29.4998H23.0669V24.0248C23.0669 20.9748 27.0419 20.6914 27.0419 24.0248V29.4998H30.3336V22.8914C30.3336 17.7498 24.4503 17.9414 23.0669 20.4664L23.1003 19.0664Z" fill="white"/>
<defs>
<linearGradient id="paint0_linear_90_230" x1="22" y1="0" x2="22" y2="44" gradientUnits="userSpaceOnUse">
<stop stop-color="#D6BEFF"/>
<stop offset="1" stop-color="#9216FF"/>
</linearGradient>
</defs>
</svg>
