<svg width="32" height="32" viewBox="0 0 32 32" fill="none" xmlns="http://www.w3.org/2000/svg">
<path d="M17 20.029V12.644L27.4137 7.91086C27.5887 7.83147 27.7371 7.70337 27.8411 7.54188C27.9452 7.38039 28.0005 7.19235 28.0005 7.00023C28.0005 6.80812 27.9452 6.62008 27.8411 6.45859C27.7371 6.2971 27.5887 6.169 27.4137 6.08961L16.4137 1.08961C16.2614 1.02037 16.0941 0.990475 15.9272 1.00265C15.7603 1.01483 15.5992 1.06869 15.4585 1.15931C15.3178 1.24992 15.2021 1.37439 15.122 1.52131C15.0419 1.66823 15 1.8329 15 2.00023V11.979C15 11.9934 15 12.0084 15 12.0227V20.029C15.3333 20.0102 15.6667 20.0007 16 20.0002C16.3333 19.9998 16.6667 20.0094 17 20.029Z" fill="#B7995B"/>
<path d="M28.9586 28.5938C28.4236 25.9156 26.7642 23.6725 24.1598 22.1063C22.1286 20.8844 19.618 20.15 17.0005 20V24.9844C17.0005 25.2496 16.8951 25.5039 16.7076 25.6915C16.52 25.879 16.2657 25.9844 16.0005 25.9844C15.7352 25.9844 15.4809 25.879 15.2933 25.6915C15.1058 25.5039 15.0005 25.2496 15.0005 24.9844V20C12.3829 20.15 9.87232 20.8844 7.84107 22.1063C5.2367 23.6725 3.57732 25.9156 3.04232 28.5938C2.97984 28.8881 2.98353 29.1926 3.05314 29.4853C3.12275 29.778 3.25654 30.0516 3.44482 30.2862C3.82107 30.75 4.37545 31 5.00045 31H27.0005C27.6255 31 28.1805 30.7469 28.5567 30.2862C28.7449 30.0515 28.8786 29.7779 28.9481 29.4852C29.0176 29.1925 29.0211 28.888 28.9586 28.5938Z" fill="#B7995B"/>
</svg>
