<svg width="52" height="52" viewBox="0 0 52 52" fill="none" xmlns="http://www.w3.org/2000/svg">
<g filter="url(#filter0_i_90_101)">
<path d="M0 10C0 4.47715 4.47715 0 10 0H42C47.5228 0 52 4.47715 52 10V42C52 47.5228 47.5228 52 42 52H10C4.47715 52 0 47.5228 0 42V10Z" fill="#9216FF" fill-opacity="0.04"/>
<path d="M10 0.5H42C47.2467 0.5 51.5 4.7533 51.5 10V42C51.5 47.2467 47.2467 51.5 42 51.5H10C4.7533 51.5 0.5 47.2467 0.5 42V10C0.500001 4.7533 4.7533 0.5 10 0.5Z" stroke="url(#paint0_radial_90_101)"/>
<path d="M17.8333 21.3333V35.3333H34.1667V21.3333H17.8333ZM17.8333 18.9999H34.1667V16.6666H17.8333V18.9999ZM35.3333 37.6666H16.6667C16.0223 37.6666 15.5 37.1443 15.5 36.4999V15.4999C15.5 14.8556 16.0223 14.3333 16.6667 14.3333H35.3333C35.9777 14.3333 36.5 14.8556 36.5 15.4999V36.4999C36.5 37.1443 35.9777 37.6666 35.3333 37.6666ZM20.1667 23.6666H24.8333V28.3333H20.1667V23.6666ZM20.1667 30.6666H31.8333V32.9999H20.1667V30.6666ZM27.1667 24.8333H31.8333V27.1666H27.1667V24.8333Z" fill="url(#paint1_linear_90_101)"/>
</g>
<defs>
<filter id="filter0_i_90_101" x="0" y="0" width="52" height="52" filterUnits="userSpaceOnUse" color-interpolation-filters="sRGB">
<feFlood flood-opacity="0" result="BackgroundImageFix"/>
<feBlend mode="normal" in="SourceGraphic" in2="BackgroundImageFix" result="shape"/>
<feColorMatrix in="SourceAlpha" type="matrix" values="0 0 0 0 0 0 0 0 0 0 0 0 0 0 0 0 0 0 127 0" result="hardAlpha"/>
<feOffset/>
<feGaussianBlur stdDeviation="4"/>
<feComposite in2="hardAlpha" operator="arithmetic" k2="-1" k3="1"/>
<feColorMatrix type="matrix" values="0 0 0 0 0.572549 0 0 0 0 0.0862745 0 0 0 0 1 0 0 0 0.4 0"/>
<feBlend mode="normal" in2="shape" result="effect1_innerShadow_90_101"/>
</filter>
<radialGradient id="paint0_radial_90_101" cx="0" cy="0" r="1" gradientUnits="userSpaceOnUse" gradientTransform="translate(26) rotate(90) scale(35.75 27.5913)">
<stop stop-color="white"/>
<stop offset="1" stop-color="#D6BEFF" stop-opacity="0"/>
</radialGradient>
<linearGradient id="paint1_linear_90_101" x1="26" y1="14.3333" x2="26" y2="37.6666" gradientUnits="userSpaceOnUse">
<stop stop-color="#D6BEFF"/>
<stop offset="1" stop-color="#9216FF"/>
</linearGradient>
</defs>
</svg>
