<svg width="48" height="48" viewBox="0 0 48 48" fill="none" xmlns="http://www.w3.org/2000/svg">
<path d="M9.75 46.5H6.75C6.15326 46.5 5.58097 46.2629 5.15901 45.841C4.73705 45.419 4.5 44.8467 4.5 44.25V30.75C4.5 30.1533 4.73705 29.581 5.15901 29.159C5.58097 28.7371 6.15326 28.5 6.75 28.5H9.75C10.3467 28.5 10.919 28.7371 11.341 29.159C11.7629 29.581 12 30.1533 12 30.75V44.25C12 44.8467 11.7629 45.419 11.341 45.841C10.919 46.2629 10.3467 46.5 9.75 46.5Z" fill="#B7995B"/>
<path d="M30.75 46.5H27.75C27.1533 46.5 26.581 46.2629 26.159 45.841C25.7371 45.419 25.5 44.8467 25.5 44.25V21.75C25.5 21.1533 25.7371 20.581 26.159 20.159C26.581 19.7371 27.1533 19.5 27.75 19.5H30.75C31.3467 19.5 31.919 19.7371 32.341 20.159C32.7629 20.581 33 21.1533 33 21.75V44.25C33 44.8467 32.7629 45.419 32.341 45.841C31.919 46.2629 31.3467 46.5 30.75 46.5Z" fill="#B7995B"/>
<path d="M41.25 46.5H38.25C37.6533 46.5 37.081 46.2629 36.659 45.841C36.2371 45.419 36 44.8467 36 44.25V11.25C36 10.6533 36.2371 10.081 36.659 9.65901C37.081 9.23705 37.6533 9 38.25 9H41.25C41.8467 9 42.419 9.23705 42.841 9.65901C43.2629 10.081 43.5 10.6533 43.5 11.25V44.25C43.5 44.8467 43.2629 45.419 42.841 45.841C42.419 46.2629 41.8467 46.5 41.25 46.5Z" fill="#B7995B"/>
<path d="M20.25 46.5H17.25C16.6533 46.5 16.081 46.2629 15.659 45.841C15.2371 45.419 15 44.8467 15 44.25V3.75C15 3.15326 15.2371 2.58097 15.659 2.15901C16.081 1.73705 16.6533 1.5 17.25 1.5H20.25C20.8467 1.5 21.419 1.73705 21.841 2.15901C22.2629 2.58097 22.5 3.15326 22.5 3.75V44.25C22.5 44.8467 22.2629 45.419 21.841 45.841C21.419 46.2629 20.8467 46.5 20.25 46.5Z" fill="#B7995B"/>
</svg>
