<svg width="52" height="52" viewBox="0 0 52 52" fill="none" xmlns="http://www.w3.org/2000/svg">
<rect width="52" height="52" rx="26" fill="#484848"/>
<g clip-path="url(#clip0_1087_390)">
<path d="M29.0494 19C30.0262 19.1906 30.9238 19.6683 31.6275 20.3719C32.3312 21.0756 32.8089 21.9733 32.9994 22.95M29.0494 15C31.0787 15.2254 32.971 16.1342 34.4157 17.577C35.8603 19.0198 36.7715 20.911 36.9994 22.94M35.9994 30.92V33.92C36.0006 34.1985 35.9435 34.4742 35.832 34.7293C35.7204 34.9845 35.5567 35.2136 35.3515 35.4019C35.1463 35.5901 34.904 35.7335 34.6402 35.8227C34.3764 35.9119 34.0968 35.9451 33.8194 35.92C30.7423 35.5856 27.7864 34.5341 25.1894 32.85C22.7733 31.3147 20.7248 29.2662 19.1894 26.85C17.4994 24.2412 16.4477 21.271 16.1194 18.18C16.0945 17.9035 16.1273 17.6248 16.2159 17.3616C16.3046 17.0985 16.447 16.8567 16.6342 16.6516C16.8214 16.4466 17.0492 16.2827 17.3032 16.1705C17.5572 16.0583 17.8318 16.0003 18.1094 16H21.1094C21.5948 15.9952 22.0652 16.1671 22.4332 16.4835C22.8012 16.8 23.0415 17.2394 23.1094 17.72C23.2361 18.6801 23.4709 19.6227 23.8094 20.53C23.944 20.8879 23.9731 21.2769 23.8934 21.6509C23.8136 22.0248 23.6283 22.3681 23.3594 22.64L22.0894 23.91C23.513 26.4135 25.5859 28.4864 28.0894 29.91L29.3594 28.64C29.6313 28.3711 29.9746 28.1858 30.3486 28.1061C30.7225 28.0263 31.1115 28.0555 31.4694 28.19C32.3767 28.5286 33.3194 28.7634 34.2794 28.89C34.7652 28.9585 35.2088 29.2032 35.526 29.5775C35.8431 29.9518 36.0116 30.4296 35.9994 30.92Z" stroke="white" stroke-width="2.5" stroke-linecap="round" stroke-linejoin="round"/>
</g>
<defs>
<clipPath id="clip0_1087_390">
<rect width="24" height="24" fill="white" transform="translate(14 14)"/>
</clipPath>
</defs>
</svg>
