<svg width="90" height="74" viewBox="0 0 90 74" fill="none" xmlns="http://www.w3.org/2000/svg">
<path d="M39.7705 19.002L39.3311 19.0557C32.1338 19.928 27.4256 22.194 25.0244 25.7354L24.7998 26.082C22.8317 29.2477 21.6627 33.2952 21.3174 38.248H39.3125V73.5H0.5V47.5947C0.5 36.1545 3.6616 26.1424 9.99414 17.5811C16.3543 8.83108 26.1125 3.48657 39.1963 1.50586L39.7705 1.41895V19.002ZM89.5 19.002L89.0605 19.0557C81.8634 19.928 77.1551 22.1941 74.7539 25.7354L74.5283 26.082C72.5604 29.2476 71.3922 33.2954 71.0469 38.248H89.042V73.5H50.2295V47.5947C50.2295 36.5119 53.1959 26.7694 59.1387 18.3877L59.7227 17.5811C66.0827 8.83099 75.841 3.48664 88.9248 1.50586L89.5 1.41895V19.002Z" stroke="url(#paint0_linear_937_961)"/>
<defs>
<linearGradient id="paint0_linear_937_961" x1="45" y1="2" x2="45" y2="73" gradientUnits="userSpaceOnUse">
<stop stop-color="#D6BEFF"/>
<stop offset="1" stop-color="#9216FF" stop-opacity="0"/>
</linearGradient>
</defs>
</svg>
