<svg width="14" height="14" viewBox="0 0 14 14" fill="none" xmlns="http://www.w3.org/2000/svg">
<path fill-rule="evenodd" clip-rule="evenodd" d="M1.3125 7C1.3125 3.85994 3.85994 1.3125 7 1.3125C10.1401 1.3125 12.6875 3.85994 12.6875 7C12.6875 10.1401 10.1401 12.6875 7 12.6875C3.85994 12.6875 1.3125 10.1401 1.3125 7ZM7 2.1875C4.34319 2.1875 2.1875 4.34319 2.1875 7C2.1875 9.65681 4.34319 11.8125 7 11.8125C9.65681 11.8125 11.8125 9.65681 11.8125 7C11.8125 4.34319 9.65681 2.1875 7 2.1875Z" fill="#B7995B"/>
<path d="M7 10.9375C9.17462 10.9375 10.9375 9.17462 10.9375 7C10.9375 4.82538 9.17462 3.0625 7 3.0625C4.82538 3.0625 3.0625 4.82538 3.0625 7C3.0625 9.17462 4.82538 10.9375 7 10.9375Z" fill="#B7995B"/>
</svg>
