<svg width="52" height="52" viewBox="0 0 52 52" fill="none" xmlns="http://www.w3.org/2000/svg">
<g filter="url(#filter0_i_90_79)">
<path d="M0 10C0 4.47715 4.47715 0 10 0H42C47.5228 0 52 4.47715 52 10V42C52 47.5228 47.5228 52 42 52H10C4.47715 52 0 47.5228 0 42V10Z" fill="#9216FF" fill-opacity="0.04"/>
<path d="M10 0.5H42C47.2467 0.5 51.5 4.7533 51.5 10V42C51.5 47.2467 47.2467 51.5 42 51.5H10C4.7533 51.5 0.5 47.2467 0.5 42V10C0.500001 4.7533 4.7533 0.5 10 0.5Z" stroke="url(#paint0_radial_90_79)"/>
<path d="M33.0363 31.3862L38.0328 36.3827L36.3829 38.0326L31.3864 33.0361C29.5899 34.4734 27.3115 35.3333 24.8335 35.3333C19.0375 35.3333 14.3335 30.6293 14.3335 24.8333C14.3335 19.0373 19.0375 14.3333 24.8335 14.3333C30.6295 14.3333 35.3335 19.0373 35.3335 24.8333C35.3335 27.3113 34.4737 29.5896 33.0363 31.3862ZM30.6956 30.5205C32.1222 29.0503 33.0002 27.0448 33.0002 24.8333C33.0002 20.3212 29.3456 16.6666 24.8335 16.6666C20.3214 16.6666 16.6668 20.3212 16.6668 24.8333C16.6668 29.3453 20.3214 32.9999 24.8335 32.9999C27.045 32.9999 29.0505 32.122 30.5208 30.6954L30.6956 30.5205Z" fill="url(#paint1_linear_90_79)"/>
</g>
<defs>
<filter id="filter0_i_90_79" x="0" y="0" width="52" height="52" filterUnits="userSpaceOnUse" color-interpolation-filters="sRGB">
<feFlood flood-opacity="0" result="BackgroundImageFix"/>
<feBlend mode="normal" in="SourceGraphic" in2="BackgroundImageFix" result="shape"/>
<feColorMatrix in="SourceAlpha" type="matrix" values="0 0 0 0 0 0 0 0 0 0 0 0 0 0 0 0 0 0 127 0" result="hardAlpha"/>
<feOffset/>
<feGaussianBlur stdDeviation="4"/>
<feComposite in2="hardAlpha" operator="arithmetic" k2="-1" k3="1"/>
<feColorMatrix type="matrix" values="0 0 0 0 0.572549 0 0 0 0 0.0862745 0 0 0 0 1 0 0 0 0.4 0"/>
<feBlend mode="normal" in2="shape" result="effect1_innerShadow_90_79"/>
</filter>
<radialGradient id="paint0_radial_90_79" cx="0" cy="0" r="1" gradientUnits="userSpaceOnUse" gradientTransform="translate(26) rotate(90) scale(35.75 27.5913)">
<stop stop-color="white"/>
<stop offset="1" stop-color="#D6BEFF" stop-opacity="0"/>
</radialGradient>
<linearGradient id="paint1_linear_90_79" x1="26.1832" y1="14.3333" x2="26.1832" y2="38.0326" gradientUnits="userSpaceOnUse">
<stop stop-color="#D6BEFF"/>
<stop offset="1" stop-color="#9216FF"/>
</linearGradient>
</defs>
</svg>
