<svg width="72" height="72" viewBox="0 0 72 72" fill="none" xmlns="http://www.w3.org/2000/svg">
<rect width="72" height="72" rx="36" fill="white" fill-opacity="0.04"/>
<path d="M24.3424 31.0065C25.2629 31.0065 26.0091 31.7527 26.0091 32.6732C28.7337 32.6732 31.2402 33.6072 33.2258 35.1723L36.8425 35.1732C39.0635 35.1732 41.059 36.1387 42.4323 37.6727L47.6758 37.6732C50.9963 37.6732 53.8631 39.6153 55.2026 42.4255C51.2613 47.6265 44.879 51.0065 37.6758 51.0065C33.0246 51.0065 29.0921 50.0012 25.9076 48.2433C25.6769 48.8825 25.0631 49.3398 24.3424 49.3398H19.3424C18.422 49.3398 17.6758 48.5937 17.6758 47.6732V32.6732C17.6758 31.7527 18.422 31.0065 19.3424 31.0065H24.3424ZM26.0108 36.0065L26.0091 44.3765L26.0847 44.4307C29.0744 46.5313 32.9726 47.6732 37.6758 47.6732C42.6825 47.6732 47.3401 45.7472 50.7343 42.4575L50.9558 42.2348L50.7571 42.0675C49.9838 41.4625 49.0351 41.0872 48.0175 41.018L47.6758 41.0065H44.1566C44.2783 41.5425 44.3425 42.1003 44.3425 42.6732V44.3398H29.3424V41.0065L40.6591 41.0048L40.6018 40.874C39.9676 39.5513 38.656 38.6153 37.1165 38.5153L36.8425 38.5065L31.9601 38.5063C30.448 36.964 28.3412 36.007 26.0108 36.0065ZM22.6758 34.3398H21.0091V46.0065H22.6758V34.3398ZM46.0091 24.3398C48.7705 24.3398 51.0091 26.5784 51.0091 29.3398C51.0091 32.1013 48.7705 34.3398 46.0091 34.3398C43.2476 34.3398 41.0091 32.1013 41.0091 29.3398C41.0091 26.5784 43.2476 24.3398 46.0091 24.3398ZM46.0091 27.6732C45.0886 27.6732 44.3425 28.4194 44.3425 29.3398C44.3425 30.2603 45.0886 31.0065 46.0091 31.0065C46.9296 31.0065 47.6758 30.2603 47.6758 29.3398C47.6758 28.4194 46.9296 27.6732 46.0091 27.6732ZM34.3425 19.3398C37.1038 19.3398 39.3425 21.5784 39.3425 24.3398C39.3425 27.1013 37.1038 29.3398 34.3425 29.3398C31.581 29.3398 29.3424 27.1013 29.3424 24.3398C29.3424 21.5784 31.581 19.3398 34.3425 19.3398ZM34.3425 22.6732C33.422 22.6732 32.6758 23.4194 32.6758 24.3398C32.6758 25.2603 33.422 26.0065 34.3425 26.0065C35.263 26.0065 36.0091 25.2603 36.0091 24.3398C36.0091 23.4194 35.263 22.6732 34.3425 22.6732Z" fill="white"/>
</svg>
