<svg width="32" height="32" viewBox="0 0 32 32" fill="none" xmlns="http://www.w3.org/2000/svg">
<g clip-path="url(#clip0_1087_563)">
<path d="M31 18.374C31.5644 18.3301 32 17.8584 32 17.2929V14.707C32 14.1406 31.5644 13.6699 31 13.6249L27.5732 13.3574C27.3555 13.3407 27.168 13.2041 27.084 13.0019L25.9571 10.2821C25.8731 10.0809 25.9082 9.8505 26.0508 9.68544L28.2852 7.07212C28.6524 6.64144 28.6289 6.00081 28.2276 5.60044L26.3994 3.77231C25.9991 3.37194 25.3574 3.3465 24.9277 3.71469L22.3144 5.94906C22.1494 6.09069 21.9179 6.12681 21.7178 6.04381L18.9971 4.91587C18.7959 4.83287 18.6582 4.64244 18.6406 4.42662L18.374 1.00081C18.3301 0.435563 17.8594 0 17.293 0H14.7071C14.1406 0 13.6699 0.435563 13.626 1.001L13.3584 4.42681C13.3418 4.64363 13.2041 4.83306 13.0029 4.91606L10.2823 6.044C10.0811 6.127 9.85063 6.09088 9.68456 5.94925L7.07225 3.71487C6.64256 3.34669 6.00194 3.37213 5.60056 3.7725L3.77244 5.60063C3.37206 6.001 3.34763 6.64162 3.71481 7.07231L5.94919 9.68563C6.08981 9.85069 6.12694 10.0811 6.04294 10.2823L4.916 13.0021C4.83394 13.2042 4.64356 13.3409 4.42769 13.3576L1 13.625C0.435562 13.6699 0 14.1406 0 14.7071V17.292C0 17.8584 0.435562 18.3301 1 18.3741L4.42775 18.6407C4.64356 18.6583 4.834 18.7959 4.91606 18.9971L6.043 21.7169C6.127 21.9181 6.08988 22.1495 5.94925 22.3146L3.71487 24.9279C3.34769 25.3576 3.37213 25.9982 3.7725 26.3996L5.60063 28.2277C6.002 28.6281 6.64262 28.6525 7.07231 28.2843L9.68462 26.0499C9.85063 25.9093 10.0811 25.8722 10.2823 25.9562L13.003 27.0831C13.2042 27.1671 13.3419 27.3556 13.3585 27.5734L13.6261 30.9992C13.67 31.5636 14.1407 32.0002 14.7071 32.0002H17.2931C17.8595 32.0002 18.3302 31.5637 18.3741 30.9992L18.6408 27.5734C18.6583 27.3556 18.796 27.1671 18.9972 27.0831L21.7179 25.9562C21.9181 25.8722 22.1505 25.9093 22.3146 26.0499L24.9279 28.2843C25.3576 28.6525 25.9992 28.6281 26.3996 28.2277L28.2277 26.3996C28.6291 25.9982 28.6525 25.3576 28.2853 24.9279L26.0509 22.3146C25.9103 22.1495 25.8732 21.9181 25.9572 21.7169L27.0841 18.9971C27.1681 18.7959 27.3556 18.6583 27.5734 18.6407L31 18.374ZM16 21.4072C14.5557 21.4072 13.1972 20.8447 12.1757 19.8242C11.1543 18.8018 10.5918 17.4444 10.5918 15.9991C10.5918 14.5548 11.1543 13.1963 12.1757 12.1758C13.1972 11.1534 14.5556 10.5918 16 10.5918C17.4453 10.5918 18.8027 11.1533 19.8242 12.1758C20.8457 13.1963 21.4083 14.5548 21.4083 15.9991C21.4083 17.4444 20.8457 18.8018 19.8242 19.8242C18.8027 20.8447 17.4453 21.4072 16 21.4072Z" fill="#B7995B"/>
</g>
<defs>
<clipPath id="clip0_1087_563">
<rect width="32" height="32" fill="white"/>
</clipPath>
</defs>
</svg>
