<svg width="52" height="52" viewBox="0 0 52 52" fill="none" xmlns="http://www.w3.org/2000/svg">
<g filter="url(#filter0_i_1015_944)">
<path d="M0 10C0 4.47715 4.47715 0 10 0H42C47.5228 0 52 4.47715 52 10V42C52 47.5228 47.5228 52 42 52H10C4.47715 52 0 47.5228 0 42V10Z" fill="black"/>
<path d="M0 10C0 4.47715 4.47715 0 10 0H42C47.5228 0 52 4.47715 52 10V42C52 47.5228 47.5228 52 42 52H10C4.47715 52 0 47.5228 0 42V10Z" fill="#9216FF" fill-opacity="0.04"/>
<path d="M10 0.5H42C47.2467 0.500001 51.5 4.7533 51.5 10V42C51.5 47.2467 47.2467 51.5 42 51.5H10C4.7533 51.5 0.5 47.2467 0.5 42V10C0.500001 4.7533 4.7533 0.5 10 0.5Z" stroke="url(#paint0_radial_1015_944)"/>
<path d="M36.4987 27.1667V35.3333C36.4987 35.9777 35.9764 36.5 35.332 36.5H16.6654C16.021 36.5 15.4987 35.9777 15.4987 35.3333V27.1667H14.332V24.8333L15.4987 19H36.4987L37.6654 24.8333V27.1667H36.4987ZM17.832 27.1667V34.1667H34.1654V27.1667H17.832ZM16.7116 24.8333H35.2858L34.5858 21.3333H17.4116L16.7116 24.8333ZM18.9987 28.3333H28.332V31.8333H18.9987V28.3333ZM15.4987 15.5H36.4987V17.8333H15.4987V15.5Z" fill="url(#paint1_linear_1015_944)"/>
</g>
<defs>
<filter id="filter0_i_1015_944" x="0" y="0" width="52" height="52" filterUnits="userSpaceOnUse" color-interpolation-filters="sRGB">
<feFlood flood-opacity="0" result="BackgroundImageFix"/>
<feBlend mode="normal" in="SourceGraphic" in2="BackgroundImageFix" result="shape"/>
<feColorMatrix in="SourceAlpha" type="matrix" values="0 0 0 0 0 0 0 0 0 0 0 0 0 0 0 0 0 0 127 0" result="hardAlpha"/>
<feOffset/>
<feGaussianBlur stdDeviation="4"/>
<feComposite in2="hardAlpha" operator="arithmetic" k2="-1" k3="1"/>
<feColorMatrix type="matrix" values="0 0 0 0 0.572549 0 0 0 0 0.0862745 0 0 0 0 1 0 0 0 0.4 0"/>
<feBlend mode="normal" in2="shape" result="effect1_innerShadow_1015_944"/>
</filter>
<radialGradient id="paint0_radial_1015_944" cx="0" cy="0" r="1" gradientUnits="userSpaceOnUse" gradientTransform="translate(26) rotate(90) scale(35.75 27.5913)">
<stop stop-color="white"/>
<stop offset="1" stop-color="#D6BEFF" stop-opacity="0"/>
</radialGradient>
<linearGradient id="paint1_linear_1015_944" x1="25.9987" y1="15.5" x2="25.9987" y2="36.5" gradientUnits="userSpaceOnUse">
<stop stop-color="#D6BEFF"/>
<stop offset="1" stop-color="#9216FF"/>
</linearGradient>
</defs>
</svg>
