<svg width="53" height="52" viewBox="0 0 53 52" fill="none" xmlns="http://www.w3.org/2000/svg">
<g filter="url(#filter0_i_90_325)">
<path d="M0.5 10C0.5 4.47715 4.97715 0 10.5 0H42.5C48.0228 0 52.5 4.47715 52.5 10V42C52.5 47.5228 48.0228 52 42.5 52H10.5C4.97715 52 0.5 47.5228 0.5 42V10Z" fill="#9216FF" fill-opacity="0.04"/>
<path d="M10.5 0.5H42.5C47.7467 0.5 52 4.7533 52 10V42C52 47.2467 47.7467 51.5 42.5 51.5H10.5C5.2533 51.5 1 47.2467 1 42V10C1 4.7533 5.2533 0.5 10.5 0.5Z" stroke="url(#paint0_radial_90_325)"/>
<path d="M37.0002 27.1667V35.3333C37.0002 35.9777 36.4778 36.5 35.8335 36.5H17.1668C16.5225 36.5 16.0002 35.9777 16.0002 35.3333V27.1667H14.8335V24.8333L16.0002 19H37.0002L38.1668 24.8333V27.1667H37.0002ZM18.3335 27.1667V34.1667H34.6668V27.1667H18.3335ZM17.213 24.8333H35.7873L35.0873 21.3333H17.913L17.213 24.8333ZM19.5002 28.3333H28.8335V31.8333H19.5002V28.3333ZM16.0002 15.5H37.0002V17.8333H16.0002V15.5Z" fill="url(#paint1_linear_90_325)"/>
</g>
<defs>
<filter id="filter0_i_90_325" x="0.5" y="0" width="52" height="52" filterUnits="userSpaceOnUse" color-interpolation-filters="sRGB">
<feFlood flood-opacity="0" result="BackgroundImageFix"/>
<feBlend mode="normal" in="SourceGraphic" in2="BackgroundImageFix" result="shape"/>
<feColorMatrix in="SourceAlpha" type="matrix" values="0 0 0 0 0 0 0 0 0 0 0 0 0 0 0 0 0 0 127 0" result="hardAlpha"/>
<feOffset/>
<feGaussianBlur stdDeviation="4"/>
<feComposite in2="hardAlpha" operator="arithmetic" k2="-1" k3="1"/>
<feColorMatrix type="matrix" values="0 0 0 0 0.572549 0 0 0 0 0.0862745 0 0 0 0 1 0 0 0 0.4 0"/>
<feBlend mode="normal" in2="shape" result="effect1_innerShadow_90_325"/>
</filter>
<radialGradient id="paint0_radial_90_325" cx="0" cy="0" r="1" gradientUnits="userSpaceOnUse" gradientTransform="translate(26.5) rotate(90) scale(35.75 27.5913)">
<stop stop-color="white"/>
<stop offset="1" stop-color="#D6BEFF" stop-opacity="0"/>
</radialGradient>
<linearGradient id="paint1_linear_90_325" x1="26.5002" y1="15.5" x2="26.5002" y2="36.5" gradientUnits="userSpaceOnUse">
<stop stop-color="#D6BEFF"/>
<stop offset="1" stop-color="#9216FF"/>
</linearGradient>
</defs>
</svg>
