<svg width="53" height="52" viewBox="0 0 53 52" fill="none" xmlns="http://www.w3.org/2000/svg">
<g filter="url(#filter0_i_90_317)">
<path d="M0.5 10C0.5 4.47715 4.97715 0 10.5 0H42.5C48.0228 0 52.5 4.47715 52.5 10V42C52.5 47.5228 48.0228 52 42.5 52H10.5C4.97715 52 0.5 47.5228 0.5 42V10Z" fill="#9216FF" fill-opacity="0.04"/>
<path d="M10.5 0.5H42.5C47.7467 0.5 52 4.7533 52 10V42C52 47.2467 47.7467 51.5 42.5 51.5H10.5C5.2533 51.5 1 47.2467 1 42V10C1 4.7533 5.2533 0.5 10.5 0.5Z" stroke="url(#paint0_radial_90_317)"/>
<path d="M30.5853 35.339C29.8169 37.1815 28.3425 38.656 26.4998 39.4244C24.6572 38.656 23.1828 37.1815 22.4144 35.339H25.0503C25.4309 35.909 25.9225 36.4033 26.4998 36.7894C27.0772 36.4033 27.5687 35.909 27.9494 35.339H30.5853ZM33.4998 29.2778L35.8332 31.924V34.1723H17.1665V31.924L19.4998 29.2778V22.5056C19.4998 18.4418 22.4217 14.9846 26.4998 13.7034C30.578 14.9846 33.4998 18.4418 33.4998 22.5056V29.2778ZM32.6472 31.839L31.1665 30.1596V22.5056C31.1665 19.8015 29.3339 17.3367 26.4998 16.1812C23.6657 17.3367 21.8332 19.8015 21.8332 22.5056V30.1596L20.3524 31.839H32.6472ZM26.4998 24.839C25.2111 24.839 24.1665 23.7942 24.1665 22.5056C24.1665 21.217 25.2111 20.1723 26.4998 20.1723C27.7885 20.1723 28.8332 21.217 28.8332 22.5056C28.8332 23.7942 27.7885 24.839 26.4998 24.839Z" fill="url(#paint1_linear_90_317)"/>
</g>
<defs>
<filter id="filter0_i_90_317" x="0.5" y="0" width="52" height="52" filterUnits="userSpaceOnUse" color-interpolation-filters="sRGB">
<feFlood flood-opacity="0" result="BackgroundImageFix"/>
<feBlend mode="normal" in="SourceGraphic" in2="BackgroundImageFix" result="shape"/>
<feColorMatrix in="SourceAlpha" type="matrix" values="0 0 0 0 0 0 0 0 0 0 0 0 0 0 0 0 0 0 127 0" result="hardAlpha"/>
<feOffset/>
<feGaussianBlur stdDeviation="4"/>
<feComposite in2="hardAlpha" operator="arithmetic" k2="-1" k3="1"/>
<feColorMatrix type="matrix" values="0 0 0 0 0.572549 0 0 0 0 0.0862745 0 0 0 0 1 0 0 0 0.4 0"/>
<feBlend mode="normal" in2="shape" result="effect1_innerShadow_90_317"/>
</filter>
<radialGradient id="paint0_radial_90_317" cx="0" cy="0" r="1" gradientUnits="userSpaceOnUse" gradientTransform="translate(26.5) rotate(90) scale(35.75 27.5913)">
<stop stop-color="white"/>
<stop offset="1" stop-color="#D6BEFF" stop-opacity="0"/>
</radialGradient>
<linearGradient id="paint1_linear_90_317" x1="26.4998" y1="13.7034" x2="26.4998" y2="39.4244" gradientUnits="userSpaceOnUse">
<stop stop-color="#D6BEFF"/>
<stop offset="1" stop-color="#9216FF"/>
</linearGradient>
</defs>
</svg>
