<svg width="48" height="48" viewBox="0 0 48 48" fill="none" xmlns="http://www.w3.org/2000/svg">
<path d="M42.7507 12C42.1401 12.0002 41.5388 12.1494 40.9991 12.4347C40.4593 12.7201 39.9974 13.1329 39.6534 13.6374C39.3094 14.1418 39.0938 14.7226 39.0253 15.3294C38.9568 15.9361 39.0375 16.5503 39.2604 17.1188L31.3695 25.0097C30.4898 24.6634 29.5116 24.6634 28.632 25.0097L22.991 19.3688C23.2144 18.8002 23.2955 18.1857 23.2272 17.5786C23.159 16.9716 22.9435 16.3904 22.5995 15.8856C22.2554 15.3808 21.7933 14.9677 21.2532 14.6823C20.7132 14.3968 20.1116 14.2475 19.5007 14.2475C18.8898 14.2475 18.2882 14.3968 17.7482 14.6823C17.2081 14.9677 16.746 15.3808 16.4019 15.8856C16.0579 16.3904 15.8424 16.9716 15.7742 17.5786C15.7059 18.1857 15.787 18.8002 16.0104 19.3688L6.61945 28.7597C5.81744 28.4451 4.93156 28.4162 4.11077 28.6779C3.28998 28.9397 2.58433 29.476 2.11248 30.1968C1.64063 30.9176 1.43135 31.7789 1.51984 32.6359C1.60832 33.4928 1.98918 34.2932 2.59836 34.9023C3.20754 35.5115 4.00789 35.8924 4.86484 35.9809C5.7218 36.0693 6.58309 35.8601 7.30389 35.3882C8.02469 34.9164 8.56105 34.2107 8.82277 33.3899C9.08449 32.5691 9.05562 31.6833 8.74101 30.8813L18.1319 21.4903C19.0116 21.8366 19.9898 21.8366 20.8694 21.4903L26.5104 27.1313C26.287 27.6998 26.2059 28.3143 26.2742 28.9214C26.3424 29.5284 26.5579 30.1096 26.9019 30.6144C27.246 31.1192 27.7081 31.5323 28.2482 31.8177C28.7882 32.1032 29.3898 32.2525 30.0007 32.2525C30.6116 32.2525 31.2132 32.1032 31.7532 31.8177C32.2933 31.5323 32.7554 31.1192 33.0995 30.6144C33.4435 30.1096 33.659 29.5284 33.7272 28.9214C33.7955 28.3143 33.7144 27.6998 33.491 27.1313L41.382 19.2403C41.8954 19.442 42.4471 19.528 42.9976 19.492C43.5481 19.4561 44.0839 19.2991 44.5668 19.0323C45.0497 18.7654 45.4677 18.3954 45.7912 17.9484C46.1146 17.5015 46.3354 16.9887 46.4379 16.4466C46.5404 15.9045 46.522 15.3465 46.384 14.8123C46.2461 14.2781 45.992 13.781 45.6398 13.3563C45.2877 12.9316 44.8462 12.5899 44.3468 12.3555C43.8474 12.121 43.3024 11.9996 42.7507 12Z" fill="#B7995B"/>
</svg>
