<svg width="48" height="48" viewBox="0 0 48 48" fill="none" xmlns="http://www.w3.org/2000/svg">
<path fill-rule="evenodd" clip-rule="evenodd" d="M15.0416 8.29268C16.585 8.16951 18.0502 7.56262 19.2286 6.55839C21.9785 4.21491 26.0231 4.21491 28.773 6.55839C29.9514 7.56262 31.4166 8.16952 32.9599 8.29268C36.5615 8.58008 39.4215 11.44 39.7089 15.0416C39.8321 16.585 40.4389 18.0502 41.4432 19.2286C43.7867 21.9785 43.7867 26.0231 41.4432 28.773C40.4389 29.9514 39.8321 31.4166 39.7089 32.9599C39.4215 36.5615 36.5615 39.4215 32.9599 39.7089C31.4166 39.8321 29.9514 40.4389 28.773 41.4432C26.0231 43.7867 21.9785 43.7867 19.2286 41.4432C18.0502 40.4389 16.585 39.8321 15.0416 39.7089C11.44 39.4215 8.58008 36.5615 8.29268 32.9599C8.16951 31.4166 7.56262 29.9514 6.55839 28.773C4.21491 26.0231 4.21491 21.9785 6.55839 19.2286C7.56262 18.0502 8.16952 16.585 8.29268 15.0416C8.58008 11.44 11.44 8.58008 15.0416 8.29268ZM32.8978 20.8978C33.8351 19.9606 33.8351 18.441 32.8978 17.5037C31.9606 16.5665 30.441 16.5665 29.5037 17.5037L21.6008 25.4067L18.4978 22.3037C17.5606 21.3665 16.041 21.3665 15.1037 22.3037C14.1665 23.241 14.1665 24.7606 15.1037 25.6978L19.9037 30.4978C20.841 31.4351 22.3606 31.4351 23.2978 30.4978L32.8978 20.8978Z" fill="#B7995B"/>
</svg>
