<svg width="44" height="44" viewBox="0 0 44 44" fill="none" xmlns="http://www.w3.org/2000/svg">
<rect width="44" height="44" rx="22" fill="url(#paint0_linear_90_236)"/>
<rect x="0.5" y="0.5" width="43" height="43" rx="21.5" stroke="white" stroke-opacity="0.56"/>
<path d="M30.5104 16.7134C29.8743 16.9948 29.1996 17.1796 28.5088 17.2618C29.2366 16.8261 29.7812 16.1407 30.0411 15.3334C29.3573 15.7397 28.6088 16.0256 27.8282 16.1788C27.1693 15.4759 26.2483 15.0775 25.2848 15.0786C23.3605 15.0786 21.7998 16.6388 21.7998 18.564C21.7998 18.8371 21.8311 19.102 21.8897 19.3576C18.9921 19.2117 16.4251 17.825 14.7057 15.7162C14.3961 16.2481 14.2334 16.8526 14.2342 17.4681C14.2342 18.6772 14.8497 19.7444 15.7846 20.3692C15.2311 20.3517 14.6899 20.2022 14.206 19.9331C14.2055 19.9477 14.2055 19.9624 14.2055 19.9762C14.2055 21.6653 15.4068 23.0743 17.0017 23.3942C16.7023 23.4752 16.3936 23.5162 16.0835 23.5159C15.8583 23.5159 15.6398 23.4952 15.4273 23.4544C15.8711 24.8387 17.1574 25.8466 18.683 25.8742C17.4484 26.8432 15.9239 27.3688 14.3545 27.3666C14.0768 27.3668 13.7992 27.3504 13.5234 27.3176C15.1167 28.3418 16.9713 28.8854 18.8654 28.8834C25.2763 28.8834 28.7817 23.5729 28.7817 18.9676C28.7817 18.8169 28.778 18.6657 28.7713 18.5166C29.4536 18.0237 30.0425 17.4131 30.5104 16.7134Z" fill="white"/>
<defs>
<linearGradient id="paint0_linear_90_236" x1="22" y1="0" x2="22" y2="44" gradientUnits="userSpaceOnUse">
<stop stop-color="#D6BEFF"/>
<stop offset="1" stop-color="#9216FF"/>
</linearGradient>
</defs>
</svg>
