<?xml version="1.0" encoding="utf-8"?>
<!-- Generator: Adobe Illustrator 27.8.0, SVG Export Plug-In . SVG Version: 6.00 Build 0)  -->
<svg version="1.1" id="Layer_1" xmlns="http://www.w3.org/2000/svg" xmlns:xlink="http://www.w3.org/1999/xlink" x="0px" y="0px"
	 viewBox="0 0 866.5 125.5" style="enable-background:new 0 0 866.5 125.5;" xml:space="preserve">
<style type="text/css">
	.st0{fill:#FFFFFF;}
</style>
<g>
	<path class="st0" d="M193.4,0.6h21.5L186,88.2c-2.4,7.3-9.2,12.2-16.8,12.2l0,0c-7.7,0-14.5-4.9-16.9-12.2L123.6,0.5h21.5l24,75.7
		L193.4,0.6z"/>
	<path class="st0" d="M216.5,31.9c7.9-7.8,17.5-11.7,29-11.7s21.1,3.9,29,11.7c7.9,7.8,11.9,17.5,11.9,29.2
		c0,11.8-3.9,21.6-11.8,29.3c-7.9,7.8-17.6,11.6-29.2,11.6c-11.5,0-21.2-3.9-29-11.7c-7.9-7.8-11.8-17.5-11.8-29.2
		C204.7,49.5,208.7,39.7,216.5,31.9z M260,45.6c-3.9-4-8.7-6-14.5-6c-5.8,0-10.6,2-14.5,6s-5.8,9.2-5.8,15.5s1.9,11.5,5.8,15.5
		c3.9,4,8.7,6,14.5,6c5.8,0,10.6-2,14.5-6s5.8-9.2,5.8-15.5C265.8,54.8,263.8,49.6,260,45.6z"/>
	<path class="st0" d="M338.8,20.2c1.3,0,2.9,0.1,4.6,0.3v21c-2.1-0.2-3.8-0.3-5-0.3c-7.2,0-13,1.9-17.5,5.6
		c-4.4,3.8-6.6,10-6.6,18.6v35h-20.4V22h20.4v13.7C319.1,25.4,327.3,20.2,338.8,20.2z"/>
	<path class="st0" d="M352.2,21.9V5l20.4-4.4V22h29.1v19.3h-29.1V69c0,9.4,4.2,14.1,12.5,14.1c3.7,0,9.2-1.3,16.4-3.9l3.4,16.5
		c-2.4,1.6-5.8,3.1-10.2,4.4c-4.4,1.3-8.8,1.9-13.2,1.9c-8.5,0-15.5-2.7-21-8c-5.6-5.3-8.3-13.3-8.3-24v-29"/>
	<path class="st0" d="M448.2,20.2c12.8,0,23,4.4,30.5,13.3c7.5,8.8,10.7,19.8,9.6,33h-60.2c0.7,6.1,2.8,10.8,6.6,14
		s8.3,4.9,13.8,4.9c4,0,7.6-0.9,10.7-2.6s5.4-4.2,6.7-7.2H487c-2.8,8.8-7.6,15.5-14.5,20s-14.9,6.7-23.8,6.7
		c-12.2,0-22.1-3.9-29.8-11.5c-7.7-7.7-11.5-17.5-11.5-29.2c0-11.8,3.8-21.6,11.5-29.4C426.5,24.1,436.3,20.2,448.2,20.2z M448,37.1
		c-4.8,0-8.9,1.3-12.1,3.9c-3.2,2.6-5.5,6.1-6.8,10.5h37.5c-1.1-4.4-3.3-7.9-6.6-10.5C456.8,38.4,452.8,37.1,448,37.1z"/>
	<path class="st0" d="M574.9,100.4h-24.4L529.8,66l-20.2,34.4h-24.2l32.2-51.8L486.9,0.5h24.2l19.3,32.1l19.4-32.1H574l-31.2,49.6
		L574.9,100.4z"/>
	<path class="st0" d="M626,20.2c10.2,0,18.7,3.8,25.5,11.5c6.8,7.7,10.3,17.5,10.3,29.5s-3.4,21.8-10.2,29.5s-15.3,11.5-25.6,11.5
		c-10.4,0-18.6-4.1-24.8-12.3v31.2l-20.4,4.4V21.9h20.4v11C607.2,24.5,615.5,20.2,626,20.2z M621.3,82.7c5.7,0,10.4-2,14.2-6
		s5.6-9.2,5.6-15.5s-1.8-11.5-5.6-15.5c-3.7-4-8.5-6-14.3-6s-10.6,2-14.4,6c-3.8,4-5.7,9.2-5.7,15.5s1.9,11.5,5.7,15.5
		C610.7,80.7,615.5,82.7,621.3,82.7z"/>
	<path class="st0" d="M708.3,20.2c12.8,0,23,4.4,30.5,13.3c7.5,8.8,10.7,19.8,9.6,33h-60.2c0.7,6.1,2.8,10.8,6.6,14
		s8.3,4.9,13.8,4.9c4,0,7.6-0.9,10.7-2.6s5.4-4.2,6.7-7.2h21.1c-2.8,8.8-7.6,15.5-14.5,20s-14.9,6.7-23.8,6.7
		c-12.2,0-22.1-3.9-29.8-11.5c-7.7-7.7-11.5-17.5-11.5-29.2c0-11.8,3.8-21.6,11.5-29.4C686.6,24.1,696.4,20.2,708.3,20.2z
		 M708.2,37.1c-4.8,0-8.9,1.3-12.1,3.9c-3.2,2.6-5.5,6.1-6.8,10.5h37.5c-1.1-4.4-3.3-7.9-6.6-10.5C716.9,38.4,712.9,37.1,708.2,37.1
		z"/>
	<path class="st0" d="M800.4,20.2c1.3,0,2.8,0.1,4.6,0.3v21c-2.1-0.2-3.8-0.3-5-0.3c-7.2,0-13,1.9-17.5,5.6
		c-4.4,3.8-6.6,10-6.6,18.6v35h-20.4V22h20.4v13.7C780.7,25.4,788.9,20.2,800.4,20.2z"/>
	<path class="st0" d="M813.7,21.9V5l20.4-4.4V22h29.1v19.3h-29.1V69c0,9.4,4.2,14.1,12.5,14.1c3.7,0,9.2-1.3,16.4-3.9l3.4,16.5
		c-2.4,1.6-5.8,3.1-10.2,4.4s-8.8,1.9-13.2,1.9c-8.5,0-15.5-2.7-21-8c-5.6-5.3-8.3-13.3-8.3-24v-29"/>
	<path class="st0" d="M56.1,60.1H20.6L2.8,30C-5,16.8,4.5,0,19.9,0h0.7L56.1,60.1z"/>
	<path class="st0" d="M91.2,59.8L73.2,91c-7.6,13.2-26.6,13.2-34.3,0.1l-0.3-0.5l17.6-30.4l14.2-24.5l3.3-5.7h0L91.2,59.8z"/>
	<path class="st0" d="M108.5,30.1L108.5,30.1H73.6L56,0.2h35.3C106.6,0.2,116.2,16.8,108.5,30.1z"/>
</g>
</svg>
