<svg width="48" height="48" viewBox="0 0 48 48" fill="none" xmlns="http://www.w3.org/2000/svg">
<path d="M38.8499 9.16153C36.9034 7.19575 34.5876 5.63394 32.0357 4.56583C29.4837 3.49772 26.7459 2.94437 23.9794 2.93756C21.213 2.93075 18.4724 3.47062 15.9153 4.52615C13.3581 5.58169 11.0347 7.13208 9.07849 9.08826C7.12231 11.0444 5.57192 13.3679 4.51639 15.925C3.46086 18.4822 2.92099 21.2227 2.9278 23.9892C2.93461 26.7556 3.48796 29.4935 4.55607 32.0454C5.62417 34.5974 7.18598 36.9131 9.15177 38.8597C11.0983 40.8254 13.4141 42.3872 15.966 43.4554C18.5179 44.5235 21.2558 45.0768 24.0222 45.0836C26.7887 45.0904 29.5292 44.5506 32.0864 43.495C34.6436 42.4395 36.967 40.8891 38.9232 38.9329C40.8793 36.9767 42.4297 34.6533 43.4853 32.0962C44.5408 29.539 45.0807 26.7985 45.0739 24.032C45.0671 21.2656 44.5137 18.5277 43.4456 15.9758C42.3775 13.4238 40.8157 11.1081 38.8499 9.16153ZM6.00083 24.0106C6.00016 22.4175 6.21138 20.8314 6.62895 19.294C7.31708 20.7753 8.31645 22.055 8.99614 23.5747C9.87458 25.5284 12.2333 24.9865 13.2749 26.6984C14.1993 28.2181 13.2121 30.14 13.904 31.73C14.4065 32.884 15.5915 33.1362 16.409 33.98C17.2443 34.8312 17.2265 35.9975 17.354 37.1075C17.4978 38.4116 17.7312 39.7044 18.0524 40.9765C18.0524 40.9859 18.0524 40.9962 18.0599 41.0056C11.0446 38.5418 6.00083 31.8547 6.00083 24.0106ZM24.0008 42.0106C22.9956 42.0103 21.9921 41.9262 21.0008 41.7593C21.0111 41.5053 21.0158 41.2681 21.0411 41.1031C21.269 39.6125 22.0152 38.1547 23.0221 37.039C24.0168 35.9384 25.3799 35.194 26.2199 33.9453C27.043 32.7265 27.2896 31.0859 26.9502 29.6618C26.4505 27.5581 23.5921 26.8559 22.0508 25.715C21.1649 25.0587 20.3765 24.0443 19.213 23.9618C18.6768 23.9243 18.2277 24.0397 17.6961 23.9028C17.2086 23.7762 16.8261 23.5137 16.3068 23.5822C15.3365 23.7097 14.7243 24.7465 13.6818 24.6059C12.6927 24.4737 11.6736 23.3159 11.4486 22.3737C11.1599 21.1625 12.118 20.7697 13.1446 20.6618C13.573 20.6168 14.054 20.5681 14.4655 20.7256C15.0074 20.9262 15.2633 21.4568 15.7499 21.725C16.6621 22.2256 16.8468 21.4259 16.7071 20.6159C16.498 19.4028 16.2543 18.9087 17.3361 18.0734C18.0861 17.4978 18.7274 17.0815 18.6074 16.0475C18.5361 15.44 18.2033 15.1653 18.5136 14.5606C18.749 14.1003 19.3949 13.685 19.8158 13.4103C20.9024 12.7015 24.4705 12.754 23.0127 10.7703C22.5843 10.1881 21.794 9.14747 21.044 9.00497C20.1065 8.82778 19.6902 9.87403 19.0368 10.3353C18.3618 10.8125 17.0474 11.3543 16.3715 10.6165C15.4621 9.62372 16.9743 9.29841 17.309 8.60466C17.4636 8.28122 17.309 7.83216 17.0483 7.40934C17.3865 7.26684 17.7302 7.13466 18.0796 7.01278C18.2985 7.1745 18.5583 7.2719 18.8296 7.29403C19.4568 7.33528 20.0483 6.99591 20.5958 7.42341C21.2033 7.89216 21.6411 8.48466 22.4474 8.63091C23.2274 8.77247 24.0533 8.31778 24.2465 7.51903C24.3636 7.03341 24.2465 6.52059 24.134 6.01903C27.6402 6.03921 31.0633 7.08927 33.9777 9.03872C33.7902 8.96747 33.5661 8.97591 33.2896 9.10434C32.7205 9.36872 31.9143 10.0418 31.8477 10.7093C31.7718 11.4668 32.8893 11.5737 33.4199 11.5737C34.2168 11.5737 35.024 11.2175 34.7671 10.2968C34.6555 9.89747 34.5036 9.48216 34.259 9.23091C34.8472 9.63906 35.4106 10.0817 35.9465 10.5565C35.938 10.565 35.9296 10.5725 35.9211 10.5818C35.3811 11.1443 34.754 11.5897 34.3846 12.274C34.124 12.7559 33.8305 12.9847 33.3027 13.1093C33.0121 13.1778 32.6802 13.2031 32.4365 13.3981C31.7577 13.9325 32.144 15.2168 32.7871 15.6022C33.5999 16.0887 34.8055 15.86 35.4186 15.1653C35.8977 14.6215 36.1799 13.6775 37.0415 13.6784C37.4208 13.6776 37.7851 13.8261 38.0558 14.0918C38.4121 14.4612 38.3418 14.8062 38.4177 15.2675C38.5518 16.0868 39.2746 15.6425 39.7143 15.229C40.0348 15.7994 40.3239 16.3869 40.5805 16.9887C40.0968 17.6853 39.7124 18.4447 38.549 17.6328C37.8524 17.1462 37.424 16.4403 36.5493 16.2209C35.7852 16.0334 35.0024 16.2284 34.2477 16.3587C33.3899 16.5078 32.3727 16.5734 31.7221 17.2231C31.093 17.8493 30.7602 18.6875 30.0908 19.3165C28.7961 20.5353 28.2496 21.8656 29.0877 23.5887C29.894 25.2453 31.5805 26.1443 33.4002 26.0262C35.188 25.9072 37.0452 24.8703 36.9936 27.4681C36.9749 28.3878 37.1671 29.0243 37.4493 29.8784C37.7108 30.6659 37.693 31.429 37.753 32.2418C37.8101 33.1936 37.9589 34.1377 38.1974 35.0609C36.517 37.2244 34.3644 38.9753 31.9039 40.1798C29.4435 41.3843 26.7403 42.0105 24.0008 42.0106Z" fill="#B7995B"/>
</svg>
